<svg xmlns="http://www.w3.org/2000/svg" width="186" height="180" viewBox="0 0 186 180" version="1.1"><path d="M 59.427 38.966 C 35.361 61.726, 25.338 70.607, 24.703 69.731 C 24.091 68.886, 23.984 69.040, 24.364 70.222 C 24.759 71.456, 22.658 74.009, 16.958 79.222 C 12.582 83.225, 9.001 86.838, 9.001 87.250 C 9 87.662, 11.835 88, 15.299 88 L 21.598 88 52.549 58.645 C 71.643 40.535, 83.781 29.713, 84.235 30.395 C 84.679 31.063, 85.013 30.709, 85.079 29.500 C 85.139 28.400, 87.072 25.846, 89.373 23.824 L 93.558 20.148 103.029 29.103 C 108.238 34.028, 115.088 40.362, 118.250 43.179 C 121.412 45.995, 124 48.907, 124 49.650 C 124 50.392, 124.358 50.888, 124.795 50.750 C 125.233 50.613, 129.922 54.494, 135.215 59.376 C 141.817 65.465, 144.679 68.763, 144.326 69.876 C 143.997 70.913, 144.117 71.091, 144.656 70.370 C 145.222 69.611, 148.787 72.316, 155.500 78.599 L 165.500 87.960 171.833 87.980 C 175.317 87.991, 178.017 87.604, 177.833 87.121 C 177.523 86.300, 98.314 11.012, 94.841 8.235 C 93.478 7.145, 88.569 11.404, 59.427 38.966" stroke="none" fill="#4b4b4b" fill-rule="evenodd"/><path d="M 38 140.500 L 38 170 63.500 170 L 89 170 89 140.500 L 89 111 63.500 111 L 38 111 38 140.500 M 61.987 118.516 C 61.055 119.639, 60.645 122.290, 60.776 126.356 C 60.972 132.427, 60.924 132.543, 56.738 136.168 C 54.408 138.185, 52.781 140.114, 53.121 140.454 C 53.461 140.794, 58.411 140.944, 64.120 140.786 L 74.500 140.500 71.636 137.864 C 70.061 136.414, 67.963 134.540, 66.973 133.701 C 65.496 132.448, 65.264 131.128, 65.674 126.337 C 66.025 122.245, 65.759 119.950, 64.785 118.660 C 63.482 116.935, 63.306 116.926, 61.987 118.516 M 53 152 L 53 161 63.500 161 L 74 161 74 152 L 74 143 63.500 143 L 53 143 53 152" stroke="none" fill="#1c74bb" fill-rule="evenodd"/><path d="M 62.250 56.159 L 38 79.216 38 90.608 L 38 102 63.500 102 L 89 102 89 67.500 C 89 40.540, 88.727 33.011, 87.750 33.051 C 87.063 33.079, 75.588 43.477, 62.250 56.159 M 72.120 65.231 C 63.301 74.258, 60.861 76.251, 59.855 75.250 C 58.187 73.588, 56.654 73.656, 57.309 75.362 C 57.613 76.154, 55.144 79.389, 51.416 83.083 C 44.616 89.823, 44.007 91.245, 46.664 94.181 C 48.258 95.942, 48.635 95.723, 55.564 89.003 C 60.520 84.198, 63.305 82.180, 64.400 82.600 C 66.326 83.339, 66.415 82.654, 64.750 79.920 C 63.605 78.039, 64.402 76.994, 74.250 67.472 C 80.162 61.755, 85 56.637, 85 56.098 C 85 52.998, 81.980 55.139, 72.120 65.231" stroke="none" fill="#f11926" fill-rule="evenodd"/><path d="M 98 66.917 L 98 102 123.500 102 L 149 102 149 90.607 L 149 79.214 124.375 55.857 C 110.832 43.011, 99.357 32.350, 98.875 32.167 C 98.385 31.980, 98 47.268, 98 66.917 M 110.800 59.200 C 112.645 61.045, 112.227 63.808, 109.917 65.045 C 108.255 65.934, 107.446 65.809, 105.917 64.425 C 104.863 63.471, 104 63.178, 104 63.774 C 104 65.606, 107.024 68, 109.339 68 C 112.513 68, 128.018 84.992, 128.529 89.030 C 129.009 92.819, 129.731 94, 131.567 94 C 132.732 94, 132.788 93.633, 131.851 92.132 C 131.209 91.105, 130.966 89.530, 131.311 88.632 C 132.051 86.703, 136.041 86.472, 137.922 88.250 C 139.014 89.282, 139.040 89.102, 138.068 87.214 C 137.401 85.919, 135.596 84.669, 133.903 84.331 C 129.773 83.505, 114.007 66.566, 114.003 62.950 C 114 60.343, 112.389 58, 110.600 58 C 110.044 58, 110.133 58.533, 110.800 59.200" stroke="none" fill="#fbaf41" fill-rule="evenodd"/><path d="M 98 140.500 L 98 170 123.500 170 L 149 170 149 140.500 L 149 111 123.500 111 L 98 111 98 140.500 M 109.667 118.667 C 108.431 119.902, 108.988 124.781, 110.427 125.334 C 112.530 126.140, 114.321 123.413, 113.593 120.513 C 112.992 118.120, 111.102 117.231, 109.667 118.667 M 116.667 119.667 C 116.300 120.033, 116.014 121.271, 116.032 122.417 C 116.114 127.825, 123.351 130.433, 124.589 125.500 C 125.122 123.377, 125.795 123, 129.049 123 C 131.157 123, 133.160 123.450, 133.500 124 C 133.840 124.550, 134.654 124.987, 135.309 124.971 C 135.964 124.955, 135.030 123.605, 133.234 121.971 C 130.336 119.335, 129.257 119, 123.651 119 C 120.176 119, 117.033 119.300, 116.667 119.667 M 118.545 144.611 C 117.798 159.699, 118.142 161.505, 121.632 160.832 C 124.147 160.348, 124.329 158.648, 123.508 143.308 C 122.877 131.532, 122.592 130, 121.032 130 C 119.461 130, 119.190 131.595, 118.545 144.611" stroke="none" fill="#8bc53c" fill-rule="evenodd"/></svg>