<svg id="backgroundWaveShape" viewBox="0 0 1440 798" fill="none" xmlns="http://www.w3.org/2000/svg">
  <mask id="mask0_9_87144" style="mask-type:alpha" maskUnits="userSpaceOnUse" x="0" y="0" width="1440" height="798">
    <rect y="0.531738" width="1440" height="797.246" fill="var(--svg-color, #4261EE)"/>
  </mask>
  <g mask="url(#mask0_9_87144)">
    <path fill-rule="evenodd" clip-rule="evenodd" d="M-1876.73 304.217L-1778.49 261.896C-1683.65 219.576 -1490.56 134.934 -1297.47 134.934C-1101 134.934 -907.916 219.576 -714.83 219.576C-521.744 219.576 -328.659 134.934 -135.573 75.6852C57.5126 16.4361 253.986 -6.63426 447.071 10.294C640.157 27.2223 833.243 84.1493 1026.33 143.398C1219.41 202.647 1412.5 212.559 1608.97 187.167C1802.06 161.774 1995.14 101.078 2089.99 50.2927L2188.23 -0.492188V355.002H2089.99C1995.14 355.002 1802.06 355.002 1608.97 355.002C1412.5 355.002 1219.41 355.002 1026.33 355.002C833.243 355.002 640.157 355.002 447.071 355.002C253.986 355.002 57.5126 355.002 -135.573 355.002C-328.659 355.002 -521.744 355.002 -714.83 355.002C-907.916 355.002 -1101 355.002 -1297.47 355.002C-1490.56 355.002 -1683.65 355.002 -1778.49 355.002H-1876.73V304.217Z" fill="var(--svg-color, #4261EE)"/>
    <path fill-rule="evenodd" clip-rule="evenodd" d="M2188.22 376.382L2076.44 460.871C1961.26 545.359 1737.69 714.337 1510.73 770.663C1283.77 826.989 1060.2 770.663 833.238 695.562C606.277 620.461 382.704 586.454 155.744 605.229C-71.2163 624.004 -294.789 695.562 -521.75 704.949C-748.71 714.337 -972.282 601.685 -1199.24 592.298C-1426.2 582.91 -1649.78 676.786 -1764.95 723.725L-1876.74 770.663V320.056H-1764.95C-1649.78 320.056 -1426.2 320.056 -1199.24 320.056C-972.282 320.056 -748.71 320.056 -521.75 320.056C-294.789 320.056 -71.2163 320.056 155.744 320.056C382.704 320.056 606.277 320.056 833.238 320.056C1060.2 320.056 1283.77 320.056 1510.73 320.056C1737.69 320.056 1961.26 320.056 2076.44 320.056H2188.22V376.382Z" fill="var(--svg-color, #4261EE)"/>
  </g>
</svg>
