<?xml version="1.0" encoding="utf-8"?>
<svg xmlns="http://www.w3.org/2000/svg" fill="none" height="399" viewBox="0 0 1440 399" width="1440">
<g opacity="0.1">
<path d="M-99.1219 397.717C-73.1918 380.07 4.67562 356.378 24.3771 337.367C44.983 317.468 75.4525 298.634 122.245 286.153C213.261 261.876 335.932 267.887 445.813 274.5C555.694 281.113 679.492 286.07 767.82 260.402C838.955 239.73 871.575 202.873 949.639 186.186C1042.66 166.303 1161.5 182.648 1264.61 172.132C1354.65 162.947 1418.72 134.977 1469.97 107.013C1524.03 77.5144 1522.7 55.7988 1539.12 17.7" opacity="0.17" stroke="black" stroke-miterlimit="10" stroke-width="3"/>
<path d="M1539.11 17.7992C1522.58 55.4123 1523.21 76.8243 1469.07 105.992C1449 116.745 1427.03 127.509 1402.47 137.191C1363.61 152.398 1318.15 165.017 1263.32 170.758C1223.15 175.014 1180.88 175.279 1138.61 175.19C1072.47 174.986 1006.33 173.954 949.374 186.109C879.323 201.068 845.491 232.035 787.718 252.989C781.199 255.351 774.373 257.587 767.155 259.657C709.97 276.04 638.144 279.761 564.85 278.546C524.628 277.878 483.962 275.726 445.02 273.38C429.345 272.436 413.407 271.508 397.34 270.675C341.785 267.81 284.652 266.148 231.349 269.267C202.416 270.962 174.634 274.064 148.806 279.109C139.429 280.942 130.316 283.029 121.494 285.402C74.804 297.955 44.3516 316.811 23.7372 336.738C10.6057 349.445 -27.8161 364.2 -59.6507 377.895C-75.7856 384.839 -90.2396 391.502 -98.9598 397.48" opacity="0.1702" stroke="#010102" stroke-miterlimit="10" stroke-width="2.9779"/>
<path d="M1539.11 17.8987C1522.47 55.0205 1522.53 76.2283 1468.18 104.971C1448.03 115.63 1425.97 126.289 1401.39 135.833C1362.37 150.98 1316.68 163.516 1262.02 169.389C1221.87 173.799 1179.89 174.318 1137.85 174.467C1072.12 174.572 1006.23 173.86 949.101 186.043C879.152 200.969 844.945 231.616 787.078 252.332C780.542 254.667 773.707 256.881 766.48 258.928C709.159 275.113 637.341 278.756 564.081 277.492C523.851 276.797 483.185 274.622 444.217 272.276C428.535 271.332 412.596 270.405 396.521 269.577C340.94 266.723 283.764 265.111 230.496 268.307C201.562 270.051 173.806 273.22 148.021 278.315C138.652 280.169 129.548 282.272 120.743 284.663C74.1468 297.281 43.7029 316.171 23.097 336.125C9.90574 348.921 -28.2429 363.753 -59.7875 377.536C-75.7774 384.513 -90.0778 391.22 -98.8065 397.243" opacity="0.1704" stroke="#020305" stroke-miterlimit="10" stroke-width="2.9558"/>
<path d="M1539.11 18.0037C1522.36 54.6342 1521.78 75.5936 1467.29 103.955C1447.03 114.504 1424.88 125.053 1400.3 134.481C1361.08 149.523 1315.18 161.926 1260.72 168.026C1220.55 172.524 1178.89 173.424 1137.09 173.75C1071.79 174.258 1006.13 173.772 948.82 185.977C878.973 200.869 844.391 231.196 786.439 251.675C779.894 253.983 773.043 256.169 765.816 258.194C708.349 274.186 636.549 277.741 563.323 276.432C523.084 275.709 482.418 273.518 443.433 271.166C427.742 270.222 411.795 269.295 395.719 268.473C340.105 265.63 282.894 264.062 229.652 267.347C200.71 269.146 172.988 272.375 147.237 277.52C137.885 279.391 128.789 281.516 119.992 283.923C73.4905 296.613 43.0637 315.525 22.4577 335.513C9.20681 348.396 -28.6774 363.306 -59.9318 377.178C-75.7681 384.193 -89.9235 390.944 -98.6522 397.011" opacity="0.1706" stroke="#030407" stroke-miterlimit="10" stroke-width="2.9336"/>
<path d="M1539.11 18.1028C1522.25 54.2366 1521.02 74.953 1466.4 102.934C1446.03 113.372 1423.8 123.81 1399.22 133.117C1359.79 148.054 1313.7 160.391 1259.43 166.651C1219.27 171.288 1177.92 172.474 1136.35 173.021C1071.47 173.871 1006.06 173.678 948.564 185.905C878.811 200.764 843.87 230.771 785.815 251.018C779.254 253.303 772.394 255.462 765.158 257.46C707.555 273.258 635.763 276.73 562.572 275.372C522.332 274.616 481.658 272.408 442.648 270.057C426.948 269.107 411.001 268.185 394.925 267.363C339.285 264.531 282.032 263.013 228.824 266.38C199.873 268.23 172.185 271.525 146.468 276.719C137.125 278.613 128.047 280.754 119.258 283.178C72.8586 295.934 42.4403 314.879 21.8344 334.889C8.52373 347.855 -29.0874 362.842 -60.0518 376.807C-75.743 383.862 -89.7448 390.663 -98.4735 396.773" opacity="0.1708" stroke="#040609" stroke-miterlimit="10" stroke-width="2.9115"/>
<path d="M1539.11 18.2023C1522.14 53.8448 1520.27 74.3073 1465.51 101.913C1445.03 112.235 1422.71 122.563 1398.15 131.759C1358.51 146.597 1312.23 158.857 1258.14 165.282C1217.99 170.051 1176.94 171.536 1135.6 172.298C1071.13 173.485 1005.96 173.584 948.291 185.838C878.64 200.665 843.324 230.352 785.175 250.361C778.597 252.619 771.728 254.75 764.484 256.726C706.745 272.331 634.961 275.72 561.804 274.313C521.556 273.529 480.882 271.304 441.846 268.947C426.146 267.998 410.19 267.076 394.106 266.259C338.44 263.438 281.145 261.964 227.97 265.414C199.011 267.313 171.357 270.675 145.683 275.924C136.349 277.834 127.279 279.998 118.507 282.438C72.2016 295.266 41.7919 314.239 21.1945 334.276C7.81554 347.331 -29.5226 362.395 -60.1883 376.449C-75.7345 383.542 -89.5827 390.387 -98.3114 396.542" opacity="0.171" stroke="#05070C" stroke-miterlimit="10" stroke-width="2.8894"/>
<path d="M1539.11 18.3073C1522.03 53.4585 1519.51 73.6671 1464.62 100.897C1444.04 111.109 1421.62 121.327 1397.07 130.401C1357.24 145.134 1310.76 157.328 1256.85 163.913C1216.71 168.82 1175.96 170.592 1134.85 171.569C1070.81 173.098 1005.88 173.485 948.026 185.761C878.478 200.555 842.787 229.921 784.544 249.694C777.957 251.924 771.071 254.032 763.818 255.981C705.934 271.387 634.159 274.694 561.036 273.242C520.779 272.43 480.105 270.184 441.043 267.827C425.335 266.877 409.371 265.955 393.287 265.144C337.587 262.34 280.258 260.905 227.117 264.443C198.149 266.397 170.53 269.819 144.89 275.119C135.572 277.051 126.511 279.231 117.748 281.682C71.5361 294.577 41.1434 313.576 20.546 333.647C7.1074 346.79 -29.9577 361.931 -60.3418 376.074C-75.7344 383.205 -89.4376 390.094 -98.1748 396.293" opacity="0.1712" stroke="#06090E" stroke-miterlimit="10" stroke-width="2.8673"/>
<path d="M1539.11 18.4065C1521.92 53.0664 1518.75 73.0267 1463.73 99.8758C1443.03 109.977 1420.53 120.079 1395.99 129.043C1355.94 143.671 1309.28 155.799 1255.55 162.544C1215.41 167.584 1174.98 169.648 1134.1 170.846C1070.48 172.712 1005.8 173.391 947.762 185.695C878.316 200.455 842.249 229.501 783.921 249.042C777.317 251.245 770.431 253.337 763.17 255.252C705.192 270.542 633.383 273.689 560.293 272.187C520.029 271.348 479.354 269.085 440.267 266.723C424.55 265.773 408.586 264.851 392.494 264.045C336.768 261.252 279.396 259.867 226.29 263.488C197.322 265.492 169.728 268.98 144.13 274.329C134.822 276.283 125.777 278.48 117.023 280.948C70.9048 293.914 40.5291 312.941 19.9317 333.034C6.43337 346.266 -30.3672 361.484 -60.4527 375.715C-75.7002 382.885 -89.2498 389.818 -97.9871 396.061" opacity="0.1714" stroke="#070A10" stroke-miterlimit="10" stroke-width="2.8452"/>
<path d="M1539.11 18.5114C1521.82 52.68 1517.98 72.3863 1462.84 98.8601C1442.03 108.851 1419.44 118.837 1394.91 127.691C1354.66 142.214 1307.81 154.275 1254.27 161.181C1214.13 166.358 1174 168.71 1133.35 170.129C1070.15 172.331 1005.71 173.308 947.489 185.629C878.137 200.356 841.703 229.082 783.281 248.385C776.66 250.56 769.766 252.63 762.496 254.518C704.39 269.626 632.58 272.679 559.525 271.128C519.252 270.261 478.578 267.976 439.473 265.613C423.748 264.664 407.784 263.742 391.683 262.936C335.932 260.154 278.517 258.813 225.445 262.516C196.469 264.57 168.909 268.125 143.345 273.529C134.045 275.499 125.009 277.718 116.272 280.202C70.2562 293.241 39.8891 312.29 19.2917 332.416C5.73358 345.736 -30.7939 361.031 -60.5893 375.35C-75.6833 382.565 -89.0878 389.542 -97.8251 395.824" opacity="0.1716" stroke="#090C13" stroke-miterlimit="10" stroke-width="2.823"/>
<path d="M1539.11 18.6108C1521.71 52.2882 1517.22 71.7406 1461.95 97.8391C1441.03 107.72 1418.35 117.595 1393.84 126.328C1353.37 140.751 1306.33 152.746 1252.98 159.806C1212.85 165.122 1173.03 167.761 1132.61 169.4C1069.84 171.939 1005.63 173.209 947.232 185.557C877.983 200.251 841.174 228.657 782.658 247.723C776.028 249.87 769.117 251.918 761.839 253.784C703.596 268.704 631.795 271.663 558.775 270.068C518.493 269.174 477.818 266.866 438.688 264.504C422.955 263.554 406.982 262.632 390.881 261.832C335.096 259.061 277.647 257.769 224.609 261.556C195.624 263.659 168.098 267.28 142.577 272.734C133.286 274.727 124.267 276.962 115.538 279.463C69.6162 292.567 39.2577 311.65 18.6688 331.803C5.05097 345.211 -31.212 360.584 -60.7088 374.992C-75.6748 382.245 -88.9172 389.266 -97.663 395.592" opacity="0.1718" stroke="#0A0D15" stroke-miterlimit="10" stroke-width="2.8009"/>
<path d="M1539.11 18.7101C1521.6 51.8962 1516.45 71.0947 1461.07 96.8178C1440.03 106.588 1417.26 116.347 1392.76 124.97C1352.08 139.288 1304.86 151.217 1251.69 158.437C1211.56 163.891 1172.05 166.817 1131.87 168.677C1069.51 171.553 1005.55 173.115 946.968 185.491C877.821 200.152 840.636 228.237 782.027 247.072C775.38 249.197 768.46 251.212 761.173 253.055C702.794 267.794 631.002 270.658 558.015 269.013C517.733 268.086 477.05 265.768 437.895 263.4C422.161 262.45 406.18 261.528 390.07 260.733C334.259 257.973 276.768 256.726 223.755 260.601C194.762 262.759 167.27 266.441 141.784 271.945C132.509 273.954 123.499 276.211 114.787 278.729C68.9592 291.905 38.6177 311.009 18.0289 331.19C4.3513 344.687 -31.6387 360.137 -60.8539 374.633C-75.6577 381.925 -88.7551 388.99 -97.5009 395.366" opacity="0.172" stroke="#0B0E17" stroke-miterlimit="10" stroke-width="2.7788"/>
<path d="M1539.11 18.8151C1521.49 51.5099 1515.68 70.4545 1460.18 95.8022C1439.04 105.457 1416.17 115.106 1391.69 123.612C1350.79 137.826 1303.39 149.688 1250.4 157.068C1210.28 162.66 1171.08 165.878 1131.12 167.948C1069.19 171.161 1005.46 173.016 946.704 185.413C877.659 200.041 840.099 227.807 781.404 246.404C774.741 248.501 767.821 250.494 760.525 252.31C702.01 266.861 630.226 269.637 557.273 267.943C516.983 266.988 476.3 264.647 437.119 262.279C421.377 261.324 405.395 260.408 389.277 259.613C333.441 256.864 275.906 255.661 222.928 259.619C193.926 261.827 166.469 265.575 141.016 271.133C131.75 273.165 122.748 275.433 114.054 277.972C68.3283 291.215 37.9954 310.353 17.4065 330.561C3.66068 344.146 -32.0563 359.668 -60.9728 374.257C-75.6231 381.588 -88.5754 388.698 -97.3212 395.117" opacity="0.1722" stroke="#0C101A" stroke-miterlimit="10" stroke-width="2.7567"/>
<path d="M1539.11 18.9143C1521.38 51.1179 1514.91 69.8085 1459.28 94.7809C1438.03 104.325 1415.07 113.858 1390.61 122.254C1349.5 136.357 1301.9 148.165 1249.1 155.699C1208.98 161.429 1170.1 164.934 1130.37 167.225C1068.86 170.774 1005.37 172.927 946.431 185.347C877.488 199.942 839.553 227.387 780.764 245.747C774.092 247.817 767.155 249.787 759.851 251.576C701.208 265.944 629.424 268.622 556.505 266.883C516.206 265.9 475.524 263.543 436.317 261.164C420.566 260.209 404.576 259.293 388.458 258.503C332.588 255.771 275.019 254.612 222.075 258.652C193.073 260.91 165.633 264.724 140.231 270.333C130.974 272.386 121.989 274.671 113.303 277.227C67.6713 290.541 37.3469 309.701 16.7666 329.937C2.96101 343.605 -32.4317 359.249 -61.1093 373.887C-75.589 381.279 -88.4133 388.416 -97.1591 394.874" opacity="0.1724" stroke="#0D111C" stroke-miterlimit="10" stroke-width="2.7346"/>
<path d="M1539.11 19.0193C1521.27 50.7316 1514.14 69.1683 1458.4 93.7653C1437.02 103.199 1413.98 112.616 1389.53 120.902C1348.21 134.9 1300.43 146.647 1247.81 154.336C1207.69 160.204 1169.13 163.99 1129.62 166.508C1068.55 170.394 1005.29 172.839 946.166 185.281C877.317 199.843 839.015 226.968 780.132 245.095C773.443 247.138 766.498 249.086 759.185 250.847C700.396 265.028 628.621 267.617 555.737 265.829C515.429 264.818 474.747 262.439 435.523 260.06C419.763 259.105 403.773 258.189 387.647 257.405C331.751 254.684 274.14 253.569 221.23 257.698C192.219 260.01 164.813 263.885 139.446 269.543C130.205 271.613 121.221 273.921 112.552 276.493C67.0138 289.874 36.7064 309.067 16.1261 329.33C2.26082 343.086 -32.8589 358.813 -61.2549 373.534C-75.581 380.964 -88.2602 388.146 -97.0145 394.648" opacity="0.1726" stroke="#0E131F" stroke-miterlimit="10" stroke-width="2.7124"/>
<path d="M1539.11 19.1187C1521.16 50.3396 1513.36 68.5169 1457.51 92.7441C1436.02 102.067 1412.88 111.363 1388.45 119.538C1346.91 133.432 1298.95 145.118 1246.52 152.962C1206.41 158.967 1168.15 163.041 1128.86 165.779C1068.21 170.002 1005.19 172.74 945.893 185.209C877.147 199.738 838.477 226.543 779.492 244.433C772.786 246.448 765.832 248.369 758.511 250.108C699.594 264.106 627.819 266.601 554.969 264.763C514.653 263.725 473.97 261.33 434.721 258.945C418.961 257.99 402.963 257.074 386.828 256.29C330.906 253.58 273.252 252.514 220.376 256.721C191.358 259.083 163.985 263.024 138.661 268.738C129.429 270.83 120.461 273.154 111.801 275.737C66.3568 289.189 36.0665 308.404 15.4862 328.701C1.56116 342.545 -33.2855 358.349 -61.3914 373.165C-75.5724 380.639 -88.0981 387.859 -96.8524 394.411" opacity="0.1728" stroke="#0F1421" stroke-miterlimit="10" stroke-width="2.6903"/>
<path d="M1539.11 19.2235C1521.05 49.9532 1512.59 67.8766 1456.62 91.7284C1435.02 100.936 1411.79 110.121 1387.37 118.186C1345.61 131.975 1297.47 143.6 1245.23 151.598C1205.12 157.742 1167.17 162.103 1128.12 165.056C1067.9 169.61 1005.12 172.651 945.629 185.143C876.985 199.638 837.941 226.123 778.87 243.776C772.155 245.763 765.184 247.662 757.863 249.373C698.81 263.184 627.043 265.591 554.227 263.703C513.903 262.638 473.22 260.22 433.945 257.836C418.177 256.881 402.17 255.964 386.035 255.186C330.079 252.487 272.391 251.466 219.549 255.76C190.522 258.172 163.184 262.18 137.894 267.943C128.67 270.051 119.719 272.397 111.067 274.997C65.7259 288.516 35.4441 307.764 14.8638 328.083C0.879055 342.015 -33.6945 357.896 -61.5104 372.8C-75.5378 380.313 -87.9184 387.583 -96.6727 394.173" opacity="0.173" stroke="#101623" stroke-miterlimit="10" stroke-width="2.6682"/>
<path d="M1539.11 19.3229C1520.95 49.5613 1511.8 67.2252 1455.73 90.7072C1434.01 99.8041 1410.7 108.873 1386.3 116.822C1344.33 130.501 1296 142.071 1243.94 150.224C1203.84 156.505 1166.2 161.153 1127.37 164.327C1067.57 169.218 1005.02 172.552 945.364 185.066C876.822 199.528 837.402 225.693 778.238 243.114C771.506 245.079 764.527 246.95 757.197 248.639C698.007 262.268 626.249 264.575 553.467 262.643C513.143 261.545 472.451 259.111 433.151 256.726C417.374 255.771 401.367 254.855 385.224 254.082C329.242 251.394 271.512 250.422 218.696 254.8C189.66 257.267 162.356 261.335 137.1 267.148C127.885 269.278 118.942 271.641 110.308 274.258C65.0599 287.848 34.727 307.09 14.2149 327.47C0.119258 341.469 -34.1301 357.455 -61.6644 372.441C-75.5382 379.998 -87.7738 387.307 -96.5281 393.942" opacity="0.1732" stroke="#111726" stroke-miterlimit="10" stroke-width="2.6461"/>
<path d="M1539.11 19.4221C1520.84 49.1693 1511.02 66.5738 1454.84 89.6859C1432.99 98.6669 1409.6 107.62 1385.21 115.464C1343.02 129.038 1294.51 140.547 1242.63 148.855C1202.53 155.28 1165.21 160.209 1126.61 163.604C1067.25 168.826 1004.93 172.458 945.082 184.999C876.634 199.429 836.847 225.273 777.589 242.457C770.84 244.394 763.852 246.238 756.514 247.905C697.188 261.346 625.438 263.565 552.691 261.584C512.358 260.457 471.666 258.007 432.34 255.616C416.555 254.656 400.539 253.745 384.405 252.972C328.397 250.295 270.624 249.368 217.842 253.833C188.806 256.351 161.528 260.485 136.314 266.347C127.116 268.5 118.183 270.879 109.556 273.512C64.4026 287.174 34.0781 306.444 13.5746 326.852C-0.580778 340.939 -34.5571 357.002 -61.8013 372.077C-75.53 379.672 -87.612 387.025 -96.3749 393.704" opacity="0.1734" stroke="#121928" stroke-miterlimit="10" stroke-width="2.624"/>
<path d="M1539.11 19.5271C1520.73 48.7775 1510.24 65.928 1453.95 88.6703C1432 97.5409 1408.5 106.373 1384.14 114.112C1341.72 127.575 1293.04 139.029 1241.35 147.491C1201.24 154.054 1164.25 159.265 1125.87 162.886C1066.93 168.445 1004.85 172.37 944.826 184.933C876.481 199.329 836.37 224.931 776.967 241.8C770.218 243.715 763.213 245.532 755.858 247.171C696.395 260.424 624.654 262.555 551.94 260.524C511.599 259.37 470.907 256.897 431.564 254.507C415.77 253.547 399.755 252.636 383.611 251.868C327.57 249.208 269.763 248.319 217.015 252.868C187.97 255.434 160.726 259.635 135.547 265.552C126.357 267.722 117.441 270.123 108.823 272.773C63.7716 286.501 33.4472 305.799 12.9522 326.234C-1.27141 340.409 -34.9662 356.549 -61.9202 371.713C-75.4954 379.347 -87.4323 386.744 -96.1952 393.467" opacity="0.1736" stroke="#131A2A" stroke-miterlimit="10" stroke-width="2.6018"/>
<path d="M1539.11 19.6265C1520.62 48.3855 1509.45 65.2767 1453.06 87.6491C1430.99 96.4093 1407.41 105.125 1383.06 112.748C1340.43 126.101 1291.57 137.506 1240.06 146.117C1199.96 152.824 1163.27 158.316 1125.12 162.158C1066.61 168.048 1004.76 172.276 944.554 184.861C876.311 199.224 835.824 224.511 776.336 241.143C769.569 243.036 762.556 244.825 755.201 246.437C695.601 259.503 623.869 261.539 551.189 259.464C510.839 258.283 470.148 255.793 430.779 253.397C414.985 252.437 398.961 251.526 382.809 250.764C326.742 248.115 268.892 247.276 216.179 251.907C187.126 254.529 159.916 258.791 134.779 264.758C125.598 266.949 116.69 269.367 108.089 272.033C63.1317 285.833 32.8244 305.153 12.3208 325.621C-1.96254 339.884 -35.3842 356.108 -62.0568 371.354C-75.4783 379.032 -87.2702 386.473 -96.0331 393.241" opacity="0.1738" stroke="#141B2D" stroke-miterlimit="10" stroke-width="2.5797"/>
<path d="M1539.11 19.7313C1520.5 47.9991 1508.67 64.6308 1452.18 86.6335C1429.98 95.2777 1406.31 103.878 1381.99 111.396C1339.13 124.644 1290.09 135.993 1238.77 144.753C1198.68 151.604 1162.31 157.372 1124.38 161.435C1066.3 167.656 1004.68 172.182 944.298 184.795C876.157 199.125 835.304 224.092 775.713 240.486C768.93 242.352 761.908 244.118 754.544 245.703C694.8 258.586 623.084 260.529 550.439 258.404C510.08 257.195 469.389 254.684 429.994 252.288C414.192 251.328 398.16 250.417 382.008 249.66C325.915 247.022 268.022 246.227 215.343 250.947C186.281 253.618 159.105 257.946 134.003 263.963C124.839 266.171 115.939 268.611 107.347 271.293C62.4835 285.159 32.1847 304.512 11.6897 325.008C-2.65342 339.355 -35.8021 355.661 -62.1845 370.995C-75.461 378.712 -87.0993 386.197 -95.8622 393.009" opacity="0.174" stroke="#151D2F" stroke-miterlimit="10" stroke-width="2.5576"/>
<path d="M1539.11 19.8307C1520.4 47.6072 1507.88 63.9739 1451.28 85.6123C1428.96 94.1461 1405.2 102.625 1380.9 110.033C1337.82 123.17 1288.61 134.464 1237.47 143.379C1197.38 150.367 1161.33 156.423 1123.62 160.706C1065.99 167.258 1004.59 172.083 944.024 184.718C875.986 199.015 834.757 223.667 775.073 239.818C768.281 241.656 761.242 243.395 753.87 244.957C693.989 257.653 622.282 259.508 549.67 257.333C509.303 256.097 468.612 253.569 429.192 251.167C413.381 250.207 397.349 249.302 381.188 248.54C325.062 245.912 267.135 245.167 214.489 249.964C185.419 252.685 158.277 257.079 133.217 263.151C124.062 265.381 115.188 267.849 106.596 270.537C61.8773 284.53 31.5444 303.85 11.0494 324.373C-3.36199 338.808 -36.2291 355.191 -62.3214 370.614C-75.4444 378.37 -86.9376 385.899 -95.709 392.755" opacity="0.1742" stroke="#161E31" stroke-miterlimit="10" stroke-width="2.5355"/>
<path d="M1539.11 19.9299C1520.29 47.2152 1507.08 63.3225 1450.39 84.5909C1427.95 93.0089 1404.1 101.372 1379.83 108.675C1336.53 121.702 1287.13 132.946 1236.19 142.01C1196.1 149.142 1160.37 155.473 1122.87 159.983C1065.66 166.861 1004.5 171.994 943.752 184.652C875.808 198.915 834.212 223.253 774.433 239.167C767.624 240.977 760.576 242.694 753.196 244.229C693.178 256.737 621.472 258.498 548.903 256.279C508.536 255.009 467.836 252.464 428.39 250.063C412.571 249.103 396.538 248.198 380.369 247.441C324.217 244.825 266.247 244.124 213.628 249.009C184.558 251.78 157.441 256.24 132.416 262.362C123.269 264.608 114.404 267.098 105.828 269.797C61.2036 283.862 30.8792 303.204 10.3927 323.761C-4.0784 338.284 -36.6725 354.744 -62.4832 370.255C-75.4526 378.055 -86.8008 385.623 -95.5721 392.523" opacity="0.1744" stroke="#182034" stroke-miterlimit="10" stroke-width="2.5134"/>
<path d="M1539.11 20.0352C1520.18 46.8291 1506.29 62.6715 1449.51 83.5756C1426.95 91.8777 1403 100.125 1378.75 107.317C1335.23 120.234 1285.66 131.428 1234.9 140.641C1194.81 147.916 1159.39 154.529 1122.13 159.26C1065.36 166.469 1004.43 171.901 943.495 184.58C875.654 198.811 833.683 222.828 773.819 238.505C766.993 240.293 759.936 241.982 752.556 243.495C692.402 255.815 620.703 257.488 548.16 255.219C507.785 253.922 467.085 251.355 427.622 248.954C411.803 247.988 395.753 247.088 379.584 246.338C323.406 243.732 265.377 243.009 212.808 248.049C183.721 250.836 156.648 255.401 131.656 261.567C122.518 263.836 113.67 266.342 105.103 269.058C60.5805 283.195 30.2646 302.564 9.77811 323.143C-4.76122 337.748 -37.0737 354.292 -62.5943 369.891C-75.4187 377.73 -86.6047 385.347 -95.3846 392.286" opacity="0.1746" stroke="#192136" stroke-miterlimit="10" stroke-width="2.4912"/>
<path d="M1539.11 20.1343C1520.07 46.437 1505.5 62.0143 1448.62 82.5542C1425.93 90.7458 1401.9 98.8712 1377.68 105.959C1333.92 118.76 1284.19 129.916 1233.61 139.272C1193.52 146.691 1158.43 153.58 1121.39 158.537C1065.05 166.077 1004.34 171.807 943.231 184.514C875.492 198.711 833.153 222.414 773.187 237.848C766.353 239.609 759.279 241.27 751.89 242.76C691.6 254.893 619.91 256.478 547.401 254.159C507.017 252.834 466.317 250.251 426.828 247.844C411.001 246.878 394.951 245.979 378.774 245.228C322.562 242.639 264.498 241.955 211.964 247.077C182.868 249.914 155.828 254.546 130.88 260.767C121.758 263.057 112.919 265.58 104.361 268.312C59.932 282.521 29.6246 301.913 9.14671 322.524C-5.45236 337.218 -37.4918 353.839 -62.7223 369.527C-75.3931 377.404 -86.4341 385.066 -95.2225 392.054" opacity="0.1748" stroke="#1A2338" stroke-miterlimit="10" stroke-width="2.4691"/>
<path d="M1539.11 20.2391C1519.97 46.0505 1504.7 61.363 1447.73 81.533C1424.92 89.6087 1400.8 97.6127 1376.59 104.601C1332.61 117.291 1282.7 128.398 1232.31 137.903C1192.23 145.465 1157.46 152.63 1120.63 157.808C1064.72 165.674 1004.25 171.707 942.957 184.442C875.321 198.601 832.607 221.989 772.547 237.191C765.695 238.924 758.613 240.564 751.216 242.026C690.78 253.972 619.107 255.462 546.632 253.099C506.24 251.747 465.54 249.142 426.026 246.735C410.19 245.769 394.14 244.869 377.954 244.124C321.716 241.546 263.61 240.906 211.11 246.117C182.006 249.004 155 253.701 130.086 259.972C120.973 262.279 112.142 264.818 103.601 267.573C59.2745 281.853 28.9671 301.272 8.49772 321.911C-6.16107 336.694 -37.9275 353.397 -62.8764 369.168C-75.4021 377.089 -86.2896 384.789 -95.078 391.822" opacity="0.175" stroke="#1B243B" stroke-miterlimit="10" stroke-width="2.447"/>
<path d="M1539.11 20.3385C1519.86 45.6586 1503.9 60.7006 1446.83 80.5118C1423.9 88.4716 1399.69 96.3596 1375.51 103.238C1331.3 115.818 1281.22 126.874 1231.01 136.529C1190.94 144.234 1156.47 151.675 1119.88 157.079C1064.41 165.271 1004.16 171.613 942.684 184.365C875.141 198.49 832.061 221.564 771.907 236.523C765.038 238.229 757.948 239.846 750.542 241.281C689.969 253.039 618.305 254.441 545.865 252.029C505.463 250.649 464.763 248.027 425.224 245.614C409.379 244.648 393.321 243.749 377.135 243.009C320.872 240.442 262.723 239.846 210.257 245.145C181.144 248.082 154.173 252.845 129.301 259.166C120.196 261.495 111.382 264.051 102.85 266.822C58.6175 281.174 28.3272 300.615 7.85778 321.282C-6.86927 336.153 -38.3541 352.934 -63.013 368.793C-75.3851 376.752 -86.1274 384.497 -94.9159 391.574" opacity="0.1751" stroke="#1C263D" stroke-miterlimit="10" stroke-width="2.4249"/>
<path d="M1539.11 20.4377C1519.74 45.2666 1503.11 60.0436 1445.95 79.4905C1422.89 87.3343 1398.59 95.1065 1374.44 101.879C1330 114.344 1279.74 125.361 1229.73 135.159C1189.65 143.009 1155.51 150.726 1119.14 156.356C1064.1 164.873 1004.08 171.52 942.429 184.298C874.988 198.391 831.533 221.144 771.293 235.866C764.416 237.549 757.309 239.134 749.902 240.547C689.194 252.117 617.538 253.43 545.132 250.969C504.722 249.561 464.022 246.917 424.457 244.505C408.603 243.539 392.545 242.639 376.351 241.899C320.053 239.343 261.87 238.791 209.438 244.173C180.317 247.16 153.38 251.99 128.542 258.36C119.455 260.706 110.649 263.284 102.125 266.071C57.9868 280.495 27.7051 299.958 7.2442 320.658C-7.54258 335.612 -38.7544 352.475 -63.1231 368.423C-75.3416 376.421 -85.939 384.215 -94.7274 391.331" opacity="0.1753" stroke="#1D273F" stroke-miterlimit="10" stroke-width="2.4027"/>
<path d="M1539.11 20.5427C1519.63 44.8803 1502.3 59.3868 1445.06 78.4749C1421.88 86.2084 1397.49 93.8535 1373.36 100.522C1328.69 112.87 1278.28 123.849 1228.44 133.791C1188.37 141.789 1154.55 149.776 1118.39 155.633C1063.79 164.476 1003.99 171.426 942.155 184.227C874.817 198.286 830.986 220.725 770.653 235.209C763.759 236.865 756.642 238.427 749.228 239.813C688.383 251.195 616.735 252.42 544.363 249.909C503.953 248.468 463.245 245.813 423.654 243.395C407.801 242.429 391.734 241.53 375.531 240.795C319.208 238.251 260.982 237.743 208.576 243.213C179.446 246.255 152.543 251.145 127.748 257.571C118.669 259.939 109.872 262.533 101.365 265.337C57.3293 279.827 27.0561 299.324 6.59521 320.051C-8.2513 335.093 -39.1901 352.034 -63.2687 368.075C-75.3422 376.118 -85.7859 383.95 -94.5829 391.11" opacity="0.1755" stroke="#1E2842" stroke-miterlimit="10" stroke-width="2.3806"/>
<path d="M1539.11 20.6421C1519.53 44.4884 1501.49 58.7244 1444.17 77.4537C1420.86 85.0713 1396.39 92.595 1372.29 99.1638C1327.39 111.396 1276.8 122.331 1227.15 132.422C1187.08 140.564 1153.58 148.821 1117.64 154.91C1063.48 164.079 1003.91 171.337 941.891 184.16C874.655 198.187 830.448 220.305 770.021 234.552C763.119 236.181 755.994 237.721 748.562 239.079C687.572 250.268 615.933 251.405 543.604 248.849C503.185 247.381 462.477 244.704 422.869 242.286C407.007 241.314 390.932 240.42 374.729 239.691C318.38 237.163 260.112 236.7 207.74 242.253C178.61 245.344 151.733 250.301 126.971 256.776C117.901 259.166 109.121 261.777 100.623 264.592C56.6808 279.154 26.4247 298.672 5.9638 319.427C-8.95096 334.558 -39.6082 351.576 -63.4052 367.705C-75.3251 375.786 -85.6238 383.663 -94.4208 390.872" opacity="0.1757" stroke="#1F2A44" stroke-miterlimit="10" stroke-width="2.3585"/>
<path d="M1539.11 20.7469C1519.42 44.102 1500.69 58.0675 1443.28 76.438C1419.85 83.9396 1395.28 91.3475 1371.2 97.8114C1326.07 109.928 1275.31 120.824 1225.85 131.064C1185.78 139.355 1152.61 147.883 1116.88 154.192C1063.15 163.687 1003.81 171.249 941.618 184.1C874.484 198.093 829.91 219.897 769.381 233.901C762.461 235.502 755.328 237.014 747.888 238.355C686.761 249.357 615.131 250.406 542.835 247.8C502.408 246.304 461.7 243.605 422.067 241.187C406.196 240.216 390.121 239.321 373.909 238.598C317.527 236.081 259.224 235.662 206.886 241.298C177.748 244.438 150.905 249.462 126.178 255.986C117.116 258.393 108.353 261.026 99.8634 263.858C56.0236 278.491 25.7674 298.037 5.31505 318.82C-9.65944 334.039 -40.0436 351.134 -63.5505 367.352C-75.3168 375.472 -85.4705 383.398 -94.2675 390.646" opacity="0.1759" stroke="#202B46" stroke-miterlimit="10" stroke-width="2.3364"/>
<path d="M1539.11 20.8463C1519.31 43.7101 1499.88 57.4051 1442.39 75.4168C1418.83 82.797 1394.17 90.0889 1370.13 96.4479C1324.76 108.448 1273.84 119.306 1224.56 129.689C1184.5 138.124 1151.64 146.928 1116.13 153.464C1062.84 163.278 1003.73 171.15 941.345 184.022C874.305 197.982 829.365 219.466 768.75 233.238C761.813 234.812 754.672 236.302 747.231 237.616C685.96 248.429 614.346 249.39 542.076 246.735C501.641 245.211 460.933 242.495 421.274 240.067C405.395 239.095 389.311 238.201 373.108 237.478C316.7 234.972 258.355 234.596 206.05 240.321C176.904 243.511 150.094 248.601 125.41 255.18C116.366 257.609 107.603 260.259 99.13 263.107C55.384 277.812 25.1449 297.381 4.69258 318.196C-10.3416 333.498 -40.4613 350.676 -63.6696 366.982C-75.2908 375.141 -85.2909 383.111 -94.0879 390.403" opacity="0.1761" stroke="#212D49" stroke-miterlimit="10" stroke-width="2.3143"/>
<path d="M1539.11 20.9512C1519.2 43.3181 1499.07 56.7427 1441.5 74.4011C1417.82 81.6654 1393.07 88.8359 1369.05 95.0955C1323.45 106.98 1272.37 117.805 1223.27 128.326C1183.21 136.909 1150.67 145.979 1115.39 152.746C1062.53 162.881 1003.64 171.061 941.089 183.962C874.152 197.889 828.836 219.058 768.127 232.587C761.182 234.138 754.023 235.595 746.574 236.887C685.166 247.508 613.562 248.38 541.326 245.68C500.882 244.129 460.173 241.391 420.489 238.963C404.601 237.991 388.518 237.097 372.306 236.379C315.872 233.884 257.484 233.553 205.214 239.366C176.059 242.606 149.284 247.762 124.634 254.391C115.598 256.836 106.852 259.508 98.3963 262.373C54.7527 277.15 24.5136 296.746 4.06982 317.584C-11.0327 332.973 -40.8707 350.229 -63.7975 366.623C-75.2651 374.826 -85.1201 382.835 -93.9257 390.171" opacity="0.1763" stroke="#222E4B" stroke-miterlimit="10" stroke-width="2.2921"/>
<path d="M1539.11 21.0505C1519.09 42.9262 1498.27 56.0803 1440.61 73.3799C1416.8 80.5283 1391.96 87.5773 1367.98 93.7321C1322.15 105.501 1270.89 116.287 1221.98 126.951C1181.92 135.684 1149.71 145.024 1114.64 152.018C1062.22 162.478 1003.56 170.968 940.816 183.89C873.981 197.784 828.29 218.633 767.487 231.925C760.525 233.448 753.358 234.883 745.9 236.147C684.347 246.58 612.76 247.364 540.558 244.615C500.105 243.036 459.397 240.282 419.687 237.848C403.799 236.876 387.707 235.982 371.487 235.27C315.019 232.786 256.597 232.499 204.361 238.394C175.197 241.684 148.456 246.906 123.849 253.585C114.821 256.053 106.093 258.741 97.6455 261.622C54.0957 276.465 23.8737 296.089 3.42987 316.96C-11.7323 332.438 -41.2974 349.771 -63.934 366.253C-75.2566 374.495 -84.958 382.548 -93.7635 389.934" opacity="0.1765" stroke="#23304D" stroke-miterlimit="10" stroke-width="2.27"/>
<path d="M1539.11 21.1499C1518.99 42.5343 1497.45 55.4124 1439.73 72.3587C1415.78 79.3912 1390.86 86.3188 1366.9 92.3742C1320.84 104.021 1269.42 114.774 1220.69 125.582C1180.64 134.464 1148.74 144.069 1113.9 151.294C1061.92 162.069 1003.47 170.874 940.561 183.818C873.828 197.679 827.761 218.208 766.874 231.268C759.894 232.764 752.718 234.177 745.252 235.413C683.562 245.658 611.984 246.354 539.816 243.555C499.363 241.943 458.646 239.172 418.919 236.738C403.023 235.767 386.922 234.872 370.702 234.16C314.209 231.687 255.744 231.444 203.534 237.428C174.361 240.773 147.655 246.056 123.081 252.79C114.071 255.28 105.342 257.985 96.9122 260.883C53.4648 275.798 23.2428 295.443 2.80751 316.347C-12.4144 331.914 -41.7064 349.324 -64.053 365.895C-75.222 374.175 -84.7783 382.278 -93.5839 389.702" opacity="0.1767" stroke="#243150" stroke-miterlimit="10" stroke-width="2.2479"/>
<path d="M1539.11 21.2548C1518.87 42.1479 1496.64 54.7445 1438.83 71.343C1414.75 78.254 1389.74 85.0602 1365.82 91.0218C1319.51 102.547 1267.94 113.273 1219.39 124.219C1179.34 133.25 1147.77 143.119 1113.15 150.571C1061.6 161.666 1003.39 170.78 940.287 183.752C873.649 197.579 827.215 217.794 766.233 230.611C759.245 232.079 752.052 233.465 744.586 234.679C682.76 244.731 611.19 245.338 539.056 242.495C498.595 240.856 457.878 238.068 418.125 235.629C402.221 234.652 386.12 233.763 369.891 233.056C313.372 230.6 254.857 230.401 202.689 236.468C173.508 239.862 146.835 245.211 122.305 251.995C113.303 254.501 104.591 257.228 96.1696 260.143C52.8161 275.13 22.6111 294.803 2.17584 315.729C-13.1144 331.384 -42.1248 348.871 -64.1898 365.53C-75.2052 373.849 -84.6165 381.996 -93.4305 389.465" opacity="0.1769" stroke="#253352" stroke-miterlimit="10" stroke-width="2.2258"/>
<path d="M1539.11 21.3542C1518.76 41.7561 1495.83 54.0767 1437.94 70.322C1413.74 77.1171 1388.64 83.8018 1364.73 89.6585C1318.2 101.068 1266.46 111.76 1218.1 122.845C1178.04 132.024 1146.8 142.159 1112.39 149.843C1061.28 161.258 1003.29 170.686 940.005 183.675C873.469 197.469 826.66 217.363 765.584 229.943C758.579 231.384 751.378 232.747 743.903 233.934C681.932 243.798 610.379 244.317 538.279 241.425C497.81 239.758 457.093 236.948 417.314 234.508C401.401 233.531 385.301 232.642 369.063 231.941C312.51 229.496 253.96 229.342 201.827 235.491C172.646 238.935 145.999 244.35 121.502 251.184C112.509 253.712 103.814 256.456 95.4012 259.387C52.15 274.445 21.9536 294.14 1.51832 315.1C-13.8316 330.837 -42.569 348.407 -64.3439 365.155C-75.2142 373.512 -84.472 381.704 -93.286 389.217" opacity="0.1771" stroke="#263454" stroke-miterlimit="10" stroke-width="2.2037"/>
<path d="M1539.11 21.459C1518.65 41.3695 1495.01 53.4086 1437.06 69.3062C1412.72 75.9798 1387.53 82.5486 1363.66 88.3059C1316.88 99.5943 1264.99 110.253 1216.81 121.481C1176.76 130.81 1145.83 141.209 1111.64 149.125C1060.98 160.855 1003.21 170.598 939.749 183.614C873.316 197.375 826.131 216.949 764.962 229.297C757.939 230.716 750.73 232.046 743.247 233.216C681.139 242.887 609.585 243.323 537.529 240.381C497.051 238.687 456.334 235.86 416.53 233.415C400.617 232.438 384.499 231.549 368.261 230.848C311.683 228.414 253.09 228.304 200.991 234.541C171.801 238.035 145.188 243.517 120.726 250.406C111.741 252.95 103.064 255.716 94.6591 258.658C51.5018 273.783 21.3139 293.511 0.887166 314.493C-14.5225 330.318 -42.9868 347.966 -64.4716 364.802C-75.1884 373.203 -84.3011 381.433 -93.1151 388.99" opacity="0.1773" stroke="#283557" stroke-miterlimit="10" stroke-width="2.1815"/>
<path d="M1539.11 21.5583C1518.55 40.9776 1494.19 52.7407 1436.17 68.285C1411.7 74.8427 1386.42 81.2845 1362.59 86.9425C1315.57 98.1039 1263.51 108.741 1215.52 120.107C1175.48 129.584 1144.87 140.249 1110.9 148.396C1060.67 160.441 1003.13 170.498 939.485 183.542C873.154 197.27 825.594 216.529 764.339 228.635C757.308 230.026 750.081 231.334 742.59 232.477C680.337 241.96 608.801 242.302 536.778 239.316C496.291 237.594 455.574 234.745 415.745 232.3C399.823 231.323 383.705 230.434 367.46 229.739C310.855 227.316 252.22 227.249 200.155 233.575C170.957 237.119 144.378 242.667 119.958 249.605C110.99 252.172 102.313 254.954 93.9255 257.913C50.8621 273.109 20.6913 292.86 0.264544 313.874C-15.2048 329.788 -43.3961 347.507 -64.5993 364.437C-75.1711 372.877 -84.1302 381.157 -92.9442 388.758" opacity="0.1775" stroke="#293759" stroke-miterlimit="10" stroke-width="2.1594"/>
<path d="M1539.11 21.6578C1518.44 40.5858 1493.37 52.0674 1435.28 67.2639C1410.68 73.7002 1385.32 80.0206 1361.51 85.5847C1314.26 96.6247 1262.04 107.234 1214.23 118.738C1174.2 128.365 1143.91 139.289 1110.15 147.668C1060.36 160.033 1003.04 170.399 939.221 183.465C872.992 197.16 825.056 216.099 763.708 227.967C756.66 229.33 749.424 230.617 741.933 231.732C679.535 241.022 608.016 241.281 536.019 238.245C495.532 236.495 454.807 233.625 414.96 231.18C399.03 230.203 382.912 229.314 366.658 228.624C310.019 226.212 251.35 226.195 199.319 232.604C170.112 236.203 143.567 241.811 119.182 248.799C110.223 251.388 101.562 254.187 93.1832 257.162C50.2222 272.43 20.0599 292.209 -0.366861 313.251C-15.9045 329.253 -43.8142 347.049 -64.7273 364.068C-75.1455 372.546 -83.9595 380.87 -92.7821 388.516" opacity="0.1777" stroke="#2A385C" stroke-miterlimit="10" stroke-width="2.1373"/>
<path d="M1539.11 21.7626C1518.33 40.1993 1492.55 51.3938 1434.39 66.2481C1409.65 72.5629 1384.21 78.7674 1360.43 84.2322C1312.93 95.1507 1260.56 105.732 1212.93 117.374C1172.9 127.156 1142.93 138.339 1109.4 146.95C1060.05 159.624 1002.95 170.316 938.948 183.404C872.812 197.066 824.51 215.685 763.068 227.321C756.003 228.657 748.759 229.915 741.259 231.008C678.724 240.105 607.213 240.282 535.251 237.196C494.755 235.413 454.03 232.532 414.158 230.081C398.219 229.104 382.093 228.221 365.838 227.531C309.174 225.13 250.462 225.157 198.457 231.649C169.242 235.297 142.731 240.972 118.388 248.01C109.437 250.615 100.794 253.436 92.4237 256.428C49.5565 271.762 19.4027 291.568 -1.02401 312.638C-16.6214 328.729 -44.2581 346.602 -64.8811 363.709C-75.1456 372.22 -83.8146 380.589 -92.6287 388.278" opacity="0.1779" stroke="#2B3A5E" stroke-miterlimit="10" stroke-width="2.1152"/>
<path d="M1539.11 21.8621C1518.22 39.8075 1491.73 50.7205 1433.5 65.227C1408.63 71.4204 1383.1 77.5034 1359.35 82.8688C1311.62 93.6604 1259.09 104.226 1211.65 116C1171.62 125.93 1141.97 137.373 1108.66 146.222C1059.74 159.21 1002.87 170.217 938.692 183.327C872.659 196.956 823.981 215.26 762.445 226.653C755.371 227.961 748.11 229.198 740.602 230.263C677.922 239.167 606.428 239.255 534.5 236.125C493.996 234.315 453.271 231.411 413.373 228.961C397.425 227.978 381.299 227.1 365.036 226.41C308.346 224.026 249.592 224.092 197.621 230.672C168.397 234.37 141.912 240.111 117.612 247.204C108.678 249.832 100.035 252.669 91.6813 255.677C48.9166 271.084 18.7713 290.917 -1.65542 312.014C-17.3125 328.193 -44.6847 346.144 -65.0176 363.339C-75.1286 371.9 -83.644 380.313 -92.4666 388.041" opacity="0.1781" stroke="#2C3B60" stroke-miterlimit="10" stroke-width="2.0931"/>
<path d="M1539.11 21.9668C1518.11 39.421 1490.91 50.0469 1432.61 64.2112C1407.61 70.2832 1381.99 76.2447 1358.28 81.5163C1310.3 92.1809 1257.62 102.724 1210.36 114.636C1170.33 124.721 1141.01 136.424 1107.91 145.504C1059.43 158.807 1002.78 170.129 938.418 183.266C872.488 196.862 823.435 214.846 761.813 226.002C754.723 227.288 747.453 228.491 739.944 229.534C677.128 238.251 605.643 238.251 533.749 235.071C493.237 233.233 452.511 230.313 412.588 227.856C396.64 226.874 380.497 225.996 364.234 225.312C307.51 222.938 248.721 223.049 196.784 229.717C167.561 233.465 141.101 239.272 116.835 246.415C107.91 249.059 99.2836 251.918 90.9389 254.943C48.268 270.421 18.1398 290.276 -2.28695 311.407C-18.0038 327.669 -45.1029 345.702 -65.1457 362.991C-75.1116 371.586 -83.482 380.048 -92.3046 387.82" opacity="0.1783" stroke="#2D3D63" stroke-miterlimit="10" stroke-width="2.0709"/>
<path d="M1539.11 22.0663C1518 39.0292 1490.09 49.3681 1431.72 63.1901C1406.6 69.1406 1380.88 74.9808 1357.2 80.153C1308.98 90.6906 1256.15 101.217 1209.07 113.262C1169.05 123.501 1140.04 135.458 1107.17 144.775C1059.13 158.388 1002.7 170.029 938.154 183.194C872.326 196.757 822.897 214.421 761.182 225.339C754.074 226.598 746.796 227.779 739.279 228.795C676.318 237.318 604.85 237.235 532.989 234.006C492.469 232.14 451.743 229.198 411.794 226.742C395.838 225.759 379.695 224.881 363.423 224.202C306.674 221.84 247.843 222 195.94 228.745C166.707 232.549 140.282 238.416 116.058 245.609C107.142 248.275 98.5328 251.151 90.1965 254.192C47.6195 269.737 17.4999 289.625 -2.91836 310.778C-18.7034 327.128 -45.521 345.239 -65.2737 362.616C-75.0946 371.254 -83.3113 379.755 -92.1425 387.577" opacity="0.1785" stroke="#2E3E65" stroke-miterlimit="10" stroke-width="2.0488"/>
<path d="M1539.11 22.1656C1517.89 38.6373 1489.27 48.6891 1430.83 62.1689C1405.56 67.998 1379.76 73.7167 1356.12 78.7951C1307.66 89.2058 1254.67 99.7103 1207.77 111.893C1167.75 122.281 1139.07 134.497 1106.41 144.047C1058.8 157.968 1002.61 169.935 937.881 183.117C872.147 196.647 822.351 213.99 760.542 224.677C753.426 225.908 746.131 227.062 738.605 228.061C675.499 236.39 604.048 236.225 532.221 232.946C491.692 231.053 450.967 228.094 411.001 225.632C395.036 224.649 378.893 223.772 362.621 223.093C305.846 220.741 246.972 220.946 195.103 227.779C165.863 231.632 139.472 237.566 115.282 244.814C106.374 247.502 97.7735 250.389 89.4543 253.453C46.9797 269.069 16.8686 288.985 -3.54966 310.165C-19.3945 326.603 -45.939 344.786 -65.4101 362.257C-75.0774 370.934 -83.1491 379.479 -91.9802 387.345" opacity="0.1787" stroke="#2F4067" stroke-miterlimit="10" stroke-width="2.0267"/>
<path d="M1539.11 22.2704C1517.78 38.2507 1488.44 48.01 1429.94 61.1531C1404.54 66.8608 1378.65 72.458 1355.04 77.4426C1306.34 87.7263 1253.2 98.2142 1206.48 110.529C1166.47 121.072 1138.1 133.542 1105.66 143.329C1058.5 157.56 1002.52 169.847 937.616 183.056C871.985 196.553 821.814 213.576 759.911 224.026C752.777 225.229 745.474 226.36 737.939 227.332C674.697 235.468 603.246 235.215 531.462 231.892C490.933 229.965 450.199 226.99 410.207 224.528C394.234 223.545 378.082 222.668 361.811 221.994C305.002 219.654 246.094 219.902 194.259 226.824C165.009 230.727 138.653 236.733 114.506 244.024C105.615 246.729 97.0226 249.638 88.712 252.713C46.3312 268.395 16.2372 288.339 -4.18106 309.552C-20.0856 326.079 -46.3571 344.339 -65.5381 361.898C-75.0689 370.598 -82.987 379.192 -91.8181 387.097" opacity="0.1789" stroke="#30416A" stroke-miterlimit="10" stroke-width="2.0046"/>
<path d="M1539.11 22.3699C1517.67 37.8534 1487.61 47.3312 1429.05 60.132C1403.52 65.7127 1377.54 71.1886 1353.96 76.0793C1305.02 86.2305 1251.72 96.7074 1205.18 109.155C1165.18 119.853 1137.12 132.576 1104.9 142.6C1058.17 157.14 1002.43 169.748 937.343 182.979C871.814 196.442 821.268 213.146 759.279 223.358C752.138 224.534 744.825 225.643 737.283 226.587C673.895 234.53 602.461 234.193 530.711 230.821C490.173 228.867 449.439 225.869 409.422 223.407C393.449 222.425 377.289 221.547 361.009 220.879C304.174 218.55 245.223 218.848 193.414 225.847C164.156 229.8 137.833 235.872 113.721 243.213C104.838 245.94 96.2632 248.866 87.9612 251.957C45.6742 267.711 15.5887 287.682 -4.821 308.917C-20.7853 325.533 -46.7922 343.87 -65.6746 361.517C-75.0433 370.272 -82.8164 378.911 -91.656 386.859" opacity="0.1791" stroke="#31426C" stroke-miterlimit="10" stroke-width="1.9825"/>
<path d="M1539.11 22.4749C1517.57 37.4671 1486.79 46.6524 1428.17 59.1165C1402.5 64.5757 1376.43 69.9301 1352.88 74.727C1303.69 84.7457 1250.25 95.2116 1203.89 107.792C1163.89 118.644 1136.16 131.621 1104.15 141.883C1057.86 156.726 1002.34 169.665 937.07 182.919C871.643 196.349 820.721 212.732 758.639 222.712C751.48 223.86 744.159 224.942 736.608 225.864C673.075 233.614 601.658 233.194 529.934 229.772C489.388 227.79 448.654 224.777 408.611 222.309C392.63 221.327 376.469 220.449 360.181 219.781C303.32 217.468 244.327 217.805 192.552 224.892C163.285 228.9 136.997 235.033 112.927 242.429C104.053 245.173 95.4864 248.12 87.2013 251.228C45.0168 267.048 14.9398 287.047 -5.46986 308.316C-21.4939 325.019 -47.2278 343.434 -65.8201 361.17C-75.0437 369.963 -82.6632 378.646 -91.5028 386.639" opacity="0.1793" stroke="#32446E" stroke-miterlimit="10" stroke-width="1.9603"/>
<path d="M1539.11 22.5741C1517.46 37.0751 1485.97 45.9622 1427.28 58.0951C1401.48 63.4274 1375.32 68.6604 1351.81 73.3634C1302.37 83.2552 1248.78 93.7045 1202.6 106.417C1162.61 117.424 1135.2 130.65 1103.41 141.154C1057.55 156.307 1002.26 169.566 936.815 182.847C871.49 196.244 820.193 212.312 758.017 222.05C750.841 223.176 743.512 224.23 735.952 225.124C672.283 232.681 600.874 232.173 529.185 228.707C488.63 226.697 447.896 223.661 407.827 221.194C391.837 220.206 375.668 219.334 359.38 218.671C302.485 216.369 243.458 216.756 191.717 223.926C162.45 227.983 136.187 234.182 112.151 241.629C103.295 244.394 94.7365 247.359 86.46 250.483C44.3693 266.375 14.3094 286.401 -6.10029 307.692C-22.1925 324.478 -47.6449 342.97 -65.9556 360.8C-75.0256 369.632 -82.5001 378.359 -91.3397 386.401" opacity="0.1795" stroke="#334571" stroke-miterlimit="10" stroke-width="1.9382"/>
<path d="M1539.11 22.6791C1517.35 36.6888 1485.14 45.2834 1426.38 57.0796C1400.44 62.2849 1374.21 67.4019 1350.73 72.0111C1301.05 81.7649 1247.3 92.2087 1201.3 105.054C1161.32 116.221 1134.22 129.695 1102.66 140.431C1057.23 155.887 1002.17 169.472 936.542 182.775C871.311 196.139 819.647 211.887 757.377 221.387C750.193 222.486 742.846 223.512 735.278 224.385C671.464 231.748 600.072 231.158 528.417 227.641C487.853 225.604 447.119 222.552 407.034 220.079C391.035 219.091 374.866 218.219 358.569 217.562C301.649 215.271 242.579 215.702 190.872 222.955C161.597 227.062 135.368 233.327 111.366 240.823C102.518 243.611 93.9771 246.591 85.7091 249.732C43.7208 265.696 13.6694 285.745 -6.74024 307.068C-22.8922 323.943 -48.0715 342.512 -66.0921 360.43C-75.0171 369.301 -82.338 378.077 -91.1776 386.159" opacity="0.1797" stroke="#344773" stroke-miterlimit="10" stroke-width="1.9161"/>
<path d="M1539.11 22.7784C1517.24 36.2969 1484.3 44.5934 1425.5 56.0584C1399.42 61.1423 1373.1 66.1323 1349.65 70.6532C1299.73 80.2745 1245.84 90.7073 1200.02 103.685C1160.03 115.006 1133.26 128.729 1101.91 139.708C1056.92 155.468 1002.08 169.378 936.268 182.709C871.14 196.039 819.1 211.468 756.745 220.736C749.544 221.807 742.189 222.811 734.62 223.656C670.661 230.821 599.287 230.153 527.665 226.587C487.093 224.523 446.359 221.448 406.248 218.969C390.241 217.981 374.072 217.109 357.767 216.452C300.821 214.173 241.708 214.647 190.035 221.989C160.752 226.151 134.557 232.477 110.598 240.023C101.758 242.827 93.2256 245.83 84.9747 248.987C43.0803 265.017 13.0374 285.099 -7.36371 306.45C-23.5754 323.413 -48.4902 342.059 -66.2122 360.066C-74.9836 368.975 -82.1594 377.796 -91.0076 385.921" opacity="0.1799" stroke="#354875" stroke-miterlimit="10" stroke-width="1.894"/>
<path d="M1539.11 22.8777C1517.13 35.9048 1483.47 43.9033 1424.61 55.0371C1398.4 59.994 1371.98 64.8626 1348.57 69.2897C1298.4 78.7785 1244.37 89.2002 1198.73 102.31C1158.75 113.786 1132.29 127.757 1101.17 138.979C1056.61 155.043 1002 169.284 936.012 182.631C870.986 195.929 818.571 211.037 756.122 220.068C748.904 221.111 741.54 222.088 733.963 222.916C669.867 229.888 598.502 229.132 526.914 225.522C486.342 223.424 445.6 220.338 405.463 217.854C389.456 216.866 373.27 215.994 356.964 215.343C299.984 213.074 240.837 213.598 189.199 221.023C159.907 225.235 133.746 231.627 109.821 239.228C100.99 242.054 92.4746 245.073 84.2323 248.247C42.4317 264.349 12.4059 284.453 -7.99525 305.832C-24.2667 322.883 -48.9085 341.601 -66.3488 359.701C-74.9752 368.649 -81.9974 377.514 -90.8456 385.684" opacity="0.1801" stroke="#374A78" stroke-miterlimit="10" stroke-width="1.8719"/>
<path d="M1539.11 22.9827C1517.02 35.5185 1482.65 43.2189 1423.72 54.0215C1397.37 58.8515 1370.87 63.6042 1347.5 67.9374C1297.08 77.2882 1242.9 87.7099 1197.44 100.947C1157.47 112.583 1131.32 126.797 1100.42 138.262C1056.3 154.629 1001.93 169.196 935.748 182.571C870.824 195.835 818.034 210.623 755.491 219.417C748.264 220.432 740.883 221.387 733.298 222.188C669.057 228.966 597.708 228.127 526.155 224.467C485.574 222.342 444.832 219.234 404.669 216.75C388.654 215.762 372.468 214.89 356.154 214.244C299.148 211.987 239.958 212.555 188.346 220.062C159.045 224.324 132.919 230.782 109.036 238.433C100.222 241.276 91.7067 244.317 83.4814 247.502C41.7747 263.67 11.766 283.807 -8.63518 305.214C-24.9663 322.348 -49.3351 341.143 -66.4854 359.337C-74.9581 368.329 -81.8353 377.233 -90.6835 385.446" opacity="0.1803" stroke="#384B7A" stroke-miterlimit="10" stroke-width="1.8497"/>
<path d="M1539.11 23.082C1516.91 35.1266 1481.82 42.5289 1422.83 52.9948C1396.35 57.6978 1369.76 62.3291 1346.42 66.5684C1295.76 75.7813 1241.43 86.203 1196.15 99.5668C1156.19 111.358 1130.36 125.825 1099.67 137.528C1055.98 154.193 1001.83 169.091 935.483 182.493C870.662 195.725 817.496 210.193 754.859 218.754C747.615 219.742 740.226 220.67 732.632 221.448C668.246 228.033 596.906 227.111 525.395 223.402C484.806 221.249 444.064 218.119 403.876 215.635C387.852 214.647 371.666 213.775 355.343 213.135C298.312 210.894 239.08 211.506 187.501 219.096C158.192 223.413 132.099 229.932 108.251 237.633C99.4457 240.497 90.9473 243.555 82.7306 246.757C41.1262 262.997 11.126 283.161 -9.27513 304.595C-25.666 321.823 -49.7703 340.696 -66.6219 358.973C-74.9496 368.003 -81.6732 376.957 -90.5214 385.215" opacity="0.1805" stroke="#394D7C" stroke-miterlimit="10" stroke-width="1.8276"/>
<path d="M1539.11 23.1869C1516.8 34.7402 1480.98 41.8389 1421.94 51.9791C1395.32 56.5496 1368.64 61.065 1345.34 65.216C1294.43 74.2908 1239.96 84.707 1194.85 98.2034C1154.9 110.154 1129.38 124.859 1098.92 136.805C1055.66 153.767 1001.75 169.003 935.211 182.422C870.483 195.62 816.95 209.768 754.228 218.092C746.967 219.058 739.569 219.958 731.976 220.708C667.453 227.095 596.122 226.09 524.645 222.337C484.047 220.156 443.305 217.01 403.1 214.52C387.067 213.527 370.873 212.66 354.55 212.02C297.485 209.79 238.218 210.447 186.674 218.125C157.365 222.491 131.298 229.077 107.492 236.832C98.6953 239.719 90.214 242.794 82.0143 246.012C40.5038 262.318 10.5122 282.51 -9.88044 303.972C-26.3396 321.288 -50.1623 340.232 -66.7323 358.603C-74.9064 367.672 -81.485 376.67 -90.3417 384.972" opacity="0.1807" stroke="#3A4E7F" stroke-miterlimit="10" stroke-width="1.8055"/>
<path d="M1539.11 23.2863C1516.7 34.3483 1480.15 41.1434 1421.05 50.9579C1394.29 55.4015 1367.52 59.7899 1344.27 63.8581C1293.1 72.7949 1238.49 83.2111 1193.56 96.8344C1153.62 108.945 1128.41 123.893 1098.18 136.081C1055.35 153.348 1001.67 168.909 934.954 182.355C870.329 195.521 816.421 209.348 753.605 217.435C746.335 218.373 738.92 219.245 731.318 219.974C666.65 226.168 595.336 225.08 523.893 221.277C483.287 219.069 442.545 215.9 402.314 213.411C386.273 212.417 370.078 211.551 353.747 210.916C296.657 208.697 237.347 209.403 185.837 217.159C156.519 221.575 130.487 228.226 106.715 236.032C97.9352 238.935 89.4539 242.026 81.2713 245.267C39.8546 261.644 9.88005 281.864 -10.5126 303.353C-27.0314 320.758 -50.5811 339.78 -66.861 358.238C-74.8901 367.346 -81.315 376.388 -90.1718 384.734" opacity="0.1809" stroke="#3B5081" stroke-miterlimit="10" stroke-width="1.7834"/>
<path d="M1539.11 23.3855C1516.59 33.9563 1479.33 40.4477 1420.16 49.9366C1393.27 54.2532 1366.42 58.5202 1343.19 62.4945C1291.78 71.2879 1237.02 81.7096 1192.28 95.4598C1152.34 107.731 1127.45 122.922 1097.43 135.353C1055.03 152.917 1001.58 168.809 934.681 182.278C870.159 195.41 815.875 208.917 752.965 216.772C745.678 217.683 738.255 218.533 730.644 219.234C665.831 225.229 594.534 224.064 523.117 220.211C482.503 217.976 441.76 214.791 401.504 212.296C385.463 211.302 369.251 210.435 352.92 209.806C295.804 207.598 236.452 208.349 184.975 216.193C155.649 220.664 129.651 227.376 105.913 235.231C97.142 238.157 88.6778 241.265 80.5037 244.521C39.1894 260.965 9.22338 281.213 -11.1692 302.735C-27.7478 320.222 -51.033 339.321 -67.0143 357.88C-74.8898 367.026 -81.1697 376.118 -90.0264 384.502" opacity="0.1811" stroke="#3C5183" stroke-miterlimit="10" stroke-width="1.7613"/>
<path d="M1539.11 23.4905C1516.48 33.57 1478.49 39.7578 1419.28 48.921C1392.24 53.1052 1365.31 57.2562 1342.11 61.1422C1290.45 69.7976 1235.55 80.2193 1190.98 94.0965C1151.06 106.527 1126.47 121.956 1096.68 134.635C1054.71 152.492 1001.49 168.721 934.409 182.217C869.989 195.311 815.33 208.498 752.326 216.121C745.022 217.004 737.59 217.827 729.971 218.506C665.013 224.307 593.733 223.06 522.35 219.157C481.735 216.888 440.984 213.687 400.702 211.192C384.653 210.198 368.441 209.332 352.101 208.702C294.951 206.505 235.565 207.306 184.123 215.232C154.788 219.753 128.824 226.532 105.129 234.442C96.3661 237.384 87.919 240.514 79.7534 243.787C38.533 260.297 8.58403 280.578 -11.8086 302.122C-28.4469 319.698 -51.459 338.874 -67.1588 357.521C-74.8892 366.706 -81.0155 375.842 -89.8807 384.271" opacity="0.1813" stroke="#3D5286" stroke-miterlimit="10" stroke-width="1.7391"/>
<path d="M1539.11 23.5898C1516.37 33.178 1477.66 39.0568 1418.38 47.8998C1391.21 51.9515 1364.18 55.9866 1341.02 59.7788C1289.11 68.2906 1234.08 78.7179 1189.68 92.722C1149.77 105.313 1125.48 120.984 1095.92 133.901C1054.37 152.056 1001.39 168.622 934.135 182.14C869.809 195.2 814.774 208.067 751.694 215.453C744.381 216.309 736.932 217.109 729.313 217.766C664.219 223.369 592.947 222.039 521.598 218.092C480.975 215.795 440.224 212.577 399.917 210.077C383.859 209.083 367.647 208.217 351.307 207.593C294.131 205.407 234.702 206.251 183.286 214.261C153.943 218.831 128.012 225.676 104.352 233.636C95.5975 236.6 87.1589 239.747 79.0104 243.037C37.8838 259.619 7.95189 279.927 -12.4407 301.499C-29.1388 319.163 -51.8864 338.416 -67.2875 357.151C-74.8728 366.375 -80.8456 375.555 -89.7108 384.033" opacity="0.1815" stroke="#3E5488" stroke-miterlimit="10" stroke-width="1.717"/>
<path d="M1539.11 23.6947C1516.26 32.7916 1476.83 38.3668 1417.49 46.8841C1390.18 50.8033 1363.07 54.717 1339.95 58.4264C1287.79 66.7947 1232.61 77.2274 1188.39 91.3586C1148.49 104.11 1124.51 120.018 1095.18 133.183C1054.06 151.637 1001.31 168.533 933.871 182.074C869.647 195.101 814.237 207.648 751.063 214.802C743.733 215.63 736.276 216.403 728.648 217.037C663.409 222.441 592.154 221.034 520.84 217.037C480.208 214.713 439.457 211.473 399.132 208.973C383.066 207.979 366.845 207.112 350.506 206.494C293.304 204.325 233.833 205.214 182.45 213.306C153.098 217.932 127.202 224.837 103.584 232.847C94.8471 235.833 86.4171 238.996 78.2771 242.302C37.2529 258.951 7.32953 279.286 -13.0631 300.886C-29.8209 318.638 -52.2954 337.964 -67.4064 356.792C-74.8382 366.055 -80.6659 375.279 -89.5311 383.801" opacity="0.1817" stroke="#3F558A" stroke-miterlimit="10" stroke-width="1.6949"/>
<path d="M1539.11 23.7941C1516.15 32.3942 1476 37.6658 1416.6 45.8629C1389.15 49.6552 1361.96 53.4474 1338.87 57.0685C1286.47 65.2877 1231.14 75.7315 1187.1 89.9896C1147.21 102.901 1123.54 119.047 1094.43 132.46C1053.73 151.206 1001.23 168.44 933.606 182.008C869.485 195.002 813.699 207.228 750.431 214.145C743.084 214.945 735.619 215.696 727.982 216.303C662.598 221.514 591.351 220.024 520.08 215.978C479.44 213.626 438.688 210.369 398.338 207.863C382.272 206.864 366.043 206.009 349.695 205.385C292.459 203.226 232.945 204.159 181.605 212.34C152.253 217.015 126.383 223.987 102.799 232.046C94.0703 235.049 85.6573 238.234 77.5258 241.552C36.5955 258.272 6.68067 278.635 -13.7034 300.262C-30.5209 318.103 -52.7309 337.505 -67.5519 356.422C-74.8386 365.724 -80.5127 374.997 -89.3779 383.559" opacity="0.1819" stroke="#40578D" stroke-miterlimit="10" stroke-width="1.6728"/>
<path d="M1539.11 23.8933C1516.04 32.0022 1475.16 36.9591 1415.72 44.8416C1388.13 48.4959 1360.84 52.1722 1337.8 55.7049C1285.14 63.7807 1229.68 74.23 1185.81 88.6151C1145.93 101.686 1122.57 118.075 1093.68 131.732C1053.41 150.77 1001.13 168.346 933.333 181.93C869.314 194.891 813.154 206.798 749.791 213.477C742.436 214.255 734.953 214.973 727.308 215.558C661.779 220.57 590.55 218.997 519.312 214.907C478.663 212.528 437.912 209.249 397.537 206.743C381.461 205.743 365.233 204.888 348.876 204.27C291.615 202.122 232.066 203.105 180.752 211.368C151.392 216.093 125.555 223.131 102.006 231.246C93.2856 234.271 84.8811 237.472 76.7667 240.806C35.9303 257.593 6.03253 277.983 -14.3601 299.644C-31.2373 317.573 -53.1743 337.047 -67.7051 356.058C-74.8383 365.398 -80.3673 374.716 -89.2411 383.321" opacity="0.1821" stroke="#41588F" stroke-miterlimit="10" stroke-width="1.6507"/>
<path d="M1539.11 23.9983C1515.93 31.6159 1474.33 36.2637 1414.83 43.826C1387.11 47.3478 1359.73 50.9027 1336.72 54.3526C1283.81 62.2793 1228.22 72.7452 1184.52 87.2517C1144.65 100.489 1121.58 117.109 1092.93 131.014C1053.09 150.351 1001.06 168.257 933.077 181.87C869.16 194.797 812.624 206.384 749.176 212.831C741.804 213.582 734.313 214.272 726.668 214.835C661.002 219.648 589.781 217.998 518.578 213.858C477.921 211.451 437.17 208.15 396.768 205.644C380.685 204.645 364.447 203.789 348.09 203.177C290.803 201.041 231.213 202.067 179.932 210.413C150.564 215.194 124.761 222.292 101.254 230.456C92.5513 233.498 84.1554 236.722 76.0495 240.072C35.307 256.925 5.42626 277.349 -14.9664 299.031C-31.9204 317.043 -53.5929 336.595 -67.825 355.694C-74.8131 365.072 -80.1886 374.434 -89.0624 383.084" opacity="0.1823" stroke="#425A91" stroke-miterlimit="10" stroke-width="1.6285"/>
<path d="M1539.11 24.0977C1515.82 31.2239 1473.5 35.5571 1413.93 42.8049C1386.07 46.1941 1358.61 49.6275 1335.64 52.9892C1282.48 60.7669 1226.75 71.2438 1183.22 85.8772C1143.37 99.2742 1120.6 116.127 1092.18 130.28C1052.76 149.909 1000.96 168.152 932.804 181.792C868.981 194.687 812.078 205.948 748.537 212.163C741.147 212.886 733.647 213.554 725.994 214.09C660.183 218.704 588.979 216.977 517.81 212.787C477.153 210.347 436.393 207.035 395.966 204.524C379.874 203.525 363.637 202.669 347.271 202.062C289.95 199.937 230.325 201.013 179.079 209.442C149.702 214.272 123.934 221.437 100.461 229.651C91.7664 232.714 83.3875 235.954 75.2902 239.322C34.65 256.246 4.77778 276.697 -15.6148 298.407C-32.6201 316.513 -54.0195 336.136 -67.9616 355.329C-74.8046 364.746 -80.0265 374.153 -88.9003 382.852" opacity="0.1825" stroke="#435B94" stroke-miterlimit="10" stroke-width="1.6064"/>
<path d="M1539.11 24.2025C1515.72 30.8375 1472.67 34.8561 1413.05 41.7892C1385.05 45.046 1357.5 48.3579 1334.56 51.6368C1281.16 59.2654 1225.28 69.7589 1181.94 84.5138C1142.09 98.0764 1119.63 115.161 1091.43 129.562C1052.43 149.484 1000.88 168.064 932.531 181.726C868.811 194.588 811.532 205.528 747.897 211.506C740.499 212.202 732.982 212.842 725.32 213.356C659.364 217.772 588.178 215.961 517.034 211.727C476.368 209.26 435.609 205.926 395.156 203.414C379.055 202.415 362.818 201.559 346.444 200.952C289.097 198.844 229.43 199.964 178.209 208.476C148.824 213.361 123.09 220.587 99.6594 228.856C90.9733 231.941 82.603 235.193 74.5227 238.582C33.9764 255.572 4.12124 276.052 -16.2714 297.795C-33.3363 315.989 -54.4627 335.689 -68.1147 354.971C-74.8042 364.426 -79.881 373.882 -88.7548 382.62" opacity="0.1827" stroke="#445D96" stroke-miterlimit="10" stroke-width="1.5843"/>
<path d="M1539.11 24.3018C1515.61 30.4455 1471.83 34.1494 1412.16 40.7678C1384.03 43.8866 1356.39 47.0882 1333.49 50.2788C1279.83 57.7583 1223.82 68.2684 1180.65 83.1447C1140.82 96.8674 1118.66 114.189 1090.69 128.839C1052.11 149.048 1000.8 167.976 932.275 181.66C868.657 194.488 811.003 205.109 747.274 210.855C739.859 211.523 732.333 212.141 724.663 212.632C658.562 216.85 587.392 214.962 516.283 210.678C475.608 208.183 434.849 204.833 394.379 202.316C378.278 201.316 362.024 200.461 345.65 199.859C288.278 197.762 228.568 198.926 177.381 207.521C147.995 212.456 122.287 219.748 98.891 228.066C90.2134 231.168 81.8602 234.442 73.7884 237.848C33.336 254.91 3.49789 275.417 -16.8947 297.182C-34.0109 315.453 -54.8728 335.231 -68.2261 354.601C-74.7705 364.095 -79.6937 373.595 -88.576 382.377" opacity="0.1829" stroke="#465E99" stroke-miterlimit="10" stroke-width="1.5622"/>
<path d="M1539.11 24.4011C1515.5 30.0536 1471.01 33.4428 1411.27 39.7467C1383 42.733 1355.27 45.8076 1332.41 48.9153C1278.51 56.2404 1222.36 66.767 1179.36 81.7703C1139.54 95.6585 1117.68 113.212 1089.95 128.11C1051.78 148.612 1000.71 167.876 932.011 181.588C868.495 194.383 810.466 204.678 746.651 210.193C739.22 210.833 731.685 211.423 724.015 211.893C657.777 215.911 586.616 213.946 515.541 209.613C474.858 207.09 434.098 203.718 393.603 201.2C377.494 200.196 361.239 199.346 344.857 198.75C287.451 196.663 227.706 197.877 176.554 206.555C147.16 211.545 121.485 218.898 98.1321 227.266C89.4716 230.39 81.1183 233.68 73.0637 237.102C32.7051 254.231 2.88406 274.771 -17.5086 296.564C-34.693 314.934 -55.2818 334.784 -68.345 354.247C-74.7444 363.78 -79.5141 373.324 -88.3964 382.151" opacity="0.1831" stroke="#475F9B" stroke-miterlimit="10" stroke-width="1.5401"/>
<path d="M1539.11 24.5061C1515.38 29.6673 1470.18 32.7364 1410.38 38.7311C1381.98 41.5794 1354.16 44.5381 1331.33 47.5631C1277.17 54.7335 1220.89 65.2822 1178.06 80.4069C1138.26 94.4608 1116.69 112.241 1089.19 127.393C1051.44 148.187 1000.62 167.788 931.737 181.522C868.316 194.284 809.919 204.259 746.011 209.536C738.571 210.148 731.019 210.717 723.34 211.159C656.958 214.978 585.814 212.931 514.772 208.553C474.081 206.003 433.321 202.614 392.801 200.091C376.683 199.086 360.42 198.236 344.038 197.64C286.605 195.565 226.818 196.823 175.7 205.589C146.297 210.629 120.657 218.048 97.338 226.471C88.6861 229.612 80.3499 232.924 72.3038 236.363C32.039 253.558 2.22654 274.125 -18.1575 295.951C-35.4017 314.41 -55.726 334.331 -68.4991 353.889C-74.7449 363.46 -79.3695 373.054 -88.2518 381.919" opacity="0.1833" stroke="#48619D" stroke-miterlimit="10" stroke-width="1.5179"/>
<path d="M1539.11 24.6055C1515.28 29.2754 1469.34 32.0243 1409.49 37.7099C1380.94 40.4202 1353.04 43.263 1330.25 46.1996C1275.84 53.2155 1219.42 63.7863 1176.76 79.0324C1136.98 93.2519 1115.71 111.264 1088.44 126.659C1051.11 147.74 1000.54 167.689 931.465 181.445C868.145 194.174 809.374 203.828 745.371 208.873C737.914 209.458 730.354 209.999 722.666 210.419C656.139 214.04 585.004 211.915 514.005 207.488C473.305 204.91 432.545 201.499 391.999 198.976C375.873 197.971 359.61 197.121 343.219 196.531C285.761 194.466 225.931 195.774 174.847 204.617C145.436 209.707 119.83 217.197 96.545 225.665C87.9016 228.828 79.5824 232.157 71.5448 235.607C31.3825 252.873 1.57852 273.468 -18.8056 295.316C-36.1094 313.863 -56.1693 333.862 -68.6437 353.508C-74.7445 363.118 -79.2155 372.756 -88.1063 381.671" opacity="0.1835" stroke="#4962A0" stroke-miterlimit="10" stroke-width="1.4958"/>
<path d="M1539.11 24.7103C1515.17 28.8889 1468.52 31.3177 1408.6 36.6942C1379.91 39.2665 1351.93 41.9934 1329.17 44.8472C1274.5 51.7085 1217.96 62.3014 1175.48 77.669C1135.7 92.054 1114.72 110.292 1087.69 125.941C1050.77 147.315 1000.45 167.6 931.208 181.378C867.991 194.074 808.844 203.403 744.757 208.216C737.282 208.779 729.714 209.287 722.018 209.685C655.354 213.107 584.227 210.905 513.262 206.428C472.562 203.817 431.794 200.389 391.222 197.866C375.087 196.862 358.824 196.012 342.425 195.427C284.933 193.373 225.069 194.731 174.02 203.657C144.6 208.802 119.028 216.353 95.7852 224.87C87.1589 228.055 78.8397 231.4 70.8192 234.867C30.7507 252.2 0.963848 272.828 -19.4202 294.703C-36.7838 313.333 -56.5792 333.41 -68.755 353.149C-74.7107 362.798 -79.0281 372.48 -87.9189 381.439" opacity="0.1837" stroke="#4A64A2" stroke-miterlimit="10" stroke-width="1.4737"/>
<path d="M1539.11 24.8096C1515.06 28.4969 1467.69 30.6055 1407.71 35.6729C1378.89 38.1072 1350.82 40.7126 1328.1 43.4892C1273.18 50.1904 1216.5 60.8109 1174.19 76.2999C1134.43 90.8506 1113.74 109.32 1086.94 125.218C1050.44 146.878 1000.36 167.506 930.935 181.312C867.821 193.975 808.298 202.983 744.117 207.559C736.634 208.095 729.048 208.581 721.352 208.95C654.543 212.174 583.433 209.889 512.503 205.368C471.794 202.729 431.026 199.285 390.437 196.751C374.302 195.747 358.022 194.897 341.623 194.312C284.105 192.275 224.199 193.671 173.175 202.685C143.755 207.88 118.2 215.497 95.0001 224.07C86.3823 227.271 78.0802 230.638 70.0682 234.122C30.0936 251.521 0.323776 272.176 -20.0603 294.085C-37.4836 312.803 -57.0059 332.957 -68.9002 352.79C-74.7108 362.478 -78.8747 372.204 -87.7655 381.207" opacity="0.1839" stroke="#4B65A4" stroke-miterlimit="10" stroke-width="1.4516"/>
<path d="M1539.11 24.9146C1514.95 28.1106 1466.86 29.8991 1406.83 34.6573C1377.87 36.9536 1349.7 39.4431 1327.02 42.1314C1271.86 48.6725 1215.04 59.3206 1172.9 74.9311C1133.16 89.6473 1112.75 108.343 1086.2 124.495C1050.11 146.442 1000.28 167.413 930.671 181.246C867.659 193.876 807.752 202.564 743.486 206.908C735.986 207.416 728.392 207.874 720.687 208.222C653.733 211.247 582.64 208.884 511.744 204.314C471.027 201.648 430.259 198.181 389.644 195.647C373.501 194.643 357.221 193.793 340.821 193.213C283.278 191.187 223.329 192.634 172.339 201.725C142.91 206.974 117.39 214.653 94.2327 223.275C85.6234 226.499 77.3384 229.877 69.3349 233.382C29.4541 250.847 -0.298598 271.536 -20.6827 293.467C-38.1657 312.274 -57.4235 332.499 -69.0192 352.426C-74.6762 362.152 -78.695 371.928 -87.5858 380.97" opacity="0.1841" stroke="#4C67A7" stroke-miterlimit="10" stroke-width="1.4295"/>
<path d="M1539.11 25.0139C1514.85 27.7187 1466.02 29.1815 1405.93 33.6361C1376.83 35.7944 1348.58 38.1625 1325.94 40.7735C1270.52 47.1545 1213.58 57.8302 1171.6 73.5621C1131.87 88.444 1111.76 107.366 1085.44 123.772C1049.76 146.006 1000.18 167.324 930.398 181.174C867.479 193.771 807.206 202.133 742.845 206.246C735.328 206.726 727.726 207.162 720.012 207.482C652.913 210.303 581.838 207.869 510.967 203.248C470.241 200.555 429.473 197.072 388.833 194.532C372.681 193.522 356.401 192.678 339.993 192.104C282.416 190.089 222.433 191.585 171.477 200.759C142.04 206.058 116.553 213.803 93.4301 222.475C84.8294 225.715 76.5529 229.115 68.5665 232.637C28.7796 250.174 -0.956115 270.89 -21.3402 292.849C-38.8744 311.738 -57.8677 332.041 -69.1647 352.056C-74.6767 361.821 -78.5419 371.641 -87.4413 380.727" opacity="0.1843" stroke="#4D68A9" stroke-miterlimit="10" stroke-width="1.4073"/>
<path d="M1539.11 25.1134C1514.74 27.3269 1465.2 28.464 1405.04 32.6151C1375.81 34.6298 1347.47 36.8875 1324.86 39.4101C1269.2 45.6312 1212.12 56.3399 1170.31 72.1878C1130.6 87.2407 1110.78 106.384 1084.7 123.038C1049.43 145.565 1000.11 167.22 930.133 181.097C867.317 193.66 806.668 201.703 742.223 205.578C734.697 206.031 727.077 206.439 719.355 206.743C652.12 209.365 581.053 206.853 510.216 202.183C469.482 199.462 428.714 195.957 388.048 193.418C371.887 192.407 355.599 191.563 339.191 190.994C281.588 188.99 221.562 190.536 170.64 199.793C141.195 205.147 115.743 212.953 92.6622 221.674C84.0785 224.937 75.8106 228.353 67.8327 231.892C28.1396 249.495 -1.579 270.239 -21.9631 292.225C-39.5656 311.208 -58.2944 331.583 -69.3012 351.692C-74.6682 361.495 -78.3798 371.359 -87.2792 380.495" opacity="0.1845" stroke="#4E6AAB" stroke-miterlimit="10" stroke-width="1.3852"/>
<path d="M1539.11 25.2181C1514.63 26.9349 1464.37 27.7518 1404.16 31.5992C1374.79 33.476 1346.36 35.6123 1323.79 38.0576C1267.87 44.113 1210.66 54.8549 1169.02 70.8242C1129.32 86.0428 1109.78 105.418 1083.95 122.32C1049.08 145.134 1000.01 167.131 929.869 181.031C867.155 193.561 806.131 201.278 741.591 204.927C734.049 205.352 726.421 205.732 718.699 206.014C651.318 208.437 580.268 205.843 509.465 201.129C468.723 198.38 427.955 194.858 387.263 192.313C371.103 191.303 354.806 190.459 338.389 189.89C280.761 187.897 220.692 189.487 169.805 198.827C140.359 204.231 114.932 212.103 91.8861 220.879C83.311 224.164 75.0515 227.597 67.0907 231.152C27.4915 248.821 -2.21003 269.599 -22.5941 291.612C-40.2563 310.684 -58.7206 331.135 -69.4289 351.333C-74.6507 361.175 -78.2088 371.083 -87.1082 380.263" opacity="0.1847" stroke="#4F6BAE" stroke-miterlimit="10" stroke-width="1.3631"/>
<path d="M1539.11 25.3176C1514.51 26.5431 1463.54 27.0343 1403.27 30.5782C1373.76 32.3114 1345.25 34.3318 1322.71 36.6998C1266.54 42.5896 1209.21 53.3646 1167.73 69.4554C1128.06 84.8395 1108.8 104.441 1083.2 121.597C1048.73 144.698 999.929 167.038 929.596 180.964C866.985 193.462 805.585 200.858 740.951 204.27C733.392 204.667 725.764 205.026 718.025 205.28C650.499 207.499 579.466 204.833 508.697 200.069C467.955 197.287 427.178 193.749 386.47 191.204C370.301 190.194 354.004 189.349 337.579 188.786C279.916 186.805 219.813 188.444 168.96 197.867C139.506 203.326 114.113 211.258 91.101 220.085C82.5344 223.385 74.292 226.841 66.3398 230.407C26.8429 248.143 -2.85009 268.953 -23.2342 290.994C-40.9561 310.154 -59.1559 330.677 -69.5655 350.969C-74.6338 360.849 -78.0468 370.807 -86.9462 380.026" opacity="0.1849" stroke="#506CB0" stroke-miterlimit="10" stroke-width="1.341"/>
<path d="M1539.11 25.4224C1514.4 26.1565 1462.71 26.3221 1402.38 29.5623C1372.74 31.1521 1344.13 33.062 1321.64 35.3418C1265.21 41.066 1207.75 51.8796 1166.44 68.0863C1126.79 83.6416 1107.81 103.464 1082.46 120.874C1048.39 144.262 999.852 166.949 929.34 180.898C866.822 193.362 805.056 200.433 740.328 203.613C732.76 203.983 725.115 204.314 717.368 204.546C649.705 206.566 578.672 203.822 507.947 199.009C467.195 196.199 426.419 192.639 385.685 190.094C369.507 189.084 353.202 188.24 336.777 187.682C279.088 185.717 218.943 187.401 168.115 196.906C138.652 202.415 113.294 210.413 90.3245 219.289C81.775 222.613 73.5411 226.085 65.6059 229.667C26.203 247.474 -3.47297 268.307 -23.8571 290.376C-41.6387 309.624 -59.5655 330.224 -69.6935 350.604C-74.6167 360.524 -77.8762 370.526 -86.7841 379.788" opacity="0.185" stroke="#516EB2" stroke-miterlimit="10" stroke-width="1.3188"/>
<path d="M1539.11 25.5217C1514.3 25.7646 1461.89 25.599 1401.48 28.5412C1371.71 29.9874 1343.01 31.7814 1320.55 33.9839C1263.88 39.5425 1206.29 50.3892 1165.14 66.7173C1125.51 82.4437 1106.82 102.487 1081.7 120.151C1048.04 143.826 999.758 166.855 929.067 180.826C866.652 193.257 804.51 200.008 739.697 202.956C732.112 203.298 724.458 203.607 716.702 203.811C648.895 205.628 577.879 202.807 507.187 197.949C466.428 195.112 425.651 191.535 384.891 188.985C368.705 187.975 352.4 187.13 335.966 186.573C278.252 184.619 218.098 186.413 167.27 195.934C137.816 201.537 112.475 209.558 89.5395 218.489C80.9985 221.829 72.7732 225.323 64.8551 228.922C25.546 246.796 -4.04464 267.689 -24.497 289.758C-42.2787 309.116 -60.0006 329.772 -69.83 350.24C-74.6082 360.198 -77.714 370.244 -86.6219 379.557" opacity="0.1852" stroke="#526FB5" stroke-miterlimit="10" stroke-width="1.2967"/>
<path d="M1539.11 25.6211C1514.19 25.3727 1461.07 24.8815 1400.6 27.52C1370.69 28.8227 1341.9 30.5008 1319.47 32.6205C1262.54 38.008 1204.83 48.8989 1163.85 65.3429C1124.24 81.2349 1105.81 101.504 1080.94 119.417C1047.69 143.379 999.665 166.75 928.794 180.749C866.481 193.147 803.964 199.572 739.057 202.288C731.455 202.608 723.793 202.884 716.037 203.066C648.084 204.684 577.085 201.786 506.428 196.878C465.66 194.014 424.883 190.415 384.098 187.864C367.903 186.854 351.598 186.01 335.155 185.458C277.408 183.515 217.22 185.358 166.426 194.963C136.963 200.615 111.656 208.702 88.7632 217.683C80.2307 221.045 72.0225 224.55 64.1129 228.171C24.8976 246.111 -4.68447 267.032 -25.1283 289.134C-42.9697 308.581 -60.4271 329.308 -69.9579 349.87C-74.591 359.867 -77.5433 369.957 -86.4512 379.314" opacity="0.1854" stroke="#5371B7" stroke-miterlimit="10" stroke-width="1.2746"/>
<path d="M1539.11 25.726C1514.08 24.9864 1460.24 24.1639 1399.71 26.5044C1369.67 27.6636 1340.78 29.2257 1318.39 31.2681C1261.22 36.49 1203.38 47.414 1162.56 63.9795C1122.97 80.0426 1104.82 100.533 1080.2 118.699C1047.34 142.948 999.579 166.668 928.529 180.683C866.319 193.048 803.426 199.153 738.425 201.631C730.815 201.924 723.135 202.172 715.371 202.332C647.282 203.745 576.291 200.776 505.668 195.819C464.891 192.926 424.115 189.311 383.304 186.755C367.109 185.739 350.787 184.9 334.345 184.354C276.571 182.422 216.34 184.309 165.581 194.003C136.118 199.705 110.836 207.858 87.9778 216.888C79.4539 220.272 71.2627 223.794 63.3616 227.432C24.2402 245.438 -5.3248 266.392 -25.7686 288.516C-43.6697 308.051 -60.8627 328.856 -70.1033 349.506C-74.5914 359.541 -77.3901 369.681 -86.3065 379.076" opacity="0.1856" stroke="#5472B9" stroke-miterlimit="10" stroke-width="1.2525"/>
<path d="M1539.11 25.8254C1513.97 24.5944 1459.42 23.4408 1398.82 25.4832C1368.64 26.4988 1339.67 27.9451 1317.32 29.9102C1259.9 34.961 1201.92 45.9291 1161.27 62.6105C1121.7 78.8448 1103.83 99.5557 1079.46 117.976C1047 142.512 999.502 166.574 928.265 180.617C866.157 192.948 802.888 198.728 737.794 200.98C730.166 201.245 722.478 201.471 714.705 201.609C646.471 202.818 575.498 199.771 504.9 194.77C464.115 191.85 423.338 188.212 382.51 185.656C366.307 184.641 349.985 183.807 333.534 183.255C275.735 181.334 215.462 183.272 164.736 193.042C135.265 198.794 110.017 207.013 87.1928 216.099C78.6859 219.499 70.4948 223.043 62.6108 226.697C23.5832 244.775 -5.96474 265.751 -26.4086 287.908C-44.3694 307.532 -61.2978 328.408 -70.2399 349.153C-74.5829 359.227 -77.228 369.411 -86.1444 378.85" opacity="0.1858" stroke="#5674BC" stroke-miterlimit="10" stroke-width="1.2304"/>
<path d="M1539.11 25.9302C1513.87 24.2079 1458.59 22.7175 1397.94 24.4618C1367.63 25.334 1338.57 26.6588 1316.25 28.5466C1258.57 33.4208 1200.47 44.4386 1159.98 61.2359C1120.44 77.6413 1102.83 98.5731 1078.71 117.247C1046.64 142.07 999.417 166.474 928.001 180.545C865.987 192.843 802.351 198.297 737.172 200.317C729.527 200.555 721.83 200.753 714.057 200.869C645.678 201.879 574.722 198.755 504.158 193.704C463.373 190.751 422.588 187.102 381.734 184.541C365.523 183.526 349.192 182.692 332.741 182.146C274.908 180.236 214.6 182.217 163.909 192.076C134.429 197.883 109.216 206.163 86.434 215.299C77.9356 218.721 69.7615 222.281 61.886 225.952C22.9523 244.096 -6.57857 265.105 -27.0309 287.29C-45.06 307.002 -61.7154 327.956 -70.3588 348.788C-74.5568 358.901 -77.0483 369.129 -85.9647 378.613" opacity="0.186" stroke="#5775BE" stroke-miterlimit="10" stroke-width="1.2082"/>
<path d="M1539.11 26.0296C1513.75 23.8161 1457.77 21.9945 1397.04 23.4407C1366.6 24.1694 1337.44 25.3783 1315.16 27.1888C1257.23 31.8918 1199.01 42.9539 1158.68 59.8671C1119.16 76.4436 1101.83 97.5961 1077.96 116.519C1046.29 141.623 999.323 166.375 927.727 180.468C865.816 192.733 801.805 197.866 736.532 199.649C728.878 199.859 721.165 200.03 713.383 200.124C644.867 200.93 573.92 197.734 503.39 192.634C462.596 189.653 421.811 185.982 380.932 183.421C364.712 182.405 348.381 181.572 331.922 181.031C274.063 179.137 213.713 181.158 163.055 191.105C133.567 196.961 108.388 205.307 85.6402 214.493C77.1504 217.932 68.9762 221.503 61.1264 225.201C22.2353 243.362 -7.23583 264.448 -27.6796 286.661C-45.7685 306.461 -62.1594 327.487 -70.5041 348.413C-74.5485 358.564 -76.895 368.842 -85.8114 378.37" opacity="0.1862" stroke="#5877C0" stroke-miterlimit="10" stroke-width="1.1861"/>
<path d="M1539.11 26.1291C1513.64 23.4243 1456.95 21.266 1396.15 22.4197C1365.57 22.9993 1336.33 24.0978 1314.09 25.8255C1255.91 30.3519 1197.56 41.4636 1157.4 58.4927C1117.9 75.2403 1100.83 96.6137 1077.22 115.79C1045.94 141.182 999.246 166.281 927.471 180.396C865.662 192.628 801.267 197.353 735.908 198.993C728.238 199.164 720.516 199.324 712.726 199.39C644.065 199.992 573.134 196.718 502.639 191.574C461.837 188.565 421.052 184.878 380.147 182.311C363.927 181.296 347.587 180.462 331.119 179.921C273.235 178.039 212.842 180.109 162.21 190.139C132.714 196.045 107.568 204.457 84.8635 213.692C76.3907 217.153 68.2251 220.741 60.3838 224.451C21.5866 242.683 -7.8675 263.797 -28.3113 286.037C-46.4599 305.926 -62.5948 327.029 -70.6409 348.043C-74.5403 358.233 -76.7331 368.555 -85.6581 378.127" opacity="0.1864" stroke="#5978C3" stroke-miterlimit="10" stroke-width="1.164"/>
<path d="M1539.11 26.2339C1513.53 23.0378 1456.13 20.5483 1395.26 21.4039C1364.56 21.84 1335.22 22.817 1313.01 24.473C1254.59 28.8227 1196.11 39.9841 1156.11 57.1292C1116.64 74.0479 1099.84 95.6421 1076.47 115.072C1045.59 140.751 999.161 166.193 927.198 180.33C865.491 192.529 800.73 196.939 735.268 198.336C727.581 198.479 719.85 198.612 712.052 198.656C643.254 199.053 572.324 195.708 501.871 190.514C461.06 187.478 420.275 183.768 379.345 181.202C363.116 180.186 346.768 179.353 330.309 178.817C272.39 176.946 211.963 179.06 161.366 189.173C131.869 195.134 106.749 203.607 84.0785 212.897C75.6142 216.375 67.4572 219.985 59.6329 223.711C20.9296 242.01 -8.50744 263.151 -28.9513 285.419C-47.1596 305.39 -63.03 326.57 -70.7774 347.684C-74.5317 357.913 -76.571 368.279 -85.496 377.895" opacity="0.1866" stroke="#5A79C5" stroke-miterlimit="10" stroke-width="1.1419"/>
<path d="M1539.11 26.3331C1513.43 22.6458 1455.32 19.8195 1394.38 20.3826C1363.53 20.6696 1334.11 21.5363 1311.94 23.115C1253.26 27.2881 1194.66 38.4936 1154.82 55.7601C1115.37 72.85 1098.84 94.6649 1075.72 114.349C1045.23 140.315 999.076 166.099 926.942 180.263C865.329 192.429 800.201 196.52 734.654 197.679C726.958 197.8 719.211 197.9 711.412 197.922C642.47 198.115 571.556 194.698 501.138 189.454C460.318 186.39 419.533 182.659 378.586 180.092C362.348 179.071 346 178.243 329.532 177.713C271.588 175.853 211.119 178.017 160.555 188.212C131.05 194.223 105.965 202.763 83.3364 212.102C74.8807 215.602 66.7408 219.229 58.925 222.971C20.3241 241.342 -9.11295 262.511 -29.5482 284.806C-47.8163 304.866 -63.4222 326.123 -70.871 347.325C-74.4802 357.592 -76.3659 368.003 -85.2909 377.663" opacity="0.1868" stroke="#5B7BC7" stroke-miterlimit="10" stroke-width="1.1198"/>
<path d="M1539.11 26.4382C1513.32 22.2596 1454.5 19.0966 1393.48 19.3671C1362.51 19.5051 1332.99 20.2613 1310.85 21.7572C1251.93 25.7482 1193.2 37.0089 1153.52 54.3913C1114.1 71.6523 1097.83 93.6881 1074.96 113.626C1044.86 139.879 998.982 166.011 926.661 180.197C865.15 192.33 799.646 196.1 734.006 197.022C726.292 197.116 718.536 197.193 710.729 197.188C641.65 197.177 570.745 193.688 500.361 188.394C459.542 185.303 418.748 181.555 377.775 178.983C361.529 177.962 345.181 177.134 328.705 176.609C270.735 174.76 210.223 176.968 159.693 187.252C130.18 193.313 105.128 201.918 82.5343 211.308C74.0872 214.829 65.9642 218.473 58.157 222.232C19.65 240.668 -9.77001 261.865 -30.2053 284.194C-48.5501 304.336 -63.883 325.665 -71.0417 346.956C-74.5059 357.261 -76.238 367.722 -85.163 377.42" opacity="0.187" stroke="#5C7CCA" stroke-miterlimit="10" stroke-width="1.0976"/>
<path d="M1539.11 26.5375C1513.21 21.8676 1453.68 18.3679 1392.59 18.3458C1361.48 18.3348 1331.89 18.9751 1309.78 20.3993C1250.6 24.2081 1191.75 35.5295 1152.23 53.0223C1112.84 70.4599 1096.82 92.7055 1074.22 112.898C1044.51 139.438 998.897 165.911 926.396 180.12C864.988 192.22 799.109 195.67 733.375 196.36C725.644 196.426 717.88 196.476 710.064 196.453C640.84 196.238 569.952 192.672 499.602 187.334C458.774 184.21 417.98 180.446 376.982 177.873C360.727 176.852 344.37 176.024 327.894 175.5C269.89 173.661 209.344 175.914 158.849 186.28C129.326 192.396 104.309 201.063 81.7493 210.507C73.3192 214.046 65.1963 217.705 57.4062 221.487C18.993 239.995 -10.4099 261.219 -30.8452 283.57C-49.2412 303.806 -64.3096 325.212 -71.1697 346.597C-74.4888 356.941 -76.0674 367.446 -85.0009 377.194" opacity="0.1872" stroke="#5D7ECC" stroke-miterlimit="10" stroke-width="1.0755"/>
<path d="M1539.11 26.6423C1513.1 21.4756 1452.86 17.6392 1391.71 17.3301C1360.47 17.17 1330.77 17.6944 1308.7 19.0413C1249.28 22.6679 1190.31 34.0446 1150.95 51.6533C1111.59 69.2621 1095.83 91.7284 1073.48 112.174C1044.15 139.007 998.82 165.817 926.141 180.054C864.835 192.12 798.58 195.25 732.752 195.703C725.013 195.741 717.232 195.763 709.407 195.719C640.047 195.3 569.167 191.662 498.851 186.275C458.015 183.123 417.221 179.341 376.197 176.764C359.943 175.742 343.577 174.914 327.093 174.396C269.063 172.574 208.474 174.87 158.013 185.32C128.482 191.485 103.499 200.218 80.9819 209.712C72.5603 213.273 64.4545 216.949 56.6729 220.747C18.362 239.322 -11.0323 260.573 -31.4676 282.957C-49.9233 303.281 -64.7272 324.765 -71.2887 346.238C-74.4627 356.621 -75.8877 367.17 -84.8212 376.962" opacity="0.1874" stroke="#5E7FCE" stroke-miterlimit="10" stroke-width="1.0534"/>
<path d="M1539.11 26.7418C1512.99 21.0838 1452.05 16.9107 1390.82 16.309C1359.45 15.9999 1329.66 16.4139 1307.62 17.6835C1247.95 21.128 1188.85 32.5598 1149.64 50.2845C1110.31 68.0699 1094.8 90.7515 1072.71 111.451C1043.77 138.571 998.718 165.724 925.851 179.982C864.647 192.01 798.017 194.825 732.104 195.04C724.348 195.051 716.557 195.051 708.733 194.98C639.228 194.356 568.365 190.646 498.075 185.209C457.23 182.03 416.436 178.227 375.386 175.643C359.124 174.622 342.758 173.794 326.265 173.281C268.21 171.47 207.578 173.811 157.143 184.348C127.612 190.564 102.654 199.363 80.1713 208.907C71.7582 212.484 63.6695 216.182 55.8964 219.996C17.6794 238.643 -11.7064 259.922 -32.1332 282.333C-50.6487 302.746 -65.1965 324.302 -71.4594 345.868C-74.4884 356.29 -75.7597 366.883 -84.6932 376.719" opacity="0.1876" stroke="#5F81D1" stroke-miterlimit="10" stroke-width="1.0313"/>
<path d="M1539.11 26.8409C1512.88 20.6917 1451.23 16.1818 1389.93 15.2876C1358.43 14.8294 1328.55 15.1275 1306.54 16.3254C1246.63 19.5821 1187.4 31.0747 1148.35 48.9153C1109.04 66.8718 1093.8 89.7742 1071.97 110.728C1043.41 138.135 998.632 165.635 925.594 179.915C864.485 191.91 797.487 194.405 731.48 194.389C723.707 194.372 715.908 194.345 708.076 194.251C638.434 193.423 567.58 189.636 497.323 184.155C456.47 180.948 415.676 177.128 374.609 174.539C358.338 173.518 341.964 172.69 325.471 172.176C267.382 170.377 206.716 172.767 156.315 183.382C126.775 189.653 101.852 198.518 79.4114 208.111C71.0154 211.71 62.9266 215.425 55.1706 219.256C17.0475 237.969 -12.3213 259.282 -32.748 281.715C-51.3232 302.216 -65.6066 323.849 -71.5708 345.504C-74.4547 355.964 -75.5725 366.607 -84.5145 376.482" opacity="0.1878" stroke="#6082D3" stroke-miterlimit="10" stroke-width="1.0092"/>
<path d="M1539.11 26.9459C1512.77 20.3054 1450.42 15.4533 1389.04 14.2721C1357.41 13.6649 1327.43 13.847 1305.46 14.9676C1245.3 18.0367 1185.95 29.59 1147.05 47.5465C1107.78 65.6796 1092.79 88.7973 1071.22 110.005C1043.04 137.699 998.546 165.542 925.321 179.849C864.314 191.811 796.941 193.986 730.84 193.732C723.058 193.693 715.243 193.633 707.401 193.517C637.614 192.485 566.769 188.626 496.555 183.095C455.693 179.86 414.9 176.018 373.807 173.43C357.527 172.403 341.153 171.58 324.652 171.073C266.537 169.284 205.828 171.718 155.461 182.422C125.913 188.742 101.024 197.673 78.6176 207.317C70.2302 210.938 62.1585 214.669 54.411 218.511C16.3817 237.296 -12.97 258.63 -33.3967 281.097C-52.0317 301.681 -66.0505 323.391 -71.7161 345.14C-74.455 355.639 -75.4192 366.325 -84.3612 376.245" opacity="0.188" stroke="#6184D6" stroke-miterlimit="10" stroke-width="0.987"/>
<path d="M1539.11 27.0453C1512.66 19.9135 1449.61 14.7192 1388.15 13.2509C1356.39 12.4947 1326.32 12.5609 1304.38 13.6097C1243.97 16.4911 1184.5 28.1052 1145.77 46.1776C1106.52 64.4818 1091.78 87.8258 1070.47 109.276C1042.68 137.257 998.453 165.442 925.056 179.772C864.151 191.701 796.403 193.555 730.209 193.064C722.41 192.998 714.586 192.915 706.736 192.772C636.812 191.535 565.975 187.605 495.796 182.024C454.934 178.756 414.132 174.898 373.014 172.309C356.725 171.282 340.343 170.46 323.841 169.958C265.701 168.18 204.949 170.659 154.616 181.45C125.06 187.82 100.205 196.818 77.8411 206.511C69.4622 210.148 61.3991 213.902 53.6686 217.761C15.7418 236.617 -13.6099 257.979 -34.0281 280.473C-52.7313 301.145 -66.5454 322.927 -71.8526 344.77C-74.4806 355.307 -75.2571 366.038 -84.1991 376.007" opacity="0.1882" stroke="#6285D8" stroke-miterlimit="10" stroke-width="0.9649"/>
<path d="M1539.11 27.1502C1512.55 19.5271 1448.8 13.9906 1387.26 12.2352C1355.37 11.3244 1325.21 11.2803 1303.31 12.2518C1242.66 14.9455 1183.05 26.6258 1144.48 44.8086C1105.26 63.2895 1090.77 86.8488 1069.72 108.553C1042.31 136.827 998.376 165.354 924.792 179.706C863.99 191.601 795.866 193.136 729.586 192.413C721.77 192.319 713.938 192.209 706.088 192.043C636.019 190.597 565.199 186.595 495.054 180.97C454.183 177.674 413.381 173.799 372.238 171.205C355.949 170.178 339.558 169.356 323.048 168.854C264.873 167.093 204.088 169.615 153.789 180.484C124.224 186.909 99.4031 195.968 77.0736 205.71C68.7032 209.37 60.6571 213.14 52.9352 217.015C15.1022 235.938 -14.2324 257.328 -34.6506 279.849C-53.4135 300.61 -66.9631 322.469 -71.9717 344.4C-74.4461 354.976 -75.0775 365.757 -84.0195 375.764" opacity="0.1884" stroke="#6386DA" stroke-miterlimit="10" stroke-width="0.9428"/>
<path d="M1539.11 27.2494C1512.45 19.1351 1447.99 13.2563 1386.37 11.2139C1354.36 10.1541 1324.1 9.99399 1302.23 10.8937C1241.34 13.3943 1181.61 25.1408 1143.19 43.4395C1104.01 62.0971 1089.77 85.8716 1068.98 107.83C1041.94 136.39 998.299 165.26 924.528 179.634C863.819 191.496 795.337 192.711 728.955 191.75C721.131 191.629 713.289 191.48 705.422 191.309C635.217 189.575 564.406 185.584 494.295 179.91C453.416 176.587 412.613 172.69 371.444 170.095C355.147 169.069 338.756 168.246 322.237 167.749C264.037 166 203.209 168.566 152.944 179.524C123.379 185.998 98.584 195.123 76.2886 204.921C67.9353 208.597 59.8977 212.389 52.1844 216.281C14.4452 235.275 -14.8724 256.693 -35.2906 279.242C-54.1132 300.091 -67.3898 322.022 -72.1082 344.046C-74.4376 354.661 -74.9154 365.486 -83.866 375.538" opacity="0.1886" stroke="#6588DD" stroke-miterlimit="10" stroke-width="0.9207"/>
<path d="M1539.11 27.349C1512.34 18.7434 1447.18 12.5223 1385.48 10.1929C1353.34 8.97852 1322.99 8.70804 1301.15 9.53604C1240.01 11.8434 1180.16 23.6561 1141.89 42.0708C1102.75 60.9049 1088.74 84.8948 1068.22 107.107C1041.57 135.96 998.197 165.166 924.254 179.568C863.648 191.397 794.791 192.291 728.314 191.094C720.473 190.945 712.623 190.773 704.748 190.575C634.406 188.643 563.603 184.575 493.526 178.85C452.639 175.5 411.836 171.586 370.65 168.986C354.344 167.959 337.945 167.137 321.426 166.646C263.201 164.907 202.33 167.523 152.091 178.563C122.517 185.088 97.7559 194.279 75.5032 204.126C67.1585 207.825 59.1294 211.633 51.4331 215.542C13.7964 234.602 -15.5127 256.047 -35.9309 278.624C-54.8133 299.561 -67.8253 321.569 -72.2537 343.682C-74.4294 354.336 -74.7622 365.205 -83.7128 375.301" opacity="0.1888" stroke="#6689DF" stroke-miterlimit="10" stroke-width="0.8986"/>
<path d="M1539.11 27.4539C1512.23 18.357 1446.36 11.7937 1384.59 9.17725C1352.32 7.80829 1321.88 7.42742 1300.08 8.17813C1238.69 10.2923 1178.72 22.1768 1140.6 40.7018C1101.49 59.7126 1087.74 83.9177 1067.48 106.384C1041.2 135.524 998.12 165.072 923.99 179.502C863.486 191.298 794.253 191.872 727.683 190.442C719.833 190.266 711.966 190.067 704.082 189.846C633.604 187.721 562.81 183.564 492.767 177.796C451.871 174.418 411.068 170.482 369.857 167.882C353.542 166.855 337.143 166.033 320.616 165.547C262.356 163.819 201.451 166.48 151.246 177.603C121.664 184.177 96.9368 193.434 74.7182 203.331C66.382 207.052 58.37 210.877 50.6822 214.802C13.1394 233.934 -16.1612 255.407 -36.5708 278.011C-55.5129 299.037 -68.2519 321.122 -72.3902 343.324C-74.4209 354.021 -74.6001 364.929 -83.5507 375.069" opacity="0.189" stroke="#678BE1" stroke-miterlimit="10" stroke-width="0.8764"/>
<path d="M1539.11 27.5533C1512.12 17.9651 1445.56 11.054 1383.7 8.15606C1351.3 6.63807 1320.78 6.14127 1299 6.82022C1237.37 8.74118 1177.28 20.6919 1139.32 39.3329C1100.24 58.5203 1086.73 82.9462 1066.74 105.655C1040.83 135.088 998.043 164.979 923.734 179.424C863.332 191.187 793.724 191.441 727.069 189.774C719.202 189.576 711.326 189.349 703.442 189.101C632.819 186.783 562.042 182.543 492.025 176.725C451.12 173.319 410.318 169.367 369.08 166.762C352.766 165.729 336.358 164.912 319.822 164.427C261.537 162.71 200.589 165.415 150.418 176.626C120.828 183.255 96.1348 192.573 73.9589 202.525C65.6397 206.263 57.6363 210.11 49.9656 214.051C12.5165 233.25 -16.7669 254.75 -37.1766 277.387C-56.1784 298.501 -68.6529 320.664 -72.4925 342.954C-74.3782 353.69 -74.4038 364.647 -83.3544 374.832" opacity="0.1892" stroke="#688CE4" stroke-miterlimit="10" stroke-width="0.8543"/>
<path d="M1539.11 27.658C1512.01 17.5786 1444.76 10.3253 1382.82 7.14029C1350.29 5.46773 1319.67 4.86054 1297.93 5.46221C1236.06 7.18445 1175.83 19.2125 1138.03 37.9638C1098.98 57.3279 1085.71 81.9691 1065.99 104.932C1040.46 134.657 997.95 164.885 923.461 179.358C863.162 191.088 793.179 191.022 726.429 189.117C718.545 188.891 710.661 188.637 702.769 188.367C632.009 185.85 561.24 181.533 491.257 175.665C450.352 172.226 409.542 168.257 368.278 165.652C351.956 164.62 335.539 163.803 319.012 163.323C260.701 161.617 199.711 164.371 149.574 175.665C119.975 182.344 95.3075 191.728 73.1742 201.731C64.8636 205.49 56.8687 209.348 49.215 213.311C11.8599 232.582 -17.4065 254.11 -37.8162 276.769C-56.8863 297.966 -69.0792 320.211 -72.6372 342.589C-74.3693 353.364 -74.2499 364.366 -83.209 374.594" opacity="0.1894" stroke="#698EE6" stroke-miterlimit="10" stroke-width="0.8322"/>
<path d="M1539.11 27.7574C1511.9 17.1866 1443.95 9.58559 1381.93 6.11904C1349.27 4.29193 1318.56 3.56881 1296.84 4.10425C1234.73 5.62776 1174.44 17.7717 1136.73 36.5948C1097.77 56.1742 1084.62 80.9699 1065.24 104.209C1039.99 134.194 997.864 164.791 923.196 179.286C862.991 190.983 792.641 190.597 725.798 188.46C717.905 188.207 710.004 187.931 702.103 187.632C631.198 184.922 560.438 180.517 490.498 174.605C449.584 171.139 408.774 167.148 367.485 164.542C351.154 163.51 334.737 162.699 318.201 162.218C259.856 160.529 198.832 163.322 148.729 174.699C119.13 181.428 94.4885 190.878 72.3893 200.93C64.0873 204.706 56.1094 208.586 48.4643 212.561C11.2115 231.897 -18.0549 253.453 -38.456 276.145C-57.5858 297.43 -69.5142 319.753 -72.7737 342.225C-74.3607 353.039 -74.0877 364.084 -83.0468 374.357" opacity="0.1896" stroke="#6A8FE8" stroke-miterlimit="10" stroke-width="0.8101"/>
<path d="M1539.11 27.8567C1511.79 16.7946 1443.16 8.80171 1381.03 5.0978C1348.26 3.09405 1317.45 2.26054 1295.76 2.74629C1233.4 4.01037 1172.96 16.2647 1135.43 35.2258C1096.49 54.9653 1083.63 80.0039 1064.48 103.486C1039.65 133.774 997.762 164.697 922.915 179.22C862.812 190.884 792.086 190.177 725.149 187.804C717.239 187.522 709.33 187.224 701.42 186.898C630.379 183.995 559.628 179.507 489.721 173.545C448.799 170.051 407.988 166.044 366.674 163.433C350.334 162.401 333.918 161.589 317.374 161.109C259.003 159.431 197.936 162.274 147.867 173.733C118.26 180.517 93.652 190.028 71.5956 200.135C63.302 203.933 55.3412 207.83 47.7046 211.821C10.5457 231.229 -18.7036 252.812 -39.1048 275.533C-58.2943 296.906 -69.9497 319.306 -72.919 341.866C-74.3524 352.718 -73.9343 363.808 -82.8934 374.125" opacity="0.1898" stroke="#6B91EB" stroke-miterlimit="10" stroke-width="0.788"/>
<path d="M1539.11 27.9616C1497.18 10.2922 1357.29 0.262366 1294.68 1.38844C1232.09 2.509 1171.5 14.7633 1134.14 33.857C1095.21 53.751 1082.66 79.0435 1063.73 102.763C1039.32 133.36 997.685 164.609 922.65 179.154C862.65 190.784 791.549 189.758 724.526 187.147C645.328 184.067 566.616 179.17 488.979 172.486C431.862 167.573 374.985 161.672 316.58 160.005C258.175 158.338 197.074 161.225 147.031 172.773C117.415 179.606 92.8416 189.184 70.8193 199.34C-15.6574 239.217 -66.9546 289.901 -73.0468 341.496C-74.3352 352.387 -73.7635 363.527 -82.7311 373.882" opacity="0.19" stroke="#6C92ED" stroke-miterlimit="10" stroke-width="0.7658"/>
</g>
</svg>