<?xml version="1.0" encoding="utf-8"?>
<svg xmlns="http://www.w3.org/2000/svg" fill="none" height="374" viewBox="0 0 1440 374" width="1440">
<g opacity="0.05">
<path d="M1539.12 371.982C1513.19 355.466 1435.32 333.292 1415.62 315.499C1395.02 296.875 1364.55 279.247 1317.76 267.566C1226.74 244.845 1104.07 250.471 994.187 256.66C884.306 262.849 760.508 267.489 672.18 243.465C601.044 224.118 568.425 189.622 490.361 174.005C397.34 155.396 278.5 170.693 175.393 160.851C85.3501 152.254 21.2797 126.077 -29.9663 99.9044C-84.0281 72.2957 -82.6969 51.9715 -99.122 16.3137" opacity="0.17" stroke="black" stroke-miterlimit="10" stroke-width="3"/>
<path d="M-99.1134 16.4067C-82.5774 51.6099 -83.2089 71.6499 -29.0703 98.9486C-9.00191 109.013 12.9693 119.087 37.5343 128.149C76.3911 142.382 121.852 154.192 176.682 159.565C216.853 163.548 259.123 163.796 301.393 163.713C367.528 163.522 433.671 162.556 490.626 173.932C560.677 187.933 594.509 216.916 652.282 236.527C658.801 238.738 665.627 240.831 672.845 242.768C730.03 258.102 801.856 261.584 875.15 260.447C915.372 259.822 956.038 257.807 994.98 255.611C1010.65 254.728 1026.59 253.86 1042.66 253.08C1098.21 250.399 1155.35 248.844 1208.65 251.763C1237.58 253.349 1265.37 256.252 1291.19 260.974C1300.57 262.689 1309.68 264.642 1318.51 266.864C1365.2 278.612 1395.65 296.26 1416.26 314.91C1429.39 326.803 1467.82 340.612 1499.65 353.43C1515.79 359.929 1530.24 366.165 1538.96 371.76" opacity="0.1702" stroke="#010102" stroke-miterlimit="10" stroke-width="2.9779"/>
<path d="M-99.1132 16.4998C-82.4663 51.2431 -82.526 71.092 -28.1827 97.9929C-8.02897 107.969 14.0274 117.945 38.6095 126.878C77.6285 141.054 123.32 152.787 177.979 158.284C218.133 162.411 260.113 162.897 302.152 163.037C367.878 163.135 433.766 162.468 490.899 173.87C560.848 187.84 595.055 216.523 652.922 235.912C659.458 238.098 666.293 240.169 673.52 242.086C730.841 257.234 802.659 260.643 875.918 259.46C916.149 258.809 956.815 256.774 995.783 254.578C1011.47 253.695 1027.4 252.827 1043.48 252.052C1099.06 249.381 1156.24 247.872 1209.5 250.864C1238.44 252.496 1266.19 255.462 1291.98 260.23C1301.35 261.966 1310.45 263.934 1319.26 266.171C1365.85 277.982 1396.3 295.661 1416.9 314.337C1430.09 326.312 1468.24 340.194 1499.79 353.094C1515.78 359.625 1530.08 365.902 1538.81 371.538" opacity="0.1704" stroke="#020305" stroke-miterlimit="10" stroke-width="2.9558"/>
<path d="M-99.1139 16.5979C-82.3561 50.8814 -81.776 70.4979 -27.2876 97.0423C-7.03151 106.915 15.1188 116.788 39.7009 125.612C78.9247 139.69 124.821 151.299 179.284 157.008C219.446 161.218 261.11 162.06 302.911 162.365C368.21 162.84 433.867 162.386 491.18 173.808C561.027 187.747 595.609 216.131 653.561 235.298C660.106 237.457 666.957 239.503 674.184 241.399C731.651 256.366 803.451 259.693 876.677 258.468C916.916 257.792 957.582 255.741 996.567 253.54C1012.26 252.656 1028.21 251.788 1044.28 251.019C1099.9 248.358 1157.11 246.891 1210.35 249.965C1239.29 251.649 1267.01 254.671 1292.76 259.486C1302.11 261.238 1311.21 263.227 1320.01 265.479C1366.51 277.356 1396.94 295.056 1417.54 313.763C1430.79 325.821 1468.68 339.776 1499.93 352.758C1515.77 359.325 1529.92 365.643 1538.65 371.321" opacity="0.1706" stroke="#030407" stroke-miterlimit="10" stroke-width="2.9336"/>
<path d="M-99.1134 16.6907C-82.2532 50.5092 -81.016 69.8984 -26.3997 96.0863C-6.03263 105.856 16.203 115.625 40.7765 124.336C80.2051 138.316 126.297 149.862 180.573 155.721C220.726 160.061 262.083 161.171 303.654 161.683C368.534 162.478 433.944 162.298 491.436 173.741C561.189 187.649 596.13 215.733 654.185 234.683C660.746 236.821 667.606 238.841 674.842 240.712C732.445 255.498 804.237 258.747 877.428 257.476C917.668 256.768 958.342 254.702 997.352 252.501C1013.05 251.613 1029 250.75 1045.07 249.98C1100.71 247.33 1157.97 245.909 1211.18 249.06C1240.13 250.791 1267.81 253.875 1293.53 258.737C1302.87 260.509 1311.95 262.513 1320.74 264.781C1367.14 276.721 1397.56 294.451 1418.17 313.179C1431.48 325.315 1469.09 339.341 1500.05 352.412C1515.74 359.015 1529.74 365.38 1538.47 371.099" opacity="0.1708" stroke="#040609" stroke-miterlimit="10" stroke-width="2.9115"/>
<path d="M-99.1134 16.7839C-82.1423 50.1427 -80.2652 69.2942 -25.5123 95.1308C-5.03435 104.792 17.2866 114.458 41.8516 123.065C81.4849 136.952 127.765 148.426 181.861 154.44C222.015 158.904 263.065 160.293 304.404 161.006C368.867 162.117 434.038 162.21 491.709 173.679C561.36 187.556 596.676 215.34 654.825 234.068C661.403 236.181 668.272 238.175 675.516 240.025C733.255 254.63 805.039 257.802 878.196 256.485C918.444 255.751 959.118 253.669 998.154 251.463C1013.85 250.574 1029.81 249.712 1045.89 248.947C1101.56 246.307 1158.86 244.928 1212.03 248.157C1240.99 249.934 1268.64 253.08 1294.32 257.993C1303.65 259.781 1312.72 261.806 1321.49 264.089C1367.8 276.096 1398.21 293.852 1418.81 312.606C1432.18 324.824 1469.52 338.923 1500.19 352.077C1515.73 358.715 1529.58 365.122 1538.31 370.882" opacity="0.171" stroke="#05070C" stroke-miterlimit="10" stroke-width="2.8894"/>
<path d="M-99.1132 16.8818C-82.0312 49.7808 -79.5057 68.6946 -24.6248 94.18C-4.03593 103.738 18.3789 113.3 42.9268 121.794C82.765 135.583 129.241 146.995 183.15 153.158C223.295 157.751 264.037 159.41 305.147 160.324C369.192 161.755 434.115 162.117 491.974 173.607C561.522 187.452 597.213 214.937 655.456 233.443C662.043 235.53 668.929 237.503 676.182 239.327C734.066 253.746 805.841 256.841 878.964 255.482C919.221 254.723 959.895 252.62 998.957 250.414C1014.66 249.525 1030.63 248.663 1046.71 247.903C1102.41 245.279 1159.74 243.935 1212.88 247.247C1241.85 249.076 1269.47 252.279 1295.11 257.239C1304.43 259.047 1313.49 261.088 1322.25 263.381C1368.46 275.45 1398.86 293.232 1419.45 312.017C1432.89 324.318 1469.96 338.489 1500.34 351.725C1515.73 358.4 1529.44 364.847 1538.17 370.649" opacity="0.1712" stroke="#06090E" stroke-miterlimit="10" stroke-width="2.8673"/>
<path d="M-99.1135 16.9749C-81.9206 49.414 -78.7465 68.0954 -23.7291 93.2242C-3.02936 102.679 19.4708 112.133 44.0102 120.523C84.0616 134.214 130.717 145.564 184.446 151.877C224.591 156.594 265.018 158.526 305.897 159.647C369.516 161.394 434.2 162.029 492.238 173.545C561.684 187.359 597.751 214.544 656.079 232.833C662.683 234.894 669.569 236.852 676.83 238.645C734.808 252.956 806.617 255.901 879.706 254.495C919.971 253.71 960.645 251.592 999.733 249.381C1015.45 248.492 1031.41 247.629 1047.51 246.875C1103.23 244.261 1160.6 242.964 1213.71 246.353C1242.68 248.229 1270.27 251.494 1295.87 256.5C1305.18 258.329 1314.22 260.385 1322.98 262.694C1369.09 274.83 1399.47 292.638 1420.07 311.443C1433.57 323.827 1470.37 338.07 1500.45 351.389C1515.7 358.1 1529.25 364.589 1537.99 370.432" opacity="0.1714" stroke="#070A10" stroke-miterlimit="10" stroke-width="2.8452"/>
<path d="M-99.1135 17.073C-81.8181 49.0524 -77.9785 67.496 -22.8416 92.2736C-2.03093 101.625 20.5631 110.97 45.0854 119.257C85.3416 132.85 132.193 144.138 185.735 150.601C225.871 155.447 266 157.648 306.648 158.976C369.848 161.037 434.294 161.951 492.511 173.483C561.863 187.266 598.297 214.152 656.719 232.218C663.34 234.254 670.234 236.191 677.504 237.958C735.61 252.098 807.419 254.955 880.474 253.503C920.748 252.692 961.422 250.553 1000.53 248.342C1016.25 247.454 1032.22 246.591 1048.32 245.837C1104.07 243.233 1161.48 241.977 1214.56 245.444C1243.53 247.366 1271.09 250.693 1296.65 255.751C1305.95 257.595 1314.99 259.672 1323.73 261.997C1369.74 274.2 1400.11 292.028 1420.71 310.865C1434.27 323.331 1470.79 337.647 1500.59 351.048C1515.68 357.801 1529.09 364.331 1537.82 370.21" opacity="0.1716" stroke="#090C13" stroke-miterlimit="10" stroke-width="2.823"/>
<path d="M-99.1133 17.1663C-81.707 48.6858 -77.219 66.8919 -21.9542 91.3181C-1.03253 100.566 21.6469 109.808 46.1607 117.981C86.6302 131.481 133.67 142.707 187.023 149.315C227.151 154.29 266.973 156.76 307.391 158.294C370.164 160.67 434.371 161.859 492.767 173.416C562.017 187.168 598.826 213.754 657.342 231.599C663.972 233.608 670.883 235.525 678.161 237.271C736.404 251.236 808.204 254.005 881.225 252.512C921.507 251.675 962.181 249.515 1001.31 247.304C1017.05 246.416 1033.02 245.553 1049.12 244.804C1104.9 242.21 1162.35 241.001 1215.39 244.545C1244.38 246.514 1271.9 249.903 1297.42 255.007C1306.71 256.872 1315.73 258.964 1324.46 261.305C1370.38 273.57 1400.74 291.429 1421.33 310.292C1434.95 322.841 1471.21 337.229 1500.71 350.713C1515.67 357.501 1528.92 364.073 1537.66 369.993" opacity="0.1718" stroke="#0A0D15" stroke-miterlimit="10" stroke-width="2.8009"/>
<path d="M-99.1134 17.2593C-81.5963 48.3191 -76.4512 66.2874 -21.0669 90.3624C-0.0343515 99.5067 22.7389 108.641 47.2356 116.71C87.9185 130.112 135.137 141.276 188.312 148.034C228.44 153.138 267.945 155.876 308.133 157.617C370.488 160.309 434.448 161.771 493.032 173.354C562.179 187.075 599.364 213.362 657.973 230.989C664.62 232.978 671.54 234.864 678.827 236.589C737.206 250.383 808.998 253.065 881.985 251.525C922.267 250.657 962.949 248.487 1002.1 246.271C1017.84 245.382 1033.82 244.52 1049.93 243.776C1105.74 241.192 1163.23 240.025 1216.24 243.652C1245.24 245.672 1272.73 249.118 1298.22 254.268C1307.49 256.149 1316.5 258.262 1325.21 260.618C1371.04 272.95 1401.38 290.83 1421.97 309.718C1435.65 322.35 1471.64 336.81 1500.85 350.377C1515.66 357.202 1528.75 363.814 1537.5 369.782" opacity="0.172" stroke="#0B0E17" stroke-miterlimit="10" stroke-width="2.7788"/>
<path d="M-99.1139 17.3572C-81.4858 47.9572 -75.6837 65.6879 -20.1799 89.4115C0.963551 98.4474 23.8305 107.478 48.3102 115.439C89.2063 128.743 136.613 139.845 189.6 146.752C229.719 151.986 268.917 154.998 308.883 156.935C370.812 159.942 434.541 161.678 493.296 173.281C562.341 186.972 599.901 212.958 658.595 230.364C665.259 232.327 672.179 234.192 679.475 235.892C737.99 249.51 809.774 252.109 882.727 250.522C923.017 249.629 963.7 247.438 1002.88 245.222C1018.62 244.328 1034.6 243.47 1050.72 242.727C1106.56 240.154 1164.09 239.027 1217.07 242.732C1246.07 244.798 1273.53 248.306 1298.98 253.509C1308.25 255.41 1317.25 257.533 1325.95 259.91C1371.67 272.304 1402 290.215 1422.59 309.129C1436.34 321.843 1472.06 336.371 1500.97 350.025C1515.62 356.886 1528.58 363.54 1537.32 369.549" opacity="0.1722" stroke="#0C101A" stroke-miterlimit="10" stroke-width="2.7567"/>
<path d="M-99.1138 17.4502C-81.3833 47.5904 -74.9072 65.0834 -19.284 88.4558C1.97038 97.3883 24.9313 106.31 49.3939 114.168C90.5033 127.368 138.098 138.419 190.897 145.471C231.016 150.834 269.899 154.114 309.634 156.258C371.136 159.58 434.627 161.595 493.569 173.219C562.511 186.879 600.447 212.566 659.235 229.749C665.908 231.686 672.845 233.531 680.149 235.204C738.792 248.652 810.576 251.158 883.495 249.531C923.793 248.611 964.476 246.405 1003.68 244.178C1019.43 243.285 1035.42 242.427 1051.54 241.688C1107.41 239.131 1164.98 238.046 1217.92 241.828C1246.93 243.941 1274.37 247.511 1299.77 252.759C1309.03 254.681 1318.01 256.82 1326.7 259.212C1372.33 271.673 1402.65 289.606 1423.23 308.545C1437.04 321.337 1472.43 335.978 1501.11 349.679C1515.59 356.597 1528.41 363.277 1537.16 369.321" opacity="0.1724" stroke="#0D111C" stroke-miterlimit="10" stroke-width="2.7346"/>
<path d="M-99.1131 17.5483C-81.2717 47.2287 -74.1386 64.4841 -18.3959 87.5052C2.97791 96.3344 26.0241 105.148 50.4696 112.903C91.7924 126.004 139.574 136.998 192.186 144.195C232.305 149.687 270.872 153.231 310.377 155.587C371.453 159.224 434.713 161.512 493.834 173.157C562.683 186.786 600.985 212.173 659.868 229.139C666.557 231.051 673.502 232.874 680.815 234.522C739.603 247.795 811.379 250.218 884.263 248.544C924.57 247.598 965.253 245.372 1004.48 243.145C1020.24 242.251 1036.23 241.394 1052.35 240.66C1108.25 238.113 1165.86 237.069 1218.77 240.934C1247.78 243.098 1275.19 246.725 1300.55 252.021C1309.79 253.958 1318.78 256.118 1327.45 258.525C1372.99 271.048 1403.29 289.011 1423.87 307.977C1437.74 320.851 1472.86 335.57 1501.25 349.349C1515.58 356.302 1528.26 363.024 1537.01 369.11" opacity="0.1726" stroke="#0E131F" stroke-miterlimit="10" stroke-width="2.7124"/>
<path d="M-99.1133 17.6414C-81.161 46.8619 -73.3623 63.8745 -17.5087 86.5494C3.9761 95.2753 27.1161 103.975 51.5531 111.627C93.0892 124.63 141.05 135.567 193.482 142.909C233.593 148.529 271.853 152.342 311.137 154.905C371.785 158.857 434.806 161.419 494.107 173.09C562.853 186.688 601.522 211.775 660.507 228.519C667.214 230.405 674.168 232.203 681.489 233.83C740.405 246.932 812.181 249.267 885.031 247.547C925.347 246.575 966.03 244.333 1005.28 242.101C1021.04 241.208 1037.04 240.35 1053.17 239.616C1109.09 237.08 1166.75 236.083 1219.62 240.019C1248.64 242.231 1276.01 245.919 1301.34 251.266C1310.57 253.224 1319.54 255.4 1328.2 257.817C1373.64 270.408 1403.93 288.391 1424.51 307.388C1438.44 320.345 1473.29 335.136 1501.39 349.002C1515.57 355.998 1528.1 362.755 1536.85 368.888" opacity="0.1728" stroke="#0F1421" stroke-miterlimit="10" stroke-width="2.6903"/>
<path d="M-99.1139 17.7397C-81.0507 46.5005 -72.5865 63.2755 -16.622 85.5991C4.98221 94.2164 28.2076 102.813 52.6276 110.361C94.3855 123.267 142.526 134.147 194.77 141.633C234.881 147.383 272.825 151.464 311.878 154.228C372.101 158.49 434.882 161.337 494.371 173.028C563.015 186.595 602.059 211.383 661.13 227.905C667.845 229.765 674.816 231.542 682.137 233.143C741.19 246.069 812.957 248.322 885.773 246.555C926.097 245.558 966.78 243.295 1006.05 241.063C1021.82 240.169 1037.83 239.312 1053.96 238.583C1109.92 236.057 1167.61 235.101 1220.45 239.121C1249.48 241.378 1276.82 245.129 1302.11 250.523C1311.33 252.496 1320.28 254.692 1328.93 257.125C1374.27 269.778 1404.56 287.792 1425.14 306.81C1439.12 319.849 1473.69 334.713 1501.51 348.662C1515.54 355.693 1527.92 362.497 1536.67 368.666" opacity="0.173" stroke="#101623" stroke-miterlimit="10" stroke-width="2.6682"/>
<path d="M-99.1134 17.8325C-80.9478 46.1335 -71.801 62.6656 -15.7341 84.6431C5.9896 93.1571 29.3003 101.645 53.7032 109.085C95.6744 121.887 144.002 132.715 196.059 140.346C236.162 146.225 273.798 150.575 312.63 153.546C372.425 158.123 434.977 161.244 494.636 172.956C563.177 186.491 602.597 210.98 661.761 227.285C668.494 229.124 675.473 230.875 682.803 232.456C741.992 245.212 813.75 247.371 886.532 245.563C926.857 244.535 967.548 242.256 1006.85 240.025C1022.63 239.131 1038.63 238.273 1054.78 237.55C1110.76 235.034 1168.49 234.125 1221.3 238.222C1250.34 240.531 1277.64 244.338 1302.9 249.779C1312.12 251.773 1321.06 253.984 1329.69 256.433C1374.94 269.152 1405.27 287.162 1425.78 306.236C1439.88 319.338 1474.13 334.299 1501.66 348.326C1515.54 355.398 1527.77 362.239 1536.53 368.448" opacity="0.1732" stroke="#111726" stroke-miterlimit="10" stroke-width="2.6461"/>
<path d="M-99.113 17.9255C-80.8364 45.7667 -71.024 62.056 -14.8377 83.6873C7.00546 92.0929 30.4015 100.473 54.7873 107.814C96.9804 120.518 145.487 131.29 197.365 139.065C237.468 145.078 274.789 149.692 313.39 152.869C372.75 157.757 435.071 161.156 494.918 172.894C563.365 186.398 603.152 210.587 662.41 226.67C669.16 228.483 676.148 230.209 683.486 231.769C742.812 244.349 814.561 246.426 887.309 244.571C927.642 243.517 968.334 241.223 1007.66 238.986C1023.44 238.087 1039.46 237.235 1055.6 236.512C1111.6 234.006 1169.38 233.138 1222.16 237.318C1251.19 239.673 1278.47 243.543 1303.69 249.03C1312.88 251.044 1321.82 253.271 1330.44 255.735C1375.6 268.522 1405.92 286.557 1426.43 305.657C1440.58 318.842 1474.56 333.876 1501.8 347.985C1515.53 355.094 1527.61 361.975 1536.37 368.226" opacity="0.1734" stroke="#121928" stroke-miterlimit="10" stroke-width="2.624"/>
<path d="M-99.1134 18.0237C-80.7259 45.3999 -70.2395 61.4516 -13.9508 82.7367C8.00325 91.039 31.5017 99.305 55.862 106.548C98.2769 119.149 146.963 129.869 198.653 137.789C238.756 143.932 275.752 148.808 314.131 152.198C373.065 157.4 435.148 161.073 495.173 172.832C563.519 186.305 603.63 210.267 663.033 226.055C669.782 227.848 676.787 229.547 684.142 231.082C743.605 243.486 815.346 245.48 888.06 243.579C928.401 242.499 969.093 240.185 1008.44 237.948C1024.23 237.049 1040.25 236.196 1056.39 235.478C1112.43 232.988 1170.24 232.156 1222.98 236.413C1252.03 238.816 1279.27 242.747 1304.45 248.286C1313.64 250.316 1322.56 252.563 1331.18 255.043C1376.23 267.892 1406.55 285.953 1427.05 305.079C1441.27 318.346 1474.97 333.452 1501.92 347.644C1515.5 354.789 1527.43 361.712 1536.2 368.004" opacity="0.1736" stroke="#131A2A" stroke-miterlimit="10" stroke-width="2.6018"/>
<path d="M-99.1135 18.1167C-80.6151 45.0331 -69.4547 60.842 -13.0635 81.781C9.00997 89.9799 32.5938 98.1375 56.9369 105.272C99.5737 117.769 148.431 128.443 199.941 136.502C240.035 142.779 276.725 147.92 314.882 151.516C373.389 157.028 435.241 160.985 495.446 172.765C563.689 186.207 604.176 209.874 663.664 225.44C670.43 227.212 677.444 228.886 684.799 230.395C744.398 242.623 816.131 244.53 888.811 242.587C929.161 241.482 969.852 239.152 1009.22 236.909C1025.01 236.01 1041.04 235.158 1057.19 234.445C1113.26 231.965 1171.11 231.18 1223.82 235.514C1252.87 237.968 1280.08 241.957 1305.22 247.542C1314.4 249.593 1323.31 251.855 1331.91 254.351C1376.87 267.267 1407.18 285.349 1427.68 304.505C1441.96 317.855 1475.38 333.039 1502.06 347.308C1515.48 354.494 1527.27 361.458 1536.03 367.792" opacity="0.1738" stroke="#141B2D" stroke-miterlimit="10" stroke-width="2.5797"/>
<path d="M-99.1137 18.2151C-80.5044 44.6717 -68.6698 60.2377 -12.1763 80.8306C10.0167 88.921 33.6943 96.9701 58.0118 104.007C100.87 116.406 149.907 127.028 201.229 135.227C241.324 141.638 277.689 147.037 315.624 150.839C373.696 156.662 435.318 160.898 495.702 172.703C563.843 186.115 604.696 209.482 664.287 224.826C671.07 226.572 678.092 228.225 685.456 229.708C745.2 241.766 816.916 243.584 889.561 241.595C929.92 240.464 970.611 238.113 1010.01 235.871C1025.81 234.972 1041.84 234.12 1057.99 233.412C1114.08 230.943 1171.98 230.199 1224.66 234.616C1253.72 237.116 1280.89 241.167 1306 246.798C1315.16 248.864 1324.06 251.148 1332.65 253.659C1377.52 266.636 1407.82 284.75 1428.31 303.932C1442.65 317.359 1475.8 332.62 1502.18 346.972C1515.46 354.195 1527.1 361.2 1535.86 367.576" opacity="0.174" stroke="#151D2F" stroke-miterlimit="10" stroke-width="2.5576"/>
<path d="M-99.1134 18.3079C-80.4017 44.3047 -67.876 59.6227 -11.2801 79.8746C11.0408 87.8617 34.7952 95.7971 59.0957 102.73C102.176 115.026 151.392 125.596 202.527 133.94C242.621 140.48 278.67 146.148 316.375 150.157C374.012 156.289 435.412 160.805 495.976 172.63C564.014 186.011 605.243 209.084 664.927 224.2C671.719 225.921 678.758 227.548 686.13 229.01C746.011 240.893 817.718 242.628 890.33 240.593C930.697 239.436 971.388 237.07 1010.81 234.822C1026.62 233.923 1042.65 233.076 1058.81 232.363C1114.94 229.904 1172.87 229.206 1225.51 233.696C1254.58 236.243 1281.72 240.355 1306.78 246.038C1315.94 248.125 1324.81 250.435 1333.4 252.951C1378.12 266.047 1408.46 284.129 1428.95 303.338C1443.36 316.847 1476.23 332.181 1502.32 346.616C1515.44 353.874 1526.94 360.921 1535.71 367.338" opacity="0.1742" stroke="#161E31" stroke-miterlimit="10" stroke-width="2.5355"/>
<path d="M-99.1138 18.4006C-80.2912 43.9376 -67.0829 59.0129 -10.3931 78.9186C12.0473 86.7972 35.8955 94.6242 60.1704 101.459C103.473 113.652 152.867 124.175 203.815 132.658C243.9 139.333 279.634 145.259 317.126 149.48C374.336 155.917 435.497 160.722 496.248 172.568C564.192 185.918 605.788 208.696 665.567 223.59C672.376 225.285 679.423 226.892 686.804 228.328C746.821 240.035 818.528 241.683 891.097 239.606C931.464 238.418 972.164 236.036 1011.61 233.789C1027.43 232.89 1043.46 232.042 1059.63 231.335C1115.78 228.886 1173.75 228.23 1226.37 232.802C1255.44 235.395 1282.56 239.57 1307.58 245.299C1316.73 247.402 1325.6 249.732 1334.17 252.258C1378.8 265.422 1409.12 283.525 1429.61 302.764C1444.08 316.356 1476.67 331.762 1502.48 346.28C1515.45 353.58 1526.8 360.663 1535.57 367.12" opacity="0.1744" stroke="#182034" stroke-miterlimit="10" stroke-width="2.5134"/>
<path d="M-99.1135 18.4993C-80.1799 43.5765 -66.289 58.4037 -9.50542 77.9685C13.0544 85.7386 36.9965 93.4571 61.2458 100.189C104.77 112.278 154.335 122.755 205.103 131.378C245.189 138.187 280.607 144.376 317.869 148.804C374.644 155.551 435.574 160.634 496.504 172.501C564.346 185.82 606.317 208.299 666.181 222.971C673.007 224.645 680.064 226.226 687.444 227.641C747.598 239.172 819.297 240.738 891.84 238.614C932.215 237.4 972.915 234.998 1012.38 232.751C1028.2 231.847 1044.25 231.005 1060.42 230.302C1116.59 227.863 1174.62 227.187 1227.19 231.903C1256.28 234.512 1283.35 238.785 1308.34 244.556C1317.48 246.679 1326.33 249.025 1334.9 251.566C1379.42 264.797 1409.74 282.926 1430.22 302.186C1444.76 315.856 1477.07 331.339 1502.59 345.939C1515.42 353.275 1526.6 360.405 1535.38 366.899" opacity="0.1746" stroke="#192136" stroke-miterlimit="10" stroke-width="2.4912"/>
<path d="M-99.1134 18.592C-80.0689 43.2094 -65.4955 57.7887 -8.61805 77.0125C14.0698 84.6793 38.0973 92.2841 62.321 98.9176C106.075 110.898 155.811 121.339 206.392 130.096C246.477 137.04 281.571 143.487 318.611 148.127C374.951 155.184 435.659 160.546 496.769 172.439C564.508 185.727 606.846 207.911 666.813 222.356C673.647 224.004 680.721 225.559 688.11 226.954C748.4 238.309 820.09 239.792 892.599 237.622C932.983 236.382 973.683 233.965 1013.17 231.712C1029 230.808 1045.05 229.966 1061.23 229.263C1117.44 226.84 1175.5 226.2 1228.04 230.994C1257.13 233.649 1284.17 237.984 1309.12 243.806C1318.24 245.95 1327.08 248.311 1335.64 250.869C1380.07 264.167 1410.38 282.316 1430.85 301.607C1445.45 315.36 1477.49 330.915 1502.72 345.598C1515.39 352.97 1526.43 360.141 1535.22 366.682" opacity="0.1748" stroke="#1A2338" stroke-miterlimit="10" stroke-width="2.4691"/>
<path d="M-99.1131 18.6902C-79.9662 42.8478 -64.7016 57.1791 -7.7303 76.0567C15.077 83.615 39.1983 91.1062 63.4049 97.6467C107.39 109.524 157.296 119.919 207.689 128.815C247.766 135.893 282.545 142.599 319.371 147.445C375.275 154.807 435.754 160.453 497.042 172.372C564.679 185.624 607.393 207.513 667.453 221.741C674.305 223.363 681.387 224.898 688.784 226.267C749.22 237.447 820.893 238.842 893.367 236.63C933.76 235.365 974.46 232.926 1013.97 230.674C1029.81 229.77 1045.86 228.927 1062.05 228.23C1118.28 225.817 1176.39 225.218 1228.89 230.095C1257.99 232.797 1285 237.194 1309.91 243.062C1319.03 245.222 1327.86 247.598 1336.4 250.176C1380.73 263.542 1411.03 281.717 1431.5 301.033C1446.16 314.869 1477.93 330.502 1502.88 345.262C1515.4 352.676 1526.29 359.883 1535.08 366.465" opacity="0.175" stroke="#1B243B" stroke-miterlimit="10" stroke-width="2.447"/>
<path d="M-99.113 18.783C-79.8552 42.4808 -63.8995 56.5589 -6.83428 75.1008C16.101 82.5506 40.3076 89.9332 64.4887 96.3704C108.695 108.144 158.781 118.492 208.986 127.528C249.063 134.74 283.526 141.705 320.122 146.762C375.591 154.429 435.839 160.365 497.316 172.299C564.859 185.52 607.939 207.115 668.093 221.116C674.962 222.712 682.052 224.226 689.458 225.569C750.03 236.573 821.695 237.886 894.135 235.628C934.537 234.336 975.237 231.882 1014.78 229.625C1030.62 228.721 1046.68 227.878 1062.87 227.186C1119.13 224.784 1177.28 224.226 1229.74 229.186C1258.86 231.934 1285.83 236.393 1310.7 242.308C1319.8 244.488 1328.62 246.88 1337.15 249.474C1381.38 262.906 1411.67 281.102 1432.14 300.444C1446.87 314.362 1478.35 330.068 1503.01 344.911C1515.38 352.36 1526.13 359.609 1534.92 366.232" opacity="0.1751" stroke="#1C263D" stroke-miterlimit="10" stroke-width="2.4249"/>
<path d="M-99.1138 18.876C-79.7451 42.114 -63.1068 55.9442 -5.94776 74.145C17.107 81.4863 41.4075 88.7605 65.563 95.0995C110 106.765 160.256 117.077 210.274 126.247C250.351 133.594 284.489 140.816 320.863 146.086C375.898 154.057 435.924 160.278 497.571 172.238C565.011 185.427 608.467 206.723 668.707 220.501C675.584 222.077 682.691 223.559 690.097 224.882C750.806 235.711 822.462 236.94 894.868 234.636C935.278 233.319 975.978 230.844 1015.54 228.586C1031.4 227.682 1047.45 226.84 1063.65 226.148C1119.95 223.756 1178.13 223.239 1230.56 228.276C1259.68 231.071 1286.62 235.592 1311.46 241.554C1320.55 243.749 1329.35 246.162 1337.87 248.771C1382.01 262.271 1412.29 280.487 1432.76 299.861C1447.54 313.856 1478.75 329.639 1503.12 344.565C1515.34 352.05 1525.94 359.345 1534.73 366.005" opacity="0.1753" stroke="#1D273F" stroke-miterlimit="10" stroke-width="2.4027"/>
<path d="M-99.1131 18.9744C-79.6335 41.7526 -62.2955 55.3296 -5.05969 73.1947C18.123 80.4326 42.5089 87.588 66.6387 93.8288C111.306 105.386 161.725 115.662 211.563 124.966C251.631 132.452 285.454 139.928 321.615 145.409C376.214 153.686 436.01 160.19 497.844 172.171C565.183 185.329 609.014 206.33 669.347 219.886C676.241 221.436 683.357 222.898 690.772 224.195C751.617 234.848 823.264 235.995 895.637 233.644C936.047 232.296 976.755 229.811 1016.35 227.548C1032.2 226.644 1048.27 225.802 1064.47 225.115C1120.79 222.733 1179.02 222.258 1231.42 227.378C1260.55 230.224 1287.46 234.802 1312.25 240.815C1321.33 243.032 1330.13 245.46 1338.63 248.084C1382.67 261.646 1412.94 279.893 1433.4 299.292C1448.25 313.371 1479.19 329.226 1503.27 344.239C1515.34 351.767 1525.79 359.098 1534.58 365.798" opacity="0.1755" stroke="#1E2842" stroke-miterlimit="10" stroke-width="2.3806"/>
<path d="M-99.1133 19.0674C-79.5313 41.3858 -61.4936 54.7097 -4.17243 72.2389C19.1383 79.3684 43.6094 86.4101 67.7137 92.558C112.612 104.006 163.201 114.241 212.851 123.685C252.92 131.305 286.418 139.034 322.357 144.732C376.521 153.314 436.095 160.107 498.109 172.109C565.345 185.236 609.551 205.938 669.978 219.272C676.881 220.796 684.006 222.237 691.438 223.508C752.428 233.98 824.066 235.044 896.396 232.652C936.815 231.278 977.523 228.773 1017.13 226.51C1032.99 225.6 1049.07 224.764 1065.27 224.082C1121.62 221.715 1179.89 221.281 1232.26 226.479C1261.39 229.372 1288.27 234.011 1313.03 240.071C1322.1 242.308 1330.88 244.752 1339.38 247.387C1383.32 261.015 1413.58 279.283 1434.04 298.709C1448.95 312.87 1479.61 328.797 1503.41 343.893C1515.32 351.457 1525.62 358.829 1534.42 365.576" opacity="0.1757" stroke="#1F2A44" stroke-miterlimit="10" stroke-width="2.3585"/>
<path d="M-99.1128 19.1655C-79.4198 41.0241 -60.6911 54.0949 -3.27605 71.2883C20.1541 78.3093 44.7191 85.2425 68.7977 91.2922C113.926 102.632 164.686 112.83 214.149 122.414C254.217 130.174 287.391 138.156 323.117 144.061C376.846 152.947 436.189 160.025 498.382 172.052C565.516 185.148 610.089 205.555 670.619 218.662C677.539 220.16 684.672 221.576 692.112 222.831C753.239 233.128 824.869 234.109 897.165 231.671C937.591 230.271 978.3 227.744 1017.93 225.482C1033.8 224.572 1049.88 223.735 1066.09 223.059C1122.47 220.703 1180.78 220.31 1233.11 225.585C1262.25 228.525 1289.1 233.226 1313.82 239.332C1322.88 241.585 1331.65 244.049 1340.14 246.7C1383.98 260.395 1414.23 278.689 1434.68 298.14C1449.66 312.384 1480.04 328.384 1503.55 343.562C1515.32 351.162 1525.47 358.581 1534.27 365.364" opacity="0.1759" stroke="#202B46" stroke-miterlimit="10" stroke-width="2.3364"/>
<path d="M-99.1132 19.2583C-79.3093 40.6571 -59.8809 53.4747 -2.38905 70.3323C21.1691 77.2396 45.8279 84.0643 69.8724 90.0159C115.24 101.247 166.161 111.41 215.445 121.127C255.505 129.021 288.364 137.262 323.867 143.379C377.161 152.564 436.274 159.931 498.655 171.979C565.695 185.045 610.635 205.152 671.25 218.042C678.187 219.514 685.328 220.909 692.769 222.139C754.04 232.26 825.654 233.158 897.924 230.673C938.359 229.248 979.067 226.706 1018.73 224.433C1034.61 223.523 1050.69 222.686 1066.89 222.01C1123.3 219.664 1181.65 219.313 1233.95 224.67C1263.1 227.656 1289.91 232.42 1314.59 238.578C1323.63 240.851 1332.4 243.331 1340.87 245.997C1384.62 259.76 1414.86 278.074 1435.31 297.556C1450.34 311.877 1480.46 327.955 1503.67 343.216C1515.29 350.852 1525.29 358.312 1534.09 365.137" opacity="0.1761" stroke="#212D49" stroke-miterlimit="10" stroke-width="2.3143"/>
<path d="M-99.1134 19.3564C-79.1986 40.2903 -59.0704 52.8547 -1.50182 69.3817C22.1843 76.1805 46.9284 82.8916 70.9474 88.7501C116.545 99.8732 167.629 110.004 216.733 119.851C256.793 127.885 289.328 136.373 324.609 142.707C377.468 152.192 436.359 159.849 498.911 171.922C565.848 184.957 611.164 204.77 671.872 217.432C678.818 218.884 685.977 220.248 693.426 221.457C754.834 231.397 826.438 232.213 898.674 229.687C939.118 228.235 979.827 225.673 1019.51 223.399C1035.4 222.49 1051.48 221.653 1067.69 220.982C1124.13 218.646 1182.52 218.336 1234.79 223.776C1263.94 226.809 1290.72 231.634 1315.37 237.839C1324.4 240.128 1333.15 242.628 1341.6 245.31C1385.25 259.14 1415.49 277.48 1435.93 296.983C1451.03 311.387 1480.87 327.536 1503.8 342.88C1515.27 350.557 1525.12 358.054 1533.93 364.92" opacity="0.1763" stroke="#222E4B" stroke-miterlimit="10" stroke-width="2.2921"/>
<path d="M-99.1134 19.4495C-79.0877 39.9235 -58.2685 52.2348 -0.614553 68.426C23.1996 75.1163 48.0376 81.7137 72.0224 87.4741C117.85 98.4886 169.105 108.584 218.022 118.565C258.082 126.738 290.292 135.479 325.36 142.025C377.775 151.815 436.444 159.761 499.184 171.855C566.019 184.859 611.71 204.372 672.512 216.812C679.475 218.238 686.642 219.581 694.1 220.765C755.653 230.529 827.24 231.262 899.442 228.69C939.895 227.212 980.603 224.634 1020.31 222.356C1036.2 221.446 1052.29 220.61 1068.51 219.943C1124.98 217.618 1183.4 217.35 1235.64 222.867C1264.8 225.946 1291.54 230.834 1316.15 237.085C1325.18 239.394 1333.91 241.91 1342.35 244.607C1385.9 258.499 1416.13 276.865 1436.57 296.399C1451.73 310.885 1481.3 327.108 1503.93 342.534C1515.26 350.247 1524.96 357.785 1533.76 364.698" opacity="0.1765" stroke="#23304D" stroke-miterlimit="10" stroke-width="2.27"/>
<path d="M-99.1139 19.5425C-78.9858 39.5567 -57.4499 51.6097 0.272318 67.4702C24.223 74.0521 49.1378 80.5358 73.097 86.2032C119.164 97.1041 170.58 107.168 219.309 117.284C259.361 125.596 291.255 134.586 326.102 141.348C378.082 151.433 436.529 159.673 499.439 171.788C566.172 184.761 612.239 203.974 673.126 216.198C680.106 217.598 687.282 218.92 694.748 220.077C756.437 229.666 828.016 230.317 900.184 227.698C940.636 226.189 981.353 223.596 1021.08 221.317C1036.98 220.408 1053.08 219.571 1069.3 218.905C1125.79 216.59 1184.26 216.363 1236.47 221.963C1265.64 225.094 1292.35 230.038 1316.92 236.341C1325.93 238.671 1334.66 241.202 1343.09 243.915C1386.54 257.874 1416.76 276.261 1437.19 295.826C1452.41 310.395 1481.71 326.689 1504.05 342.198C1515.22 349.948 1524.78 357.532 1533.58 364.481" opacity="0.1767" stroke="#243150" stroke-miterlimit="10" stroke-width="2.2479"/>
<path d="M-99.1136 19.6409C-78.8746 39.1953 -56.639 50.9848 1.16848 66.5198C25.2471 72.988 50.2559 79.3581 74.1809 84.9377C120.487 95.7249 172.057 105.763 220.607 116.008C260.658 124.46 292.228 133.697 326.853 140.672C378.398 151.056 436.615 159.586 499.713 171.726C566.351 184.668 612.785 203.587 673.766 215.583C680.755 216.957 687.947 218.254 695.413 219.391C757.24 228.798 828.81 229.367 900.944 226.706C941.405 225.172 982.122 222.563 1021.87 220.279C1037.78 219.365 1053.88 218.533 1070.11 217.872C1126.63 215.573 1185.14 215.387 1237.31 221.064C1266.49 224.242 1293.16 229.248 1317.7 235.597C1326.7 237.943 1335.41 240.495 1343.83 243.223C1387.18 257.249 1417.39 275.662 1437.82 295.247C1453.11 309.899 1482.12 326.266 1504.19 341.858C1515.21 349.643 1524.62 357.269 1533.43 364.259" opacity="0.1769" stroke="#253352" stroke-miterlimit="10" stroke-width="2.2258"/>
<path d="M-99.1131 19.7339C-78.7631 38.8285 -55.8279 50.3597 2.05644 65.5641C26.2631 71.9238 51.3571 78.1802 75.2651 83.6616C121.801 94.3404 173.542 104.348 221.904 114.721C261.956 123.313 293.202 132.798 327.613 139.99C378.723 150.674 436.709 159.498 499.995 171.654C566.531 184.565 613.34 203.184 674.415 214.958C681.421 216.306 688.622 217.582 696.096 218.693C758.068 227.925 829.621 228.411 901.721 225.704C942.19 224.144 982.907 221.514 1022.69 219.23C1038.6 218.316 1054.7 217.484 1070.94 216.828C1127.49 214.539 1186.04 214.395 1238.17 220.15C1267.35 223.374 1294 228.442 1318.5 234.838C1327.49 237.204 1336.19 239.772 1344.6 242.515C1387.85 256.609 1418.05 275.042 1438.48 294.658C1453.83 309.387 1482.57 325.832 1504.34 341.506C1515.21 349.328 1524.47 356.995 1533.29 364.026" opacity="0.1771" stroke="#263454" stroke-miterlimit="10" stroke-width="2.2037"/>
<path d="M-99.1132 19.8318C-78.6524 38.4666 -55.0089 49.7343 2.94367 64.6132C27.2783 70.8593 52.4662 77.0072 76.34 82.3956C123.115 92.9607 175.01 102.937 223.192 113.445C263.235 122.176 294.166 131.909 328.355 139.318C379.021 150.296 436.794 159.415 500.25 171.597C566.684 184.477 613.869 202.796 675.038 214.353C682.06 215.681 689.27 216.926 696.753 218.021C758.861 227.073 830.415 227.481 902.471 224.727C942.949 223.141 983.666 220.496 1023.47 218.207C1039.38 217.293 1055.5 216.461 1071.74 215.805C1128.32 213.527 1186.91 213.423 1239.01 219.261C1268.2 222.531 1294.81 227.662 1319.27 234.109C1328.26 236.491 1336.94 239.079 1345.34 241.833C1388.5 255.988 1418.69 274.453 1439.11 294.09C1454.52 308.902 1482.99 325.418 1504.47 341.175C1515.19 349.039 1524.3 356.741 1533.11 363.814" opacity="0.1773" stroke="#283557" stroke-miterlimit="10" stroke-width="2.1815"/>
<path d="M-99.1136 19.9248C-78.5504 38.0998 -54.1901 49.1092 3.83069 63.6575C28.3018 69.7951 53.575 75.8241 77.4147 81.1196C124.429 91.5658 176.485 101.521 224.48 112.159C264.523 121.029 295.129 131.011 329.097 138.636C379.328 149.909 436.871 159.322 500.515 171.53C566.846 184.378 614.406 202.404 675.661 213.733C682.691 215.035 689.918 216.26 697.41 217.329C759.663 226.205 831.199 226.525 903.222 223.73C943.708 222.118 984.425 219.452 1024.25 217.164C1040.18 216.249 1056.29 215.417 1072.54 214.767C1129.14 212.499 1187.78 212.437 1239.85 218.357C1269.04 221.674 1295.62 226.866 1320.04 233.36C1329.01 235.762 1337.69 238.366 1346.07 241.135C1389.14 255.358 1419.31 273.843 1439.74 293.511C1455.2 308.406 1483.4 324.989 1504.6 340.834C1515.17 348.734 1524.13 356.483 1532.94 363.597" opacity="0.1775" stroke="#293759" stroke-miterlimit="10" stroke-width="2.1594"/>
<path d="M-99.1137 20.0178C-78.4395 37.7331 -53.3712 48.4789 4.71795 62.7018C29.3171 68.7257 54.6757 74.6411 78.4898 79.8487C125.743 90.1813 177.961 100.111 225.769 110.877C265.803 119.888 296.094 130.112 329.848 137.954C379.644 149.527 436.956 159.229 500.779 171.457C567.008 184.275 614.944 202.001 676.292 213.108C683.34 214.384 690.575 215.588 698.067 216.632C760.465 225.326 831.984 225.569 903.981 222.728C944.468 221.09 985.193 218.404 1025.04 216.115C1040.97 215.201 1057.09 214.369 1073.34 213.723C1129.98 211.465 1188.65 211.45 1240.68 217.448C1269.89 220.816 1296.43 226.065 1320.82 232.606C1329.78 235.029 1338.44 237.648 1346.82 240.433C1389.78 254.723 1419.94 273.234 1440.37 292.927C1455.9 307.905 1483.81 324.561 1504.73 340.488C1515.15 348.424 1523.96 356.215 1532.78 363.37" opacity="0.1777" stroke="#2A385C" stroke-miterlimit="10" stroke-width="2.1373"/>
<path d="M-99.1136 20.116C-78.3285 37.3714 -52.5519 47.8486 5.61397 61.7511C30.3496 67.6614 55.7934 73.4683 79.5734 78.5829C127.065 88.8019 179.437 98.7057 227.066 109.601C267.1 118.756 297.066 129.223 330.599 137.282C379.951 149.144 437.05 159.151 501.052 171.401C567.187 184.187 615.49 201.613 676.932 212.504C683.997 213.754 691.241 214.932 698.741 215.955C761.276 224.469 832.786 224.634 904.749 221.746C945.244 220.077 985.97 217.381 1025.84 215.087C1041.78 214.172 1057.91 213.346 1074.16 212.7C1130.83 210.453 1189.54 210.478 1241.54 216.554C1270.76 219.969 1297.27 225.28 1321.61 231.867C1330.56 234.305 1339.21 236.945 1347.58 239.746C1390.44 254.098 1420.6 272.634 1441.02 292.354C1456.62 307.414 1484.26 324.142 1504.88 340.153C1515.15 348.119 1523.81 355.951 1532.63 363.148" opacity="0.1779" stroke="#2B3A5E" stroke-miterlimit="10" stroke-width="2.1152"/>
<path d="M-99.1136 20.209C-78.2175 37.0046 -51.7328 47.2184 6.50134 60.7954C31.365 66.592 56.9027 72.2852 80.6486 77.3069C128.379 87.407 180.914 97.2953 228.354 108.315C268.38 117.609 298.03 128.319 331.341 136.6C380.258 148.757 437.127 159.058 501.308 171.328C567.341 184.084 616.019 201.215 677.555 211.879C684.628 213.103 691.89 214.26 699.398 215.257C762.078 223.591 833.571 223.673 905.5 220.744C946.004 219.049 986.729 216.332 1026.63 214.038C1042.57 213.118 1058.7 212.297 1074.96 211.651C1131.65 209.419 1190.41 209.481 1242.38 215.64C1271.6 219.101 1298.09 224.474 1322.39 231.113C1331.32 233.572 1339.97 236.227 1348.32 239.043C1391.08 253.462 1421.23 272.025 1441.66 291.77C1457.31 306.913 1484.68 323.713 1505.02 339.806C1515.13 347.819 1523.64 355.693 1532.47 362.926" opacity="0.1781" stroke="#2C3B60" stroke-miterlimit="10" stroke-width="2.0931"/>
<path d="M-99.1134 20.3071C-78.1149 36.643 -50.9135 46.5881 7.38895 59.8448C32.3891 65.5277 58.0121 71.1073 81.7239 76.0411C129.702 86.0224 182.381 95.89 229.643 107.039C269.669 116.478 298.995 127.43 332.092 135.929C380.574 148.38 437.221 158.976 501.581 171.271C567.512 183.996 616.565 200.828 678.187 211.269C685.277 212.473 692.547 213.599 700.055 214.575C762.871 222.733 834.357 222.733 906.251 219.757C946.763 218.037 987.489 215.304 1027.41 213.005C1043.36 212.085 1059.5 211.264 1075.77 210.623C1132.49 208.402 1191.28 208.505 1243.22 214.746C1272.44 218.254 1298.9 223.689 1323.16 230.374C1332.09 232.849 1340.72 235.525 1349.06 238.356C1391.73 252.842 1421.86 271.425 1442.29 291.202C1458 306.422 1485.1 323.3 1505.15 339.481C1515.11 347.525 1523.48 355.445 1532.3 362.719" opacity="0.1783" stroke="#2D3D63" stroke-miterlimit="10" stroke-width="2.0709"/>
<path d="M-99.1134 20.4004C-78.0041 36.2764 -50.0858 45.9529 8.27631 58.8893C33.4045 64.4586 59.1213 69.9245 82.7989 74.7653C131.016 84.6278 183.849 94.4799 230.931 105.753C270.949 115.336 299.959 126.526 332.835 135.247C380.872 147.987 437.298 158.883 501.846 171.205C567.674 183.898 617.103 200.43 678.818 210.649C685.926 211.827 693.204 212.933 700.721 213.883C763.682 221.86 835.15 221.783 907.011 218.76C947.531 217.014 988.257 214.26 1028.21 211.961C1044.16 211.042 1060.3 210.22 1076.58 209.585C1133.33 207.374 1192.16 207.524 1244.06 213.837C1273.29 217.396 1299.72 222.888 1323.94 229.62C1332.86 232.115 1341.47 234.807 1349.8 237.653C1392.38 252.202 1422.5 270.816 1442.92 290.613C1458.7 305.916 1485.52 322.866 1505.27 339.13C1515.09 347.215 1523.31 355.171 1532.14 362.492" opacity="0.1785" stroke="#2E3E65" stroke-miterlimit="10" stroke-width="2.0488"/>
<path d="M-99.1135 20.4934C-77.8932 35.9096 -49.2668 45.3175 9.17209 57.9336C34.4367 63.3892 60.239 68.7415 83.8825 73.4944C132.338 83.2381 185.334 93.0695 232.228 104.472C272.245 114.195 300.932 125.628 333.594 134.565C381.197 147.595 437.391 158.795 502.119 171.132C567.853 183.795 617.649 200.027 679.458 210.029C686.574 211.181 693.869 212.261 701.395 213.196C764.501 220.992 835.952 220.837 907.778 217.768C948.308 215.996 989.033 213.227 1029 210.923C1044.96 210.003 1061.11 209.182 1077.38 208.547C1134.15 206.346 1193.03 206.537 1244.9 212.933C1274.14 216.539 1300.53 222.093 1324.72 228.876C1333.63 231.392 1342.23 234.094 1350.55 236.961C1393.02 251.577 1423.13 270.217 1443.55 290.04C1459.39 305.425 1485.94 322.443 1505.41 338.794C1515.08 346.916 1523.15 354.913 1531.98 362.275" opacity="0.1787" stroke="#2F4067" stroke-miterlimit="10" stroke-width="2.0267"/>
<path d="M-99.1135 20.5913C-77.7823 35.5477 -48.4392 44.6818 10.0595 56.9827C35.4606 62.3247 61.3482 67.5633 84.9575 72.2284C133.661 81.8533 186.801 91.6692 233.516 103.195C273.525 113.063 301.896 124.734 334.336 133.893C381.504 147.212 437.477 158.712 502.383 171.075C568.015 183.707 618.186 199.64 680.089 209.419C687.222 210.546 694.526 211.605 702.06 212.514C765.303 220.129 836.754 219.892 908.538 216.781C949.067 214.978 989.801 212.194 1029.79 209.89C1045.77 208.97 1061.92 208.149 1078.19 207.518C1135 205.328 1193.91 205.56 1245.74 212.039C1274.99 215.691 1301.35 221.312 1325.49 228.137C1334.38 230.668 1342.98 233.391 1351.29 236.269C1393.67 250.946 1423.76 269.612 1444.18 289.466C1460.09 304.934 1486.36 322.024 1505.54 338.458C1515.07 346.6 1522.99 354.644 1531.82 362.042" opacity="0.1789" stroke="#30416A" stroke-miterlimit="10" stroke-width="2.0046"/>
<path d="M-99.1137 20.6843C-77.6716 35.1758 -47.6117 44.0463 10.9467 56.027C36.4844 61.2501 62.4573 66.3751 86.041 70.9524C134.983 80.4532 188.277 90.2588 234.822 101.909C274.822 111.921 302.877 123.829 335.095 133.211C381.828 146.819 437.571 158.619 502.656 171.003C568.186 183.604 618.732 199.237 680.72 208.794C687.862 209.895 695.175 210.933 702.717 211.817C766.105 219.251 837.539 218.936 909.288 215.779C949.826 213.95 990.56 211.145 1030.58 208.841C1046.55 207.921 1062.71 207.1 1078.99 206.475C1135.83 204.295 1194.78 204.574 1246.59 211.124C1275.84 214.823 1302.17 220.506 1326.28 227.378C1335.16 229.93 1343.74 232.668 1352.04 235.561C1394.33 250.306 1424.41 268.997 1444.82 288.872C1460.79 304.423 1486.79 321.585 1505.67 338.102C1515.04 346.295 1522.82 354.381 1531.66 361.82" opacity="0.1791" stroke="#31426C" stroke-miterlimit="10" stroke-width="1.9825"/>
<path d="M-99.1129 20.7827C-77.5684 34.8144 -46.7918 43.4111 11.8348 55.0766C37.5005 60.1861 63.5673 65.1974 87.1169 69.6869C136.307 79.0637 189.754 88.859 236.111 100.633C276.111 110.79 303.842 122.936 335.847 132.54C382.144 146.432 437.657 158.542 502.93 170.946C568.357 183.516 619.279 198.849 681.361 208.19C688.52 209.265 695.841 210.277 703.392 211.14C766.925 218.394 838.342 218.001 910.065 214.798C950.612 212.943 991.346 210.122 1031.39 207.813C1047.37 206.893 1063.53 206.072 1079.82 205.447C1136.68 203.282 1195.67 203.597 1247.45 210.231C1276.71 213.982 1303 219.721 1327.07 226.644C1335.95 229.212 1344.51 231.971 1352.8 234.879C1394.98 249.686 1425.06 268.403 1445.47 288.309C1461.49 303.942 1487.23 321.177 1505.82 337.776C1515.04 346.006 1522.66 354.133 1531.5 361.614" opacity="0.1793" stroke="#32446E" stroke-miterlimit="10" stroke-width="1.9603"/>
<path d="M-99.114 20.8755C-77.4586 34.4473 -45.9653 42.7651 12.7211 54.1206C38.5233 59.1112 64.6754 64.0089 88.1909 68.4106C137.628 77.6686 191.221 87.4484 237.398 99.3464C277.39 109.648 304.805 122.026 336.588 131.858C382.45 146.039 437.741 158.449 503.185 170.879C568.51 183.417 619.807 198.457 681.983 207.57C689.159 208.624 696.488 209.611 704.048 210.448C767.717 217.52 839.125 217.045 910.815 213.8C951.37 211.92 992.104 209.079 1032.17 206.769C1048.16 205.844 1064.33 205.028 1080.62 204.408C1137.51 202.254 1196.54 202.615 1248.28 209.326C1277.55 213.124 1303.81 218.925 1327.85 225.895C1336.71 228.483 1345.26 231.257 1353.54 234.182C1395.63 249.055 1425.69 267.799 1446.1 287.725C1462.19 303.436 1487.64 320.743 1505.96 337.43C1515.03 345.696 1522.5 353.864 1531.34 361.391" opacity="0.1795" stroke="#334571" stroke-miterlimit="10" stroke-width="1.9382"/>
<path d="M-99.114 20.9739C-77.3476 34.0859 -45.1375 42.1299 13.6171 53.1702C39.5558 58.0421 65.7931 62.8312 89.2745 67.1451C138.951 76.2739 192.697 86.0485 238.695 98.0705C278.678 108.522 305.778 121.133 337.339 131.181C382.766 145.647 437.826 158.361 503.458 170.812C568.689 183.32 620.353 198.059 682.623 206.95C689.807 207.978 697.154 208.939 704.722 209.755C768.536 216.647 839.928 216.095 911.583 212.804C952.147 210.897 992.881 208.04 1032.97 205.726C1048.96 204.801 1065.13 203.985 1081.43 203.37C1138.35 201.226 1197.42 201.629 1249.13 208.417C1278.4 212.261 1304.63 218.125 1328.63 225.141C1337.48 227.75 1346.02 230.54 1354.29 233.479C1396.28 248.42 1426.33 267.184 1446.74 287.141C1462.89 302.935 1488.07 320.314 1506.09 337.084C1515.02 345.386 1522.34 353.601 1531.18 361.164" opacity="0.1797" stroke="#344773" stroke-miterlimit="10" stroke-width="1.9161"/>
<path d="M-99.1136 21.0667C-77.2364 33.7189 -44.3011 41.4839 14.5047 52.2143C40.58 56.9724 66.9027 61.6427 90.3499 65.8739C140.273 74.8788 194.165 84.6431 239.984 96.7891C279.967 107.385 306.742 120.229 338.09 130.504C383.082 145.254 437.92 158.273 503.731 170.75C568.86 183.226 620.899 197.666 683.255 206.34C690.456 207.343 697.811 208.283 705.379 209.073C769.339 215.779 840.713 215.154 912.335 211.817C952.906 209.884 993.641 207.007 1033.75 204.687C1049.76 203.762 1065.93 202.946 1082.23 202.331C1139.18 200.198 1198.29 200.642 1249.96 207.513C1279.25 211.408 1305.44 217.329 1329.4 224.391C1338.24 227.016 1346.77 229.826 1355.03 232.781C1396.92 247.784 1426.96 266.579 1447.36 286.563C1463.58 302.439 1488.49 319.89 1506.21 336.743C1514.98 345.081 1522.16 353.337 1531.01 360.942" opacity="0.1799" stroke="#354875" stroke-miterlimit="10" stroke-width="1.894"/>
<path d="M-99.1131 21.1597C-77.1335 33.3521 -43.4729 40.8381 15.3927 51.2585C41.6044 55.8978 68.021 60.4545 91.4255 64.5979C141.596 73.4788 195.633 83.2327 241.273 95.5027C281.247 106.243 307.707 119.319 338.833 129.822C383.39 144.856 437.998 158.185 503.988 170.677C569.014 183.123 621.429 197.263 683.878 205.715C691.096 206.692 698.46 207.606 706.037 208.381C770.133 214.906 841.498 214.198 913.086 210.82C953.658 208.856 994.4 205.968 1034.54 203.644C1050.54 202.719 1066.73 201.903 1083.04 201.293C1140.02 199.17 1199.16 199.66 1250.8 206.609C1280.09 210.551 1306.25 216.533 1330.18 223.647C1339.01 226.293 1347.53 229.119 1355.77 232.089C1397.57 247.159 1427.59 265.975 1448 285.984C1464.27 301.943 1488.91 319.462 1506.35 336.402C1514.98 344.776 1522 353.074 1530.85 360.72" opacity="0.1801" stroke="#374A78" stroke-miterlimit="10" stroke-width="1.8719"/>
<path d="M-99.1134 21.2578C-77.0228 32.9905 -42.6455 40.1975 16.2798 50.3079C42.6281 54.8284 69.1299 59.2766 92.5004 63.3321C142.919 72.0838 197.1 81.8378 242.561 94.2266C282.527 105.117 308.679 118.42 339.575 129.151C383.697 144.469 438.074 158.103 504.252 170.621C569.176 183.035 621.966 196.876 684.509 205.106C691.736 206.056 699.117 206.95 706.702 207.699C770.943 214.043 842.292 213.258 913.845 209.833C954.426 207.844 995.168 204.935 1035.33 202.61C1051.35 201.686 1067.53 200.869 1083.85 200.265C1140.85 198.152 1200.04 198.684 1251.65 205.71C1280.95 209.698 1307.08 215.743 1330.96 222.904C1339.78 225.564 1348.29 228.411 1356.52 231.392C1398.23 246.524 1428.23 265.371 1448.64 285.405C1464.97 301.442 1489.33 319.033 1506.49 336.061C1514.96 344.477 1521.84 352.81 1530.68 360.498" opacity="0.1803" stroke="#384B7A" stroke-miterlimit="10" stroke-width="1.8497"/>
<path d="M-99.1133 21.3508C-76.9118 32.6237 -41.8178 39.5517 17.1672 49.347C43.652 53.7487 70.2392 58.0832 93.5755 62.0509C144.241 70.6735 198.568 80.4274 243.85 92.935C283.807 103.97 309.643 117.511 340.326 128.464C384.021 144.061 438.168 158.005 504.517 170.548C569.338 182.932 622.504 196.473 685.141 204.486C692.385 205.41 699.774 206.278 707.368 207.007C771.754 213.17 843.094 212.307 914.604 208.836C955.193 206.821 995.936 203.892 1036.12 201.567C1052.15 200.642 1068.33 199.826 1084.66 199.226C1141.69 197.129 1200.92 197.702 1252.5 204.806C1281.81 208.846 1307.9 214.947 1331.75 222.154C1340.55 224.836 1349.05 227.698 1357.27 230.694C1398.87 245.894 1428.87 264.766 1449.28 284.827C1465.67 300.951 1489.77 318.614 1506.62 335.72C1514.95 344.172 1521.67 352.552 1530.52 360.281" opacity="0.1805" stroke="#394D7C" stroke-miterlimit="10" stroke-width="1.8276"/>
<path d="M-99.1136 21.4492C-76.8012 32.2623 -40.9819 38.9061 18.0628 48.3966C44.6841 52.6743 71.3567 56.9003 94.6589 60.7854C145.572 69.2788 200.043 79.0276 245.146 91.6592C285.095 102.844 310.616 116.607 341.077 127.787C384.336 143.663 438.253 157.922 504.789 170.481C569.517 182.834 623.049 196.075 685.772 203.866C693.033 204.77 700.43 205.612 708.024 206.315C772.547 212.292 843.878 211.352 915.355 207.839C955.952 205.798 996.695 202.853 1036.9 200.523C1052.93 199.593 1069.13 198.782 1085.45 198.183C1142.52 196.096 1201.78 196.711 1253.33 203.897C1282.64 207.984 1308.7 214.147 1332.51 221.406C1341.3 224.108 1349.79 226.985 1357.99 229.997C1399.5 245.258 1429.49 264.157 1449.88 284.243C1466.34 300.45 1490.16 318.181 1506.73 335.374C1514.91 343.862 1521.48 352.283 1530.34 360.053" opacity="0.1807" stroke="#3A4E7F" stroke-miterlimit="10" stroke-width="1.8055"/>
<path d="M-99.1131 21.542C-76.6982 31.8953 -40.1537 38.255 18.9508 47.4406C45.7086 51.5995 72.475 55.7067 95.7345 59.5143C146.895 67.8785 201.512 77.6273 246.435 90.3777C286.376 101.713 311.589 115.703 341.82 127.11C384.653 143.27 438.33 157.834 505.046 170.419C569.671 182.741 623.579 195.682 686.395 203.251C693.665 204.129 701.08 204.946 708.682 205.627C773.35 211.424 844.664 210.406 916.106 206.847C956.713 204.78 997.455 201.815 1037.69 199.485C1053.73 198.555 1069.92 197.744 1086.25 197.15C1143.34 195.073 1202.65 195.734 1254.16 202.993C1283.48 207.126 1309.51 213.351 1333.28 220.656C1342.06 223.374 1350.55 226.267 1358.73 229.299C1400.15 244.628 1430.12 263.552 1450.51 283.664C1467.03 299.954 1490.58 317.757 1506.86 335.033C1514.89 343.557 1521.31 352.02 1530.17 359.831" opacity="0.1809" stroke="#3B5081" stroke-miterlimit="10" stroke-width="1.7834"/>
<path d="M-99.1132 21.635C-76.5875 31.5285 -39.3262 37.604 19.8379 46.4849C46.7323 50.5249 73.5841 54.5185 96.8095 58.2382C148.218 66.4681 202.979 76.2221 247.723 89.0913C287.655 100.576 312.553 114.794 342.57 126.428C384.968 142.867 438.424 157.741 505.319 170.347C569.841 182.637 624.125 195.279 687.035 202.631C694.322 203.483 701.745 204.279 709.356 204.935C774.169 210.546 845.466 209.456 916.883 205.85C957.497 203.757 998.24 200.776 1038.5 198.441C1054.54 197.511 1070.75 196.7 1087.08 196.111C1144.2 194.045 1203.55 194.747 1255.02 202.089C1284.35 206.273 1310.35 212.556 1334.09 219.907C1342.86 222.645 1351.32 225.554 1359.5 228.602C1400.81 243.992 1430.78 262.942 1451.17 283.086C1467.75 299.453 1491.03 317.328 1507.01 334.697C1514.89 343.258 1521.17 351.767 1530.03 359.614" opacity="0.1811" stroke="#3C5183" stroke-miterlimit="10" stroke-width="1.7613"/>
<path d="M-99.1139 21.7332C-76.4772 31.1668 -38.4907 36.9582 20.7247 45.5343C47.7556 49.4503 74.6926 53.3354 97.8924 56.9725C149.548 65.0732 204.455 74.8272 249.02 87.8153C288.943 99.4498 313.534 113.89 343.32 125.757C385.292 142.469 438.509 157.658 505.591 170.29C570.011 182.544 624.67 194.887 687.674 202.021C694.978 202.848 702.41 203.618 710.029 204.253C774.987 209.683 846.267 208.515 917.65 204.863C958.264 202.739 999.016 199.743 1039.3 197.408C1055.35 196.478 1071.56 195.667 1087.9 195.078C1145.05 193.022 1204.43 193.771 1255.88 201.19C1285.21 205.421 1311.18 211.765 1334.87 219.168C1343.63 221.922 1352.08 224.851 1360.25 227.915C1401.47 243.367 1431.42 262.348 1451.81 282.512C1468.45 298.962 1491.46 316.91 1507.16 334.361C1514.89 342.958 1521.02 351.508 1529.88 359.397" opacity="0.1813" stroke="#3D5286" stroke-miterlimit="10" stroke-width="1.7391"/>
<path d="M-99.1132 21.8262C-76.3656 30.8 -37.6623 36.3021 21.6213 44.5785C48.7887 48.3706 75.8195 52.1472 98.9767 55.6964C150.888 63.6628 205.923 73.422 250.317 86.5289C290.232 98.3132 314.516 112.98 344.081 125.069C385.625 142.061 438.612 157.565 505.865 170.218C570.191 182.441 625.226 194.484 688.306 201.396C695.619 202.197 703.067 202.946 710.687 203.561C775.781 208.805 847.053 207.56 918.401 203.866C959.025 201.717 999.776 198.705 1040.08 196.364C1056.14 195.434 1072.35 194.623 1088.69 194.04C1145.87 191.994 1205.3 192.784 1256.71 200.28C1286.06 204.558 1311.99 210.964 1335.65 218.414C1344.4 221.188 1352.84 224.133 1360.99 227.212C1402.12 242.732 1432.05 261.739 1452.44 281.929C1469.14 298.461 1491.89 316.481 1507.29 334.015C1514.87 342.648 1520.85 351.24 1529.71 359.175" opacity="0.1815" stroke="#3E5488" stroke-miterlimit="10" stroke-width="1.717"/>
<path d="M-99.1139 21.9243C-76.2639 30.4384 -36.8269 35.6563 22.508 43.6279C49.8204 47.296 76.9281 50.9589 100.051 54.4307C152.21 62.2628 207.39 72.0271 251.605 85.2528C291.511 97.1869 315.488 112.076 344.822 124.398C385.94 141.669 438.688 157.483 506.129 170.156C570.353 182.348 625.763 194.091 688.937 200.787C696.266 201.562 703.724 202.285 711.352 202.879C776.591 207.937 847.846 206.619 919.16 202.879C959.792 200.704 1000.54 197.671 1040.87 195.331C1056.93 194.401 1073.15 193.59 1089.49 193.011C1146.7 190.981 1206.17 191.813 1257.55 199.387C1286.9 203.716 1312.8 210.179 1336.42 217.675C1345.15 220.47 1353.58 223.431 1361.72 226.525C1402.75 242.107 1432.67 261.139 1453.06 281.355C1469.82 297.97 1492.3 316.057 1507.41 333.679C1514.84 342.348 1520.67 350.981 1529.53 358.958" opacity="0.1817" stroke="#3F558A" stroke-miterlimit="10" stroke-width="1.6949"/>
<path d="M-99.1132 22.0171C-76.1523 30.0662 -35.9985 35 23.3961 42.6719C50.845 46.2212 78.038 49.7704 101.127 53.1595C153.533 60.8521 208.858 70.6268 252.903 83.9713C292.792 96.0553 316.461 111.167 345.574 123.721C386.265 141.266 438.774 157.395 506.394 170.093C570.515 182.255 626.301 193.698 689.569 200.172C696.916 200.921 704.381 201.623 712.018 202.192C777.402 207.069 848.649 205.674 919.92 201.887C960.56 199.686 1001.31 196.638 1041.66 194.292C1057.73 193.357 1073.96 192.557 1090.31 191.973C1147.54 189.953 1207.06 190.826 1258.4 198.482C1287.75 202.858 1313.62 209.383 1337.2 216.926C1345.93 219.736 1354.34 222.717 1362.47 225.822C1403.4 241.471 1433.32 260.529 1453.7 280.771C1470.52 297.469 1492.73 315.628 1507.55 333.333C1514.84 342.038 1520.51 350.718 1529.38 358.73" opacity="0.1819" stroke="#40578D" stroke-miterlimit="10" stroke-width="1.6728"/>
<path d="M-99.1136 22.1101C-76.0418 29.6994 -35.1627 34.3387 24.283 41.7162C51.8685 45.1363 79.1553 48.577 102.202 51.8835C154.855 59.4418 210.317 69.2216 254.191 82.6849C294.071 94.9187 317.433 110.257 346.324 123.039C386.589 140.857 438.867 157.307 506.667 170.021C570.686 182.152 626.846 193.295 690.209 199.547C697.564 200.275 705.047 200.947 712.692 201.494C778.221 206.185 849.45 204.713 920.688 200.885C961.336 198.658 1002.09 195.589 1042.46 193.244C1058.54 192.309 1074.77 191.508 1091.12 190.929C1148.39 188.919 1207.93 189.839 1259.25 197.573C1288.61 201.995 1314.44 208.582 1337.99 216.177C1346.71 219.008 1355.12 222.004 1363.23 225.125C1404.07 240.836 1433.97 259.92 1454.36 280.192C1471.24 296.973 1493.17 315.199 1507.7 332.992C1514.84 341.733 1520.37 350.454 1529.24 358.508" opacity="0.1821" stroke="#41588F" stroke-miterlimit="10" stroke-width="1.6507"/>
<path d="M-99.1132 22.2085C-75.9304 29.338 -34.3347 33.688 25.1708 40.7658C52.8928 44.0619 80.265 47.389 103.277 50.618C156.187 58.0368 211.785 67.8321 255.479 81.4091C295.352 93.7979 318.415 109.354 347.067 122.367C386.914 140.465 438.945 157.225 506.923 169.965C570.84 182.064 627.376 192.908 690.823 198.942C698.195 199.645 705.687 200.291 713.332 200.818C778.998 205.323 850.219 203.778 921.422 199.903C962.079 197.651 1002.83 194.561 1043.23 192.216C1059.32 191.281 1075.55 190.48 1091.91 189.906C1149.2 187.907 1208.79 188.868 1260.07 196.68C1289.44 201.154 1315.24 207.797 1338.75 215.438C1347.45 218.285 1355.84 221.302 1363.95 224.438C1404.69 240.211 1434.57 259.326 1454.97 279.619C1471.92 296.477 1493.59 314.776 1507.82 332.651C1514.81 341.429 1520.19 350.191 1529.06 358.286" opacity="0.1823" stroke="#425A91" stroke-miterlimit="10" stroke-width="1.6285"/>
<path d="M-99.1133 22.3015C-75.8197 28.9712 -33.4986 33.0267 26.0666 39.8101C53.9251 42.9822 81.3912 46.1956 104.361 49.3419C157.518 56.6212 213.252 66.4269 256.776 80.1227C296.631 92.6613 319.396 108.434 347.818 121.68C387.238 140.052 439.038 157.126 507.196 169.892C571.019 181.961 627.922 192.5 691.463 198.317C698.852 198.994 706.352 199.619 714.006 200.12C779.817 204.439 851.021 202.822 922.19 198.901C962.847 196.618 1003.61 193.518 1044.03 191.167C1060.13 190.232 1076.36 189.431 1092.73 188.863C1150.05 186.874 1209.67 187.881 1260.92 195.77C1290.3 200.291 1316.07 206.997 1339.54 214.684C1348.23 217.551 1356.61 220.584 1364.71 223.735C1405.35 239.575 1435.22 258.716 1455.61 279.035C1472.62 295.981 1494.02 314.347 1507.96 332.31C1514.8 341.124 1520.03 349.927 1528.9 358.069" opacity="0.1825" stroke="#435B94" stroke-miterlimit="10" stroke-width="1.6064"/>
<path d="M-99.1137 22.3997C-75.7177 28.6095 -32.6713 32.3706 26.9536 38.8595C54.9486 41.9076 82.5 45.0074 105.435 48.0762C158.84 55.216 214.719 65.0371 258.064 78.8466C297.911 91.5402 320.368 107.53 348.568 121.009C387.57 139.654 439.123 157.044 507.468 169.83C571.189 181.868 628.468 192.107 692.103 197.702C699.5 198.353 707.017 198.953 714.68 199.433C780.636 203.566 851.822 201.872 922.966 197.909C963.632 195.6 1004.39 192.479 1044.84 190.129C1060.94 189.194 1077.18 188.393 1093.56 187.824C1150.9 185.851 1210.57 186.9 1261.79 194.866C1291.18 199.438 1316.91 206.201 1340.34 213.94C1349.03 216.828 1357.4 219.871 1365.48 223.043C1406.02 238.945 1435.88 258.112 1456.27 278.462C1473.34 295.49 1494.46 313.929 1508.11 331.975C1514.8 340.824 1519.88 349.674 1528.75 357.852" opacity="0.1827" stroke="#445D96" stroke-miterlimit="10" stroke-width="1.5843"/>
<path d="M-99.1132 22.4924C-75.6062 28.2425 -31.8347 31.7091 27.8414 37.9035C55.973 40.8225 83.6098 43.8189 106.511 46.805C160.172 53.8054 216.179 63.642 259.353 77.5652C299.183 90.4086 321.342 106.62 349.311 120.332C387.895 139.246 439.201 156.961 507.725 169.768C571.343 181.775 628.997 191.714 692.726 197.093C700.141 197.718 707.666 198.296 715.337 198.756C781.438 202.703 852.608 200.936 923.717 196.927C964.392 194.592 1005.15 191.456 1045.62 189.1C1061.72 188.165 1077.98 187.364 1094.35 186.801C1151.72 184.838 1211.43 185.928 1262.62 193.972C1292 198.591 1317.71 205.416 1341.11 213.201C1349.79 216.105 1358.14 219.168 1366.21 222.356C1406.66 238.325 1436.5 257.518 1456.89 277.888C1474.01 294.989 1494.87 313.5 1508.23 331.628C1514.77 340.514 1519.69 349.405 1528.58 357.625" opacity="0.1829" stroke="#465E99" stroke-miterlimit="10" stroke-width="1.5622"/>
<path d="M-99.1136 22.5854C-75.4957 27.8757 -31.0074 31.0478 28.7284 36.9478C56.9965 39.7427 84.7271 42.6203 107.586 45.529C161.494 52.3846 217.637 62.2368 260.641 76.2788C300.462 89.2772 322.322 105.706 350.053 119.65C388.219 138.837 439.286 156.868 507.989 169.701C571.505 181.676 629.534 191.312 693.348 196.473C700.78 197.072 708.314 197.625 715.985 198.064C782.223 201.825 853.384 199.986 924.459 195.93C965.142 193.569 1005.9 190.413 1046.4 188.057C1062.51 187.116 1078.76 186.321 1095.14 185.763C1152.55 183.81 1212.29 184.947 1263.45 193.068C1292.84 197.738 1318.51 204.62 1341.87 212.452C1350.53 215.376 1358.88 218.455 1366.94 221.658C1407.29 237.689 1437.12 256.913 1457.51 277.31C1474.69 294.503 1495.28 313.081 1508.34 331.298C1514.74 340.22 1519.51 349.152 1528.4 357.413" opacity="0.1831" stroke="#475F9B" stroke-miterlimit="10" stroke-width="1.5401"/>
<path d="M-99.1133 22.6836C-75.3845 27.5141 -30.1794 30.3865 29.6162 35.9971C58.0208 38.663 85.8367 41.4321 108.67 44.2632C162.834 50.9742 219.105 60.847 261.938 75.0027C301.742 88.1561 323.312 104.797 350.813 118.978C388.56 138.44 439.38 156.785 508.262 169.639C571.684 181.583 630.081 190.919 693.989 195.858C701.429 196.431 708.98 196.963 716.66 197.377C783.042 200.952 854.186 199.035 925.228 194.938C965.919 192.551 1006.68 189.379 1047.2 187.018C1063.32 186.078 1079.58 185.282 1095.96 184.724C1153.39 182.782 1213.18 183.96 1264.3 192.164C1293.7 196.881 1319.34 203.824 1342.66 211.708C1351.31 214.648 1359.65 217.747 1367.7 220.966C1407.96 237.059 1437.77 256.309 1458.16 276.736C1475.4 294.012 1495.73 312.657 1508.5 330.962C1514.74 339.92 1519.37 348.899 1528.25 357.196" opacity="0.1833" stroke="#48619D" stroke-miterlimit="10" stroke-width="1.5179"/>
<path d="M-99.1135 22.7766C-75.2823 27.1473 -29.3435 29.7201 30.5118 35.0414C59.0615 37.578 86.9627 40.2387 109.753 42.9872C164.164 49.5535 220.581 59.447 263.235 73.7163C303.022 87.0247 324.293 103.882 351.563 118.291C388.893 138.021 439.465 156.692 508.535 169.567C571.855 181.48 630.626 190.516 694.628 195.238C702.086 195.786 709.646 196.292 717.333 196.684C783.861 200.074 854.996 198.085 925.995 193.941C966.695 191.528 1007.45 188.336 1048 185.975C1064.13 185.034 1080.39 184.239 1096.78 183.686C1154.24 181.754 1214.07 182.978 1265.15 191.255C1294.56 196.018 1320.17 203.029 1343.45 210.954C1352.1 213.914 1360.42 217.029 1368.46 220.258C1408.62 236.418 1438.42 255.694 1458.81 276.142C1476.11 293.501 1496.17 312.218 1508.64 330.605C1514.74 339.6 1519.22 348.62 1528.11 356.964" opacity="0.1835" stroke="#4962A0" stroke-miterlimit="10" stroke-width="1.4958"/>
<path d="M-99.1132 22.8748C-75.171 26.7856 -28.5155 29.0588 31.3996 34.0908C60.0857 36.4983 88.0722 39.0504 110.828 41.7214C165.496 48.1431 222.041 58.0572 264.524 72.4402C304.302 85.9036 325.275 102.973 352.306 117.619C389.226 137.623 439.551 156.609 508.792 169.505C572.009 181.387 631.156 190.118 695.243 194.623C702.718 195.15 710.286 195.625 717.982 195.997C784.646 199.2 855.773 197.139 926.738 192.949C967.438 190.506 1008.21 187.297 1048.78 184.936C1064.91 183.996 1081.18 183.2 1097.58 182.653C1155.07 180.731 1214.93 182.002 1265.98 190.356C1295.4 195.171 1320.97 202.238 1344.21 210.21C1352.84 213.191 1361.16 216.322 1369.18 219.566C1409.25 235.788 1439.04 255.095 1459.42 275.569C1476.78 293.005 1496.58 311.795 1508.76 330.269C1514.71 339.3 1519.03 348.362 1527.92 356.747" opacity="0.1837" stroke="#4A64A2" stroke-miterlimit="10" stroke-width="1.4737"/>
<path d="M-99.1132 22.9678C-75.0602 26.4189 -27.6878 28.3924 32.2869 33.135C61.1096 35.4134 89.1814 37.8519 111.903 40.4505C166.818 46.7224 223.5 56.6624 265.812 71.159C305.574 84.7773 326.256 102.064 353.057 116.943C389.559 137.215 439.636 156.522 509.065 169.443C572.179 181.294 631.702 189.725 695.883 194.008C703.366 194.509 710.951 194.964 718.648 195.31C785.457 198.327 856.567 196.189 927.497 191.957C968.206 189.488 1008.97 186.264 1049.56 183.893C1065.7 182.952 1081.98 182.157 1098.38 181.609C1155.89 179.703 1215.8 181.01 1266.83 189.447C1296.25 194.308 1321.8 201.437 1345 209.461C1353.62 212.457 1361.92 215.609 1369.93 218.869C1409.91 235.153 1439.68 254.485 1460.06 274.99C1477.48 292.509 1497.01 311.371 1508.9 329.934C1514.71 339 1518.87 348.103 1527.77 356.53" opacity="0.1839" stroke="#4B65A4" stroke-miterlimit="10" stroke-width="1.4516"/>
<path d="M-99.1136 23.0659C-74.9497 26.0572 -26.8607 27.7311 33.1738 32.1844C62.133 34.3336 90.2987 36.6636 112.978 39.1796C168.141 45.3017 224.958 55.2674 267.1 69.8777C306.844 83.6511 327.246 101.149 353.799 116.266C389.891 136.807 439.721 156.434 509.329 169.381C572.341 181.201 632.247 189.333 696.514 193.399C704.014 193.874 711.608 194.303 719.313 194.628C786.267 197.459 857.36 195.248 928.256 190.971C968.973 188.475 1009.74 185.231 1050.36 182.859C1066.5 181.919 1082.78 181.124 1099.18 180.581C1156.72 178.685 1216.67 180.039 1267.66 188.548C1297.09 193.461 1322.61 200.647 1345.77 208.717C1354.38 211.734 1362.66 214.896 1370.66 218.176C1410.55 234.522 1440.3 253.886 1460.68 274.411C1478.17 292.013 1497.42 310.942 1509.02 329.593C1514.68 338.696 1518.69 347.845 1527.59 356.308" opacity="0.1841" stroke="#4C67A7" stroke-miterlimit="10" stroke-width="1.4295"/>
<path d="M-99.1131 23.1589C-74.8467 25.6904 -26.0239 27.0595 34.0703 31.2287C63.166 33.2487 91.4171 35.4651 114.062 37.9087C169.481 43.881 226.418 53.8726 268.398 68.5965C308.125 82.5249 328.236 100.235 354.559 115.589C390.241 136.399 439.815 156.351 509.602 169.313C572.521 181.103 632.794 188.93 697.155 192.779C704.672 193.228 712.274 193.636 719.987 193.936C787.087 196.576 858.162 194.298 929.033 189.974C969.759 187.452 1010.53 184.192 1051.17 181.816C1067.32 180.87 1083.6 180.08 1100.01 179.543C1157.58 177.657 1217.57 179.057 1268.52 187.644C1297.96 192.603 1323.45 199.851 1346.57 207.968C1355.17 211 1363.45 214.183 1371.43 217.479C1411.22 233.892 1440.96 253.281 1461.34 273.833C1478.87 291.512 1497.87 310.514 1509.16 329.247C1514.68 338.386 1518.54 347.577 1527.44 356.08" opacity="0.1843" stroke="#4D68A9" stroke-miterlimit="10" stroke-width="1.4073"/>
<path d="M-99.1131 23.252C-74.7358 25.3236 -25.1963 26.3879 34.9577 30.2729C64.1899 32.1586 92.5348 34.2717 115.137 36.6327C170.803 42.4551 227.877 52.4777 269.686 67.3101C309.396 81.3986 329.217 99.3153 355.301 114.902C390.574 135.986 439.892 156.253 509.867 169.241C572.683 181 633.332 188.527 697.777 192.154C705.303 192.577 712.923 192.96 720.644 193.244C787.88 195.698 858.947 193.347 929.784 188.976C970.518 186.429 1011.29 183.149 1051.95 180.772C1068.11 179.827 1084.4 179.036 1100.81 178.504C1158.41 176.629 1218.44 178.076 1269.36 186.739C1298.8 191.751 1324.26 199.056 1347.34 207.219C1355.92 210.272 1364.19 213.47 1372.17 216.781C1411.86 233.257 1441.58 252.672 1461.96 273.249C1479.57 291.016 1498.29 310.085 1509.3 328.906C1514.67 338.081 1518.38 347.313 1527.28 355.863" opacity="0.1845" stroke="#4E6AAB" stroke-miterlimit="10" stroke-width="1.3852"/>
<path d="M-99.1135 23.3501C-74.6253 24.9568 -24.3691 25.7214 35.8446 29.3223C65.2133 31.0789 93.6436 33.0782 116.212 35.3669C172.134 41.0343 229.336 51.0879 270.983 66.034C310.676 80.2775 330.215 98.4112 356.051 114.23C390.924 135.583 439.985 156.17 510.131 169.179C572.844 180.907 633.869 188.129 698.408 191.544C705.951 191.942 713.579 192.298 721.301 192.562C788.682 194.83 859.732 192.402 930.534 187.99C971.277 185.417 1012.05 182.121 1052.74 179.739C1068.9 178.794 1085.19 178.003 1101.61 177.471C1159.24 175.606 1219.31 177.094 1270.2 185.835C1299.64 190.893 1325.07 198.26 1348.11 206.475C1356.69 209.549 1364.95 212.762 1372.91 216.089C1412.51 232.626 1442.21 252.072 1462.59 272.676C1480.26 290.525 1498.72 309.666 1509.43 328.57C1514.65 337.781 1518.21 347.055 1527.11 355.646" opacity="0.1847" stroke="#4F6BAE" stroke-miterlimit="10" stroke-width="1.3631"/>
<path d="M-99.1135 23.4431C-74.5143 24.59 -23.5413 25.0498 36.7321 28.3666C66.2374 29.9888 94.7529 31.8797 117.287 34.096C173.456 39.6085 230.795 49.6931 272.271 64.7528C311.939 79.1513 331.205 97.4968 356.802 113.554C391.265 135.175 440.071 156.083 510.404 169.117C573.015 180.814 634.415 187.737 699.048 190.929C706.608 191.301 714.236 191.637 721.975 191.875C789.501 193.952 860.534 191.456 931.302 186.998C972.045 184.394 1012.82 181.082 1053.53 178.701C1069.7 177.755 1086 176.965 1102.42 176.438C1160.08 174.583 1220.19 176.118 1271.04 184.936C1300.49 190.046 1325.89 197.47 1348.9 205.731C1357.47 208.82 1365.71 212.054 1373.66 215.392C1413.16 231.991 1442.85 251.468 1463.23 272.097C1480.96 290.029 1499.16 309.237 1509.57 328.229C1514.63 337.476 1518.05 346.796 1526.95 355.424" opacity="0.1849" stroke="#506CB0" stroke-miterlimit="10" stroke-width="1.341"/>
<path d="M-99.1133 23.5413C-74.4032 24.2284 -22.7135 24.3834 37.6196 27.416C67.2615 28.9039 95.8708 30.6914 118.362 32.8251C174.788 38.1825 232.245 48.3033 273.56 63.4716C313.21 78.0302 332.186 96.5824 357.545 112.877C391.606 134.766 440.148 156 510.66 169.055C573.178 180.721 634.944 187.339 699.671 190.314C707.24 190.661 714.885 190.971 722.632 191.188C790.295 193.078 861.328 190.511 932.053 186.006C972.804 183.376 1013.58 180.044 1054.32 177.662C1070.49 176.717 1086.8 175.926 1103.22 175.405C1160.91 173.565 1221.06 175.141 1271.88 184.037C1301.35 189.193 1326.71 196.679 1349.68 204.987C1358.22 208.097 1366.46 211.346 1374.39 214.699C1413.8 231.366 1443.47 250.863 1463.86 271.518C1481.64 289.533 1499.57 308.814 1509.69 327.888C1514.62 337.172 1517.88 346.533 1526.78 355.202" opacity="0.185" stroke="#516EB2" stroke-miterlimit="10" stroke-width="1.3188"/>
<path d="M-99.1134 23.6343C-74.301 23.8616 -21.8946 23.7066 38.5153 26.4602C68.2851 27.8138 96.9885 29.4929 119.446 31.5542C176.119 36.7567 233.713 46.9084 274.856 62.1904C314.49 76.9091 333.184 95.668 358.295 112.2C391.956 134.358 440.241 155.912 510.933 168.988C573.348 180.623 635.49 186.941 700.303 189.7C707.888 190.02 715.542 190.309 723.298 190.5C791.105 192.2 862.121 189.56 932.813 185.014C973.572 182.358 1014.35 179.011 1055.11 176.624C1071.29 175.678 1087.6 174.888 1104.03 174.366C1161.75 172.537 1221.9 174.216 1272.73 183.128C1302.18 188.372 1327.53 195.879 1350.46 204.238C1359 207.363 1367.23 210.634 1375.14 214.002C1414.45 230.73 1444.04 250.285 1464.5 270.94C1482.28 289.058 1500 308.39 1509.83 327.547C1514.61 336.867 1517.71 346.27 1526.62 354.985" opacity="0.1852" stroke="#526FB5" stroke-miterlimit="10" stroke-width="1.2967"/>
<path d="M-99.1133 23.7272C-74.1899 23.4948 -21.0667 23.035 39.4029 25.5044C69.3092 26.7237 98.0978 28.2942 120.53 30.2781C177.458 35.3204 235.172 45.5135 276.153 60.9039C315.761 75.7777 334.191 94.7483 359.055 111.513C392.315 133.94 440.335 155.814 511.206 168.916C573.519 180.519 636.036 186.533 700.943 189.075C708.545 189.374 716.207 189.633 723.963 189.803C791.916 191.317 862.915 188.604 933.572 184.012C974.34 181.33 1015.12 177.962 1055.9 175.575C1072.1 174.63 1088.4 173.839 1104.84 173.323C1162.59 171.504 1222.78 173.23 1273.57 182.219C1303.04 187.509 1328.34 195.078 1351.24 203.483C1359.77 206.63 1367.98 209.91 1375.89 213.299C1415.1 230.09 1444.68 249.67 1465.13 270.356C1482.97 288.557 1500.43 307.956 1509.96 327.201C1514.59 336.557 1517.54 346.001 1526.45 354.758" opacity="0.1854" stroke="#5371B7" stroke-miterlimit="10" stroke-width="1.2746"/>
<path d="M-99.1131 23.8253C-74.0788 23.133 -20.2389 22.3632 40.2905 24.5537C70.3334 25.6386 99.2157 27.1007 121.605 29.0122C178.781 33.8996 236.623 44.1237 277.442 59.6277C317.033 74.6616 335.181 93.8389 359.798 110.841C392.656 133.537 440.421 155.736 511.471 168.854C573.681 180.426 636.574 186.14 701.574 188.46C709.185 188.733 716.865 188.966 724.629 189.116C792.718 190.438 863.708 187.659 934.332 183.02C975.108 180.312 1015.89 176.928 1056.7 174.536C1072.89 173.586 1089.21 172.801 1105.66 172.289C1163.43 170.481 1223.66 172.248 1274.42 181.32C1303.88 186.657 1329.16 194.287 1352.02 202.739C1360.55 205.906 1368.74 209.202 1376.64 212.607C1415.76 229.459 1445.32 249.071 1465.77 269.777C1483.67 288.061 1500.86 307.532 1510.1 326.86C1514.59 336.252 1517.39 345.742 1526.31 354.535" opacity="0.1856" stroke="#5472B9" stroke-miterlimit="10" stroke-width="1.2525"/>
<path d="M-99.113 23.9185C-73.9678 22.7664 -19.4197 21.6866 41.1779 23.5981C71.3573 24.5487 100.325 25.9023 122.68 27.7415C180.104 32.4687 238.082 42.7341 278.731 58.3467C318.296 73.5407 336.171 92.9247 360.54 110.165C392.997 133.129 440.498 155.649 511.735 168.792C573.843 180.333 637.112 185.742 702.206 187.85C709.834 188.098 717.522 188.31 725.295 188.439C793.529 189.571 864.502 186.719 935.1 182.038C975.885 179.305 1016.66 175.901 1057.49 173.509C1073.69 172.558 1090.02 171.778 1106.47 171.261C1164.26 169.463 1224.54 171.277 1275.26 180.421C1304.74 185.804 1329.98 193.497 1352.81 202.001C1361.31 205.183 1369.51 208.5 1377.39 211.92C1416.42 228.84 1445.96 248.472 1466.41 269.209C1484.37 287.575 1501.3 307.114 1510.24 326.529C1514.58 335.958 1517.23 345.489 1526.14 354.324" opacity="0.1858" stroke="#5674BC" stroke-miterlimit="10" stroke-width="1.2304"/>
<path d="M-99.1136 24.0167C-73.866 22.4048 -18.5927 21.0099 42.0647 22.6425C72.372 23.4588 101.434 24.6987 123.755 26.4656C181.434 31.0274 239.532 41.3393 280.018 57.0604C319.558 72.4146 337.169 92.0052 361.29 109.483C393.355 132.716 440.582 155.556 511.999 168.725C574.013 180.235 637.649 185.34 702.828 187.23C710.473 187.453 718.17 187.639 725.943 187.747C794.322 188.692 865.278 185.768 935.842 181.041C976.627 178.277 1017.41 174.862 1058.27 172.465C1074.48 171.515 1090.81 170.734 1107.26 170.223C1165.09 168.435 1225.4 170.29 1276.09 179.517C1305.57 184.952 1330.78 192.701 1353.57 201.252C1362.06 204.455 1370.24 207.787 1378.11 211.223C1417.05 228.204 1446.58 247.867 1467.03 268.631C1485.06 287.079 1501.72 306.691 1510.36 326.188C1514.56 335.653 1517.05 345.226 1525.96 354.102" opacity="0.186" stroke="#5775BE" stroke-miterlimit="10" stroke-width="1.2082"/>
<path d="M-99.1134 24.1097C-73.7549 22.038 -17.7733 20.3331 42.9608 21.6867C73.4047 22.3686 102.56 23.5 124.838 25.1946C182.765 29.5963 240.991 39.9495 281.316 55.7791C320.838 71.2935 338.167 91.0907 362.041 108.801C393.705 132.297 440.677 155.463 512.273 168.652C574.184 180.132 638.195 184.936 703.468 186.605C711.122 186.802 718.835 186.962 726.617 187.049C795.133 187.804 866.08 184.812 936.61 180.039C977.403 177.249 1018.19 173.813 1059.07 171.416C1075.29 170.466 1091.62 169.686 1108.08 169.179C1165.94 167.407 1226.29 169.298 1276.94 178.608C1306.43 184.089 1331.61 191.901 1354.36 200.497C1362.85 203.716 1371.02 207.059 1378.87 210.52C1417.76 227.517 1447.24 247.252 1467.68 268.042C1485.77 286.573 1502.16 306.251 1510.5 325.837C1514.55 335.338 1516.89 344.957 1525.81 353.874" opacity="0.1862" stroke="#5877C0" stroke-miterlimit="10" stroke-width="1.1861"/>
<path d="M-99.1131 24.2026C-73.6437 21.6711 -16.954 19.6511 43.8484 20.7309C74.4288 21.2733 103.67 22.3014 125.914 23.9185C184.088 28.1548 242.442 38.5546 282.604 54.4926C322.101 70.1672 339.166 90.1711 362.784 108.119C394.055 131.884 440.754 155.375 512.529 168.585C574.338 180.034 638.733 184.456 704.091 185.99C711.762 186.151 719.484 186.3 727.274 186.362C795.935 186.925 866.866 183.862 937.361 179.047C978.163 176.231 1018.95 172.78 1059.85 170.378C1076.07 169.427 1092.41 168.647 1108.88 168.141C1166.76 166.379 1227.16 168.316 1277.79 177.704C1307.29 183.232 1332.43 191.105 1355.14 199.748C1363.61 202.987 1371.77 206.346 1379.62 209.817C1418.41 226.882 1447.87 246.643 1468.31 267.458C1486.46 286.072 1502.59 305.823 1510.64 325.491C1514.54 335.028 1516.73 344.689 1525.66 353.647" opacity="0.1864" stroke="#5978C3" stroke-miterlimit="10" stroke-width="1.164"/>
<path d="M-99.1131 24.3008C-73.5327 21.3095 -16.1348 18.9795 44.7359 19.7803C75.4443 20.1884 104.779 21.1029 126.989 22.6528C185.411 26.7238 243.892 37.1701 283.893 53.2166C323.364 69.0513 340.164 89.2618 363.535 107.447C394.414 131.481 440.839 155.292 512.802 168.523C574.509 179.941 639.27 184.069 704.731 185.376C712.419 185.51 720.15 185.634 727.948 185.675C796.746 186.047 867.676 182.916 938.129 178.055C978.94 175.214 1019.72 171.742 1060.66 169.339C1076.88 168.389 1093.23 167.609 1109.69 167.108C1167.61 165.356 1228.04 167.335 1278.63 176.8C1308.13 182.379 1333.25 190.309 1355.92 199.004C1364.39 202.259 1372.54 205.638 1380.37 209.125C1419.07 226.251 1448.51 246.038 1468.95 266.879C1487.16 285.571 1503.03 305.394 1510.78 325.155C1514.53 334.728 1516.57 344.43 1525.5 353.43" opacity="0.1866" stroke="#5A79C5" stroke-miterlimit="10" stroke-width="1.1419"/>
<path d="M-99.1133 24.3937C-73.4305 20.9426 -15.3158 18.2974 45.6231 18.8244C76.468 19.0931 105.888 19.9042 128.064 21.3817C186.742 25.2874 245.343 35.775 285.181 51.9352C324.627 67.9301 341.162 88.3472 364.277 106.77C394.772 131.073 440.924 155.204 513.058 168.461C574.671 179.848 639.799 183.676 705.345 184.761C713.042 184.874 720.789 184.967 728.588 184.988C797.53 185.169 868.444 181.971 938.862 177.063C979.682 174.196 1020.47 170.703 1061.41 168.301C1077.65 167.345 1094 166.57 1110.47 166.074C1168.41 164.333 1228.88 166.358 1279.44 175.9C1308.95 181.527 1334.04 189.519 1356.66 198.26C1365.12 201.536 1373.26 204.93 1381.07 208.433C1419.68 225.626 1449.11 245.439 1469.55 266.305C1487.82 285.08 1503.42 304.975 1510.87 324.819C1514.48 334.428 1516.37 344.172 1525.29 353.213" opacity="0.1868" stroke="#5B7BC7" stroke-miterlimit="10" stroke-width="1.1198"/>
<path d="M-99.1133 24.492C-73.3196 20.5811 -14.4968 17.6208 46.5189 17.874C77.4918 18.0031 107.006 18.7109 129.148 20.111C188.073 23.8462 246.802 34.3855 286.478 50.6541C325.898 66.8091 342.169 87.433 365.036 106.094C395.139 130.665 441.018 155.122 513.339 168.399C574.85 179.755 640.354 183.283 705.994 184.146C713.707 184.234 721.463 184.306 729.271 184.301C798.35 184.291 869.254 181.026 939.639 176.071C980.458 173.178 1021.25 169.67 1062.22 167.263C1078.47 166.307 1094.82 165.532 1111.3 165.041C1169.26 163.31 1229.78 165.377 1280.31 175.002C1309.82 180.674 1334.87 188.729 1357.47 197.516C1365.91 200.813 1374.04 204.222 1381.84 207.741C1420.35 224.996 1449.77 244.835 1470.21 265.732C1488.55 284.584 1503.88 304.547 1511.04 324.473C1514.51 334.119 1516.24 343.909 1525.16 352.986" opacity="0.187" stroke="#5C7CCA" stroke-miterlimit="10" stroke-width="1.0976"/>
<path d="M-99.1133 24.5849C-73.2087 20.2142 -13.6777 16.9388 47.4063 16.9181C78.5157 16.9078 108.115 17.5071 130.222 18.84C189.395 22.4047 248.252 33.0008 287.766 49.3728C327.161 65.6931 343.176 86.5133 365.779 105.412C395.489 130.251 441.103 155.029 513.604 168.327C575.012 179.651 640.891 182.88 706.625 183.526C714.356 183.588 722.12 183.634 729.936 183.614C799.16 183.412 870.048 180.075 940.398 175.079C981.226 172.155 1022.02 168.632 1063.02 166.224C1079.27 165.268 1095.63 164.493 1112.11 164.003C1170.11 162.282 1230.66 164.39 1281.15 174.092C1310.67 179.817 1335.69 187.928 1358.25 196.767C1366.68 200.079 1374.8 203.504 1382.59 207.043C1421.01 224.366 1450.41 244.23 1470.85 265.148C1489.24 284.088 1504.31 304.123 1511.17 324.137C1514.49 333.819 1516.07 343.65 1525 352.774" opacity="0.1872" stroke="#5D7ECC" stroke-miterlimit="10" stroke-width="1.0755"/>
<path d="M-99.1138 24.683C-73.0982 19.8474 -12.859 16.2568 48.2933 15.9675C79.5307 15.8177 109.232 16.3085 131.297 17.569C190.717 20.9633 249.694 31.611 289.054 48.0915C328.414 64.572 344.174 85.5988 366.52 104.735C395.847 129.848 441.18 154.941 513.859 168.265C575.165 179.558 641.42 182.488 707.248 182.911C714.987 182.947 722.768 182.968 730.593 182.927C799.953 182.534 870.832 179.129 941.149 174.087C981.985 171.137 1022.78 167.598 1063.8 165.186C1080.06 164.23 1096.42 163.455 1112.91 162.969C1170.94 161.264 1231.53 163.414 1281.99 173.193C1311.52 178.964 1336.5 187.137 1359.02 196.023C1367.44 199.356 1375.55 202.796 1383.33 206.351C1421.64 223.735 1451.03 243.626 1471.47 264.575C1489.92 283.597 1504.73 303.704 1511.29 323.801C1514.46 333.519 1515.89 343.392 1524.82 352.557" opacity="0.1874" stroke="#5E7FCE" stroke-miterlimit="10" stroke-width="1.0534"/>
<path d="M-99.1138 24.776C-72.9874 19.4806 -12.0485 15.5749 49.1806 15.0117C80.5545 14.7224 110.341 15.1099 132.381 16.2982C192.048 19.5219 251.153 30.2213 290.36 46.8103C329.694 63.4561 345.198 84.6844 367.288 104.058C396.231 129.44 441.282 154.853 514.149 168.198C575.353 179.455 641.983 182.09 707.896 182.291C715.652 182.302 723.442 182.302 731.267 182.234C800.772 181.651 871.634 178.179 941.925 173.09C982.77 170.114 1023.56 166.555 1064.61 164.137C1080.88 163.181 1097.24 162.406 1113.73 161.926C1171.79 160.231 1232.42 162.422 1282.86 172.284C1312.39 178.101 1337.35 186.336 1359.83 195.269C1368.24 198.617 1376.33 202.078 1384.1 205.648C1422.32 223.1 1451.71 243.016 1472.13 263.991C1490.65 283.096 1505.2 303.27 1511.46 323.455C1514.49 333.209 1515.76 343.123 1524.69 352.33" opacity="0.1876" stroke="#5F81D1" stroke-miterlimit="10" stroke-width="1.0313"/>
<path d="M-99.1132 24.8688C-72.8844 19.1136 -11.2288 14.8927 50.0685 14.0558C81.5704 13.627 111.451 13.9059 133.456 15.027C193.371 18.0751 252.604 28.8314 291.648 45.5288C330.958 62.3348 346.197 83.7698 368.031 103.381C396.589 129.032 441.368 154.77 514.406 168.135C575.515 179.362 642.512 181.697 708.52 181.681C716.293 181.666 724.091 181.64 731.924 181.552C801.566 180.777 872.42 177.233 942.676 172.103C983.53 169.101 1024.32 165.526 1065.39 163.103C1081.66 162.148 1098.04 161.373 1114.53 160.892C1172.62 159.208 1233.28 161.445 1283.69 171.38C1313.22 177.249 1338.15 185.546 1360.59 194.525C1368.98 197.893 1377.07 201.37 1384.83 204.956C1422.95 222.469 1452.32 242.416 1472.75 263.412C1491.32 282.6 1505.61 302.847 1511.57 323.114C1514.45 332.904 1515.57 342.865 1524.51 352.107" opacity="0.1878" stroke="#6082D3" stroke-miterlimit="10" stroke-width="1.0092"/>
<path d="M-99.1131 24.9671C-72.7733 18.752 -10.418 14.2108 50.9647 13.1052C82.5946 12.5369 112.569 12.7074 134.54 13.7562C194.703 16.6287 254.055 27.4417 292.946 44.2477C332.221 61.219 347.212 82.8554 368.782 102.704C396.957 128.624 441.453 154.682 514.679 168.073C575.686 179.269 643.059 181.304 709.16 181.067C716.941 181.031 724.757 180.974 732.599 180.865C802.386 179.899 873.231 176.288 943.445 171.111C984.307 168.084 1025.1 164.488 1066.19 162.065C1082.47 161.104 1098.85 160.334 1115.35 159.859C1173.46 158.185 1234.17 160.464 1284.54 170.481C1314.09 176.396 1338.98 184.755 1361.38 193.781C1369.77 197.17 1377.84 200.662 1385.59 204.258C1423.62 221.839 1452.97 241.807 1473.4 262.834C1492.03 282.099 1506.05 302.418 1511.72 322.773C1514.45 332.599 1515.42 342.601 1524.36 351.885" opacity="0.188" stroke="#6184D6" stroke-miterlimit="10" stroke-width="0.987"/>
<path d="M-99.1129 25.0603C-72.6622 18.3854 -9.60726 13.524 51.8521 12.1497C83.61 11.4419 113.678 11.5039 135.615 12.4855C196.025 15.1823 255.497 26.0522 294.234 42.9667C333.475 60.0981 348.219 81.9464 369.533 102.023C397.324 128.211 441.547 154.59 514.944 168.001C575.848 179.166 643.596 180.902 709.791 180.442C717.59 180.38 725.414 180.302 733.264 180.168C803.188 179.011 874.024 175.332 944.204 170.109C985.066 167.051 1025.87 163.44 1066.99 161.017C1083.27 160.056 1099.66 159.286 1116.16 158.816C1174.3 157.152 1235.05 159.472 1285.38 169.572C1314.94 175.534 1339.8 183.955 1362.16 193.027C1370.54 196.432 1378.6 199.945 1386.33 203.556C1424.26 221.204 1453.61 241.197 1474.03 262.25C1492.73 281.598 1506.55 301.984 1511.85 322.427C1514.48 332.29 1515.26 342.333 1524.2 351.663" opacity="0.1882" stroke="#6285D8" stroke-miterlimit="10" stroke-width="0.9649"/>
<path d="M-99.1132 25.1584C-72.5516 18.0237 -8.79695 12.842 52.7393 11.1991C84.6251 10.3466 114.787 10.3053 136.69 11.2146C197.339 13.7357 256.947 24.6676 295.522 41.6854C334.738 58.9821 349.226 81.0319 370.275 101.346C397.69 127.808 441.624 154.507 515.208 167.939C576.01 179.073 644.134 180.509 710.414 179.832C718.23 179.744 726.062 179.641 733.912 179.486C803.981 178.132 874.801 174.387 944.946 169.122C985.817 166.038 1026.62 162.411 1067.76 159.983C1084.05 159.022 1100.44 158.253 1116.95 157.782C1175.13 156.134 1235.91 158.495 1286.21 168.668C1315.78 174.681 1340.6 183.159 1362.93 192.278C1371.3 195.703 1379.34 199.232 1387.06 202.858C1424.9 220.568 1454.23 240.588 1474.65 261.666C1493.41 281.097 1506.96 301.555 1511.97 322.081C1514.45 331.98 1515.08 342.069 1524.02 351.436" opacity="0.1884" stroke="#6386DA" stroke-miterlimit="10" stroke-width="0.9428"/>
<path d="M-99.1136 25.2515C-72.4496 17.657 -7.98671 12.1549 53.6263 10.2434C85.6401 9.25146 115.896 9.10163 137.765 9.94374C198.661 12.2841 258.389 23.278 296.81 40.4042C335.992 57.8663 350.232 80.1175 371.017 100.669C398.057 127.399 441.7 154.419 515.472 167.872C576.181 178.975 644.662 180.111 711.045 179.212C718.869 179.099 726.711 178.959 734.578 178.799C804.783 177.177 875.594 173.442 945.705 168.131C986.584 165.02 1027.39 161.373 1068.56 158.945C1084.85 157.984 1101.24 157.214 1117.76 156.749C1175.96 155.112 1236.79 157.514 1287.06 167.769C1316.62 173.829 1341.42 182.369 1363.71 191.539C1372.06 194.98 1380.1 198.529 1387.82 202.171C1425.55 219.949 1454.87 239.994 1475.29 261.098C1494.11 280.611 1507.39 301.137 1512.11 321.75C1514.44 331.685 1514.92 341.816 1523.87 351.224" opacity="0.1886" stroke="#6588DD" stroke-miterlimit="10" stroke-width="0.9207"/>
<path d="M-99.113 25.3444C-72.3381 17.2901 -7.17564 11.4677 54.5227 9.28752C86.6645 8.15093 117.006 7.89778 138.849 8.67273C199.993 10.8322 259.84 21.8881 298.108 39.1229C337.255 56.7503 351.257 79.203 371.777 99.9922C398.433 126.996 441.803 154.331 515.746 167.81C576.352 178.882 645.209 179.718 711.685 178.597C719.527 178.458 727.377 178.298 735.252 178.112C805.594 176.304 876.396 172.496 946.474 167.139C987.361 164.003 1028.16 160.34 1069.35 157.906C1085.66 156.945 1102.05 156.176 1118.57 155.716C1176.8 154.088 1237.67 156.537 1287.91 166.87C1317.48 172.976 1342.24 181.578 1364.5 190.795C1372.84 194.256 1380.87 197.821 1388.57 201.479C1426.2 219.318 1455.51 239.389 1475.93 260.519C1494.81 280.115 1507.83 300.713 1512.25 321.409C1514.43 331.38 1514.76 341.553 1523.71 351.002" opacity="0.1888" stroke="#6689DF" stroke-miterlimit="10" stroke-width="0.8986"/>
<path d="M-99.1129 25.4427C-72.2271 16.9287 -6.36496 10.7859 55.4102 8.33712C87.68 7.05588 118.115 6.69941 139.924 7.40202C201.307 9.38071 261.282 20.5037 299.396 37.8418C338.509 55.6346 352.264 78.2888 372.52 99.3156C398.8 126.588 441.88 154.244 516.01 167.748C576.514 178.789 645.747 179.326 712.317 177.988C720.167 177.823 728.034 177.637 735.918 177.43C806.396 175.441 877.19 171.551 947.233 166.152C988.129 162.99 1028.93 159.307 1070.14 156.873C1086.46 155.912 1102.86 155.143 1119.38 154.688C1177.64 153.071 1238.55 155.561 1288.75 165.971C1318.34 172.124 1343.06 180.788 1365.28 190.051C1373.62 193.533 1381.63 197.114 1389.32 200.787C1426.86 218.693 1456.16 238.79 1476.57 259.946C1495.51 279.625 1508.25 300.295 1512.39 321.074C1514.42 331.086 1514.6 341.295 1523.55 350.785" opacity="0.189" stroke="#678BE1" stroke-miterlimit="10" stroke-width="0.8764"/>
<path d="M-99.113 25.5357C-72.1162 16.5618 -5.56293 10.0936 56.2975 7.38134C88.6953 5.96061 119.224 5.49564 140.999 6.13109C202.629 7.92897 262.724 19.114 300.685 36.5606C339.763 54.5186 353.27 77.3795 373.262 98.6336C399.166 126.18 441.957 154.156 516.266 167.676C576.668 178.685 646.276 178.923 712.931 177.363C720.798 177.177 728.674 176.965 736.558 176.733C807.181 174.563 877.958 170.595 947.975 165.15C988.88 161.962 1029.68 158.263 1070.92 155.825C1087.23 154.858 1103.64 154.094 1120.18 153.639C1178.46 152.032 1239.41 154.564 1289.58 165.057C1319.17 171.261 1343.87 179.982 1366.04 189.297C1374.36 192.795 1382.36 196.395 1390.03 200.084C1427.48 218.053 1456.77 238.175 1477.18 259.362C1496.18 279.123 1508.65 299.866 1512.49 320.728C1514.38 330.776 1514.4 341.031 1523.35 350.563" opacity="0.1892" stroke="#688CE4" stroke-miterlimit="10" stroke-width="0.8543"/>
<path d="M-99.1133 25.6337C-72.0141 16.2001 -4.76123 9.41154 57.1845 6.43058C89.7103 4.8652 120.333 4.2969 142.074 4.86003C203.943 6.47191 264.165 17.7293 301.973 35.2792C341.017 53.4025 354.285 76.4649 374.012 97.9567C399.542 125.777 442.05 154.068 516.539 167.614C576.838 178.592 646.821 178.53 713.571 176.748C721.455 176.536 729.339 176.298 737.231 176.045C807.991 173.689 878.76 169.649 948.743 164.158C989.648 160.939 1030.46 157.224 1071.72 154.786C1088.04 153.82 1104.46 153.055 1120.99 152.606C1179.3 151.009 1240.29 153.587 1290.43 164.158C1320.03 170.409 1344.69 179.192 1366.83 188.553C1375.14 192.071 1383.13 195.682 1390.78 199.392C1428.14 217.427 1457.41 237.576 1477.82 258.783C1496.89 278.622 1509.08 299.442 1512.64 320.386C1514.37 330.471 1514.25 340.767 1523.21 350.341" opacity="0.1894" stroke="#698EE6" stroke-miterlimit="10" stroke-width="0.8322"/>
<path d="M-99.1132 25.7266C-71.9032 15.8332 -3.95058 8.71919 58.072 5.47475C90.7258 3.76471 121.443 3.08792 143.158 3.58906C205.274 5.01495 265.565 16.3808 303.27 33.9979C342.229 52.3227 355.378 75.5297 374.763 97.2798C400.011 125.343 442.136 153.98 516.803 167.547C577.009 178.494 647.359 178.132 714.202 176.133C722.095 175.895 729.996 175.637 737.897 175.358C808.802 172.821 879.562 168.699 949.502 163.166C990.415 159.921 1031.23 156.186 1072.51 153.747C1088.85 152.781 1105.26 152.022 1121.8 151.572C1180.14 149.992 1241.17 152.606 1291.27 163.253C1320.87 169.551 1345.51 178.396 1367.61 187.804C1375.91 191.337 1383.89 194.969 1391.54 198.689C1428.79 216.787 1458.05 236.961 1478.46 258.2C1497.59 278.121 1509.51 299.013 1512.77 320.045C1514.36 330.166 1514.09 340.504 1523.05 350.118" opacity="0.1896" stroke="#6A8FE8" stroke-miterlimit="10" stroke-width="0.8101"/>
<path d="M-99.1131 25.8198C-71.7922 15.4666 -3.15691 7.98575 58.968 4.51917C91.7413 2.6438 122.552 1.86369 144.242 2.31833C206.597 3.50141 267.041 14.9706 304.567 32.7168C343.509 51.1915 356.367 74.6258 375.523 96.6032C400.352 124.951 442.238 153.892 517.085 167.485C577.188 178.401 647.914 177.74 714.851 175.518C722.76 175.255 730.67 174.976 738.58 174.671C809.621 171.954 880.372 167.753 950.279 162.174C991.201 158.904 1032.01 155.153 1073.33 152.709C1089.67 151.743 1106.08 150.984 1122.63 150.534C1181 148.964 1242.06 151.624 1292.13 162.35C1321.74 168.699 1346.35 177.6 1368.4 187.06C1376.7 190.614 1384.66 194.262 1392.3 197.997C1429.45 216.162 1458.7 236.362 1479.1 257.626C1498.29 277.63 1509.95 298.595 1512.92 319.71C1514.35 329.867 1513.93 340.246 1522.89 349.902" opacity="0.1898" stroke="#6B91EB" stroke-miterlimit="10" stroke-width="0.788"/>
<path d="M-99.1133 25.9178C-57.1762 9.3805 82.7137 -0.00666789 145.316 1.04726C207.911 2.09601 268.5 13.5652 305.855 31.4354C344.789 50.0548 357.34 73.7267 376.265 95.9263C400.676 124.563 442.315 153.809 517.349 167.423C577.35 178.308 648.451 177.347 715.473 174.903C794.672 172.021 873.384 167.438 951.021 161.182C1008.14 156.584 1065.01 151.061 1123.42 149.501C1181.82 147.941 1242.93 150.643 1292.97 161.45C1322.58 167.846 1347.16 176.81 1369.18 186.316C1455.66 223.637 1506.95 271.074 1513.05 319.363C1514.34 329.557 1513.76 339.982 1522.73 349.674" opacity="0.19" stroke="#6C92ED" stroke-miterlimit="10" stroke-width="0.7658"/>
</g>
</svg>