<svg xmlns="http://www.w3.org/2000/svg" id="halfCirclesShapeLeft" width="135" height="463" viewBox="0 0 135 463">
  <mask id="mask0_19_27294" style="mask-type:alpha" maskUnits="userSpaceOnUse" x="-8" y="0" width="143" height="463">
    <rect x="-7.09009" y="0.258301" width="142.09" height="462.689" fill="#D9D9D9"></rect>
  </mask>
  <g mask="url(#mask0_19_27294)">
    <path d="M-127.27 500.616L-122.963 -99.284C-78.3191 -80.6641 -43.1438 -56.2003 -22.3787 -17.5959C-7.0405 10.9606 -1.25163 40.9333 2.23722 70.8214C5.25135 96.4902 16.6895 113.357 36.1095 136.106C72.1115 178.284 121.975 220.267 111.176 270.727C98.5772 329.503 5.34573 372.526 -3.0467 431.644C-6.65406 457.342 -65.4077 476.297 -43.5623 497.304L-127.27 500.616Z" style="fill: var(--svg-color2, #D4A5FE); opacity: 1;"></path>
    <path d="M-103.133 418.469L-99.8875 -33.6469C-57.7959 -21.8134 -18.9885 -6.10061 13.3786 14.1109C77.9035 54.4368 113.084 114.398 89.2174 168.524C63.8548 226.158 -21.3317 269.066 -42.5493 327.301C-53.9085 358.524 -45.2038 389.775 -24.2462 418.961L-103.133 418.469Z" style="fill: var(--svg-color, #0059FF); opacity: 0.9;"></path>
  </g>
</svg>
